<svg width="248" height="39" xmlns="http://www.w3.org/2000/svg" viewBox="0 0 248 39">
  <g fill="none">
    <circle fill="#88BA28" cx="13.5" cy="34.5" r="4.5"/>
    <path d="M60 25.85a7.503 7.503 0 0 0 0-14.7V8a2 2 0 0 1 2-2h23a2 2 0 0 1 2 2v23a2 2 0 0 1-2 2H62a2 2 0 0 1-2-2v-5.15z" fill="#E34034"/>
    <circle fill="#E34034" cx="88.5" cy="18.5" r="4.5"/>
    <circle fill="#E34034" cx="73.5" cy="34.5" r="4.5"/>
    <path d="M30 25.85a7.503 7.503 0 0 0 0-14.7V8a2 2 0 0 1 2-2h23a2 2 0 0 1 2 2v23a2 2 0 0 1-2 2H32a2 2 0 0 1-2-2v-5.15z" fill="#F2AD29"/>
    <circle fill="#F2AD29" cx="58.5" cy="18.5" r="4.5"/>
    <circle fill="#F2AD29" cx="43.5" cy="4.5" r="4.5"/>
    <rect fill="#88BA28" y="6" width="27" height="27" rx="2"/>
    <circle fill="#88BA28" cx="28.5" cy="18.5" r="4.5"/>
    <path d="M9.171 24l3.159-9.295h2.392L17.881 24h-2.34l-.572-1.95H12.07L11.511 24h-2.34zm3.432-3.77h1.833l-.52-1.807c-.169-.585-.377-1.599-.377-1.599h-.026s-.208 1.014-.377 1.599l-.533 1.807zM41.295 24v-9.295h3.42c1.858 0 3.158.832 3.158 2.431 0 .78-.377 1.573-1.078 1.976v.026c1.066.325 1.456 1.274 1.456 2.093 0 2.028-1.69 2.769-3.536 2.769h-3.42zm2.276-5.694h1.17c.572 0 .819-.416.819-.858 0-.429-.248-.793-.858-.793H43.57v1.651zm0 3.744h1.364c.663 0 .988-.455.988-.975s-.312-.949-.974-.949H43.57v1.924zm26.295-2.717c0 2.756 1.885 4.823 4.875 4.823 1.703 0 2.925-.715 3.744-1.56l-1.17-1.664c-.637.637-1.547 1.144-2.47 1.144-1.794 0-2.626-1.417-2.626-2.795 0-1.339.767-2.652 2.626-2.652.832 0 1.729.429 2.327.949l1.053-1.716c-.91-.897-2.236-1.313-3.484-1.313-2.873 0-4.875 2.08-4.875 4.784z" fill="#FFF"/>
    <path d="M108.5 18V3.7h5.94c2.78 0 4.66 2.04 4.66 4.92s-1.88 4.96-4.66 4.96H112V18h-3.5zm3.5-7.42h1.72c1.22 0 1.82-.82 1.82-1.96 0-1.14-.6-1.92-1.76-1.92H112v3.88zm8.745 3.8V7.7h3.46v6.04c0 .96.38 1.36 1.1 1.36 1.48 0 2.18-1.3 2.18-2.84V7.7h3.46V18h-3.32v-.9c0-.34.04-.64.04-.64h-.04c-.56 1.1-1.84 1.78-3.22 1.78-2.04 0-3.66-.96-3.66-3.86zM132.891 18v-1.72l3.78-4.74c.52-.64.9-.94.9-.94v-.04s-.26.04-.9.04h-3.62V7.7h9.2v1.74l-3.76 4.74c-.5.62-.92.94-.92.94v.04s.26-.06.92-.06h3.86V18h-9.46zm10.985 0v-1.72l3.78-4.74c.52-.64.9-.94.9-.94v-.04s-.26.04-.9.04h-3.62V7.7h9.2v1.74l-3.76 4.74c-.5.62-.92.94-.92.94v.04s.26-.06.92-.06h3.86V18h-9.46zm11.445-3.8V3.7h3.46v10.04c0 .98.18 1.32.96 1.32.1 0 .26 0 .42-.02v3c-.24.02-.6.06-1.04.06-1.84 0-3.8-.44-3.8-3.9zm6.005-1.36c0-3.02 2.04-5.38 5.36-5.38 3.04 0 4.76 2.12 4.76 4.98 0 .36-.04.72-.08 1.08h-6.5c.26 1.26 1.3 1.84 2.4 1.84 1.02 0 2-.48 2.84-1.04l1.28 2.42c-1.12.96-2.82 1.5-4.4 1.5-3.68 0-5.66-2.66-5.66-5.4zm3.62-1.3h3.08c0-.84-.54-1.54-1.42-1.54-1 0-1.48.72-1.66 1.54zm13.65 6.46V3.7h8.96v3h-5.46v2.6h4.36v3h-4.36V15h5.74v3h-9.24zm11.246 0V7.7h3.32v.9c0 .34-.04.64-.04.64h.04c.48-.8 1.46-1.78 3.28-1.78 2.08 0 3.7.96 3.7 3.86V18h-3.46v-6.04c0-.96-.38-1.36-1.14-1.36-1.54 0-2.24 1.28-2.24 2.74V18h-3.46zm14.065.66c.86.42 1.86.66 2.9.66 1.24 0 2.38-.46 2.38-1.98V17c0-.12.02-.38.02-.38h-.04c-.6.72-1.38 1.08-2.58 1.08-3.1 0-4.64-2.54-4.64-5.18 0-2.62 1.5-5.06 4.62-5.06.98 0 2.08.28 2.8 1h.06s-.02-.12-.02-.24V7.7h3.24v9.36c0 3.76-3 5.14-5.82 5.14-1.38 0-2.9-.4-3.9-.92l.98-2.62zm1.52-6.26c0 1.28.6 2.42 1.98 2.42.9 0 1.86-.46 1.86-2.26 0-1.82-.96-2.22-2-2.22-1.22 0-1.84.88-1.84 2.06zm9.626 1.8V3.7h3.46v10.04c0 .98.18 1.32.96 1.32.1 0 .26 0 .42-.02v3c-.24.02-.6.06-1.04.06-1.84 0-3.8-.44-3.8-3.9zm6.625-7.8V3.7h3.38v2.7h-3.38zm-.04 11.6V7.7h3.46V18h-3.46zm5.105-1.28l1.48-2.26c.76.64 1.82 1.04 2.8 1.04.7 0 .94-.22.94-.54 0-1.1-4.82-.86-4.82-4.24 0-2.12 1.9-3.26 4.28-3.26 1.32 0 2.64.34 3.68 1.18l-1.18 2.4c-.6-.48-1.72-.84-2.6-.84-.74 0-.96.22-.96.5 0 1.08 4.82.82 4.82 4.16 0 1.92-1.6 3.38-4.24 3.38-1.48 0-3.06-.5-4.2-1.52zM237.048 18V3.7h3.46v4.52c0 .52-.04.88-.04.88h.04c.58-1.02 1.78-1.64 3.14-1.64 2.08 0 3.7.96 3.7 3.86V18h-3.46v-6.04c0-.96-.38-1.36-1.14-1.36-1.5 0-2.24 1.18-2.24 2.76V18h-3.46z" fill="#525051"/>
  </g>
</svg>
