<svg xmlns="http://www.w3.org/2000/svg" viewBox="-459 260 33 33">
  <path fill="#41B36B" d="M-442.5 261c8.6 0 15.5 6.9 15.5 15.5s-6.9 15.5-15.5 15.5-15.5-6.9-15.5-15.5 6.9-15.5 15.5-15.5z"></path>
  <path fill="#FFF" d="M-442.5 293c-9.1 0-16.5-7.4-16.5-16.5s7.4-16.5 16.5-16.5 16.5 7.4 16.5 16.5-7.4 16.5-16.5 16.5zm0-31c-8 0-14.5 6.5-14.5 14.5s6.5 14.5 14.5 14.5 14.5-6.5 14.5-14.5-6.5-14.5-14.5-14.5z"></path>
  <path fill="#FFF" d="M-433.7 273.6l-10.3 10.5c-.9 1-2.5 1-3.4 0l-3.9-4c-1-1-1-2.5 0-3.5s2.5-1 3.4 0l2.2 2.2 8.6-8.8c1-1 2.5-1 3.4 0s1 2.6 0 3.6z"></path>
</svg>