<svg xmlns="http://www.w3.org/2000/svg" xmlns:xlink="http://www.w3.org/1999/xlink" viewBox="0 0 29 20" width="19" height="13">
  <defs>
    <path id="adsfasdfsadf33331c" d="M26 20H3c-1.7 0-3-1.3-3-3V3c0-1.7 1.3-3 3-3h23c1.7 0 3 1.3 3 3v14c0 1.7-1.3 3-3 3z"/>
  </defs>
  <clipPath id="basdf33ccccaa">
    <use xlink:href="#adsfasdfsadf33331c" overflow="visible"/>
  </clipPath>
  <g clip-path="url(#basdf33ccccaa)">
    <path fill="#00237d" d="M0 0h29v20H0z"/>
    <path fill="#00237d" d="M0 0h15v10H0z"/>
    <path fill="#ffe4e4" d="M5.5 8v2h4V8l3 2H15V8.2L13.1 7H15V3h-1.9L15 1.8V0h-2.5l-3 2V0h-4v2l-3-2H0v1.8L1.9 3H0v4h1.9L0 8.2V10h2.5z"/>
    <path fill="#c41013" d="M15 0h-.6L8.5 3.9V0h-2v3.9L.6 0H0v.5L5.3 4H0v2h5.3L0 9.5v.5h.6l5.9-3.9V10h2V6.1l5.9 3.9h.6v-.5L9.7 6H15V4H9.7L15 .5z"/>
    <path fill="#fff2f2" d="M7.5 16.6l-1 1 .1-1.4-1.4-.3 1.1-.8-.7-1.2 1.4.4.5-1.3.5 1.3 1.4-.4-.7 1.2 1.1.8-1.4.3.1 1.4zM22.3 3.9l-.5.5v-.7l-.8-.2.7-.4-.4-.7.7.2.3-.7.3.7.8-.2-.4.7.7.4-.8.2v.7zm-3.5 5.6l-.6.5.1-.8-.8-.1.6-.5-.4-.7.8.3.3-.8.3.8.7-.3-.4.7.7.5-.8.1.1.8zm3.5 7.5l-.5.6v-.8l-.8-.2.7-.4-.4-.7.7.2.3-.7.3.7.8-.2-.4.7.7.4-.8.2v.8zm3.9-9.2l-.6.5v-.8l-.7-.1.6-.4-.4-.7.8.2.3-.7.3.7.7-.2-.4.7.7.4-.8.1v.8zm-2 2.2l.2.6h.6l-.5.4.2.6-.5-.4-.5.4.2-.6-.5-.4h.6z"/>
  </g>
</svg>
