<svg xmlns="http://www.w3.org/2000/svg" xmlns:xlink="http://www.w3.org/1999/xlink" viewBox="0 0 29 20" width="19" height="13">
  <defs>
    <path id="ljk34" d="M26 20H3c-1.7 0-3-1.3-3-3V3c0-1.7 1.3-3 3-3h23c1.7 0 3 1.3 3 3v14c0 1.7-1.3 3-3 3z"/>
  </defs>
  <clipPath id="aslll99">
    <use xlink:href="#ljk34" overflow="visible"/>
  </clipPath>
  <g clip-path="url(#aslll99)">
    <path fill="#00237d" d="M0 0h29v20H0z"/>
    <path fill="#fff2f2" d="M11.1 0H18v20h-6.9z"/>
    <path fill="#fff2f2" d="M0 6.5h29v6.9H0z"/>
    <path fill="#fff2f2" d="M29 0h-3.9L0 17.1V20h3.9L29 2.9z"/>
    <path fill="#fff2f2" d="M29 17.1L3.9 0H0v2.9L25.1 20H29z"/>
    <path fill="#c41013" d="M12.6 0h3.8v20h-3.8z"/>
    <path fill="#c41013" d="M0 8.1h29v3.8H0z"/>
    <path fill="#c41013" d="M29 0h-1.2L0 18.9V20h1.2L29 1.1z"/>
    <path fill="#c41013" d="M29 18.9L1.2 0H0v1.1L27.8 20H29z"/>
  </g>
</svg>
