<?xml version="1.0" encoding="utf-8"?>
<!-- Generator: Adobe Illustrator 19.2.0, SVG Export Plug-In . SVG Version: 6.00 Build 0)  -->
<svg version="1.1" id="Layer_1" xmlns="http://www.w3.org/2000/svg" xmlns:xlink="http://www.w3.org/1999/xlink" x="0px" y="0px"
	 viewBox="0 0 23.2 26.1" style="enable-background:new 0 0 23.2 26.1;" xml:space="preserve">
<g>
	<path style="fill:#341813;" d="M10.9,21.8h1.4c6,0,10.9-4.9,10.9-10.9v0c0-6-4.9-10.9-10.9-10.9h-1.4C4.9,0,0,4.9,0,10.9v0
		C0,16.9,4.9,21.8,10.9,21.8z"/>
	<path style="fill:#60391E;" d="M4.5,9.1V19c0,3.9,3.2,7.1,7.1,7.1c3.9,0,7.1-3.2,7.1-7.1V9.1H4.5z"/>
	<path style="fill:#6D4221;" d="M11.6,18.6c1.1,0,3,0.3,2-2.6c-0.5-1.4-2-7-2-7H4.5V19c0,3.9,3.2,7.1,7.1,7.1
		C11.6,26.1,10.5,18.6,11.6,18.6z"/>
	<path style="fill:#341813;" d="M14.7,9.3c0,0-0.6,2.4-3.9,2.7c-3.3,0.3-5.9,1.1-6.1,3.1s-0.1,3.4-0.1,3.4l-1.1-0.7
		c0,0-2.4-13.5,8.1-13.5c10.8,0,8.4,13.4,8.4,13.4l-1.1,0.8c0,0-0.1-3-0.1-4.5s-1.4-1.6-2.6-2.6C14.8,10.4,14.7,9.3,14.7,9.3z"/>
	<circle style="fill:#28120F;" cx="8.1" cy="15.3" r="0.9"/>
	<circle style="fill:#28120F;" cx="16.1" cy="15.3" r="0.9"/>
	
		<ellipse transform="matrix(0.8213 -0.5706 0.5706 0.8213 -1.4892 3.9231)" style="fill:#FFFFFF;" cx="5.5" cy="4.3" rx="1.6" ry="0.5"/>
	<g>
		<path style="fill:#842230;" d="M8.3,22c0.5,1.4,1.8,2.4,3.3,2.4s2.8-1,3.3-2.4H8.3z"/>
		<g>
			<path style="fill:#FFFFFF;" d="M14.9,22c0.1-0.4,0.2-0.7,0.2-1.1h-7c0,0.4,0.1,0.8,0.2,1.1H14.9z"/>
		</g>
	</g>
</g>
</svg>
