<?xml version="1.0" encoding="utf-8"?>
<!-- Generator: Adobe Illustrator 19.2.0, SVG Export Plug-In . SVG Version: 6.00 Build 0)  -->
<svg width="27" height="31" version="1.1" id="Layer_1" xmlns="http://www.w3.org/2000/svg" xmlns:xlink="http://www.w3.org/1999/xlink" x="0px" y="0px"
	 viewBox="0 0 18.4 23.9" style="enable-background:new 0 0 18.4 23.9;" xml:space="preserve">
<g>
	<path style="fill:#412615;" d="M17.2,9.2C17.2,4.8,15,0,9.2,0C3.3,0,1.3,4.8,1.3,9.2c0,12.7,3.6,13.5,7.9,13.5S17.2,22.5,17.2,9.2z
		"/>
	<g>
		<ellipse style="fill:#6D4221;" cx="1.9" cy="12.9" rx="1.9" ry="2.6"/>
		<ellipse style="fill:#60391E;" cx="16.4" cy="12.9" rx="2" ry="2.6"/>
	</g>
	<path style="fill:#6D4221;" d="M16.3,9.6c0-3.9-3.2-7.1-7.1-7.1c-3.9,0-7.1,3.2-7.1,7.1v0.6h0v6.7c0,3.9,3.2,7.1,7.1,7.1
		c3.9,0,7.1-3.2,7.1-7.1v-1.5h0V9.6z"/>
	<path style="fill:#60391E;" d="M9.2,2.5c-0.4,0-0.7,0-1.1,0.1l1.1,4.3c0,0,1.5,5.6,2,7c1,2.9-0.9,2.6-2,2.6c-1.1,0,0,7.5,0,7.5
		c3.9,0,7.1-3.2,7.1-7.1v-1.5h0V9.6C16.3,5.7,13.1,2.5,9.2,2.5z"/>
	<circle style="fill:#28120F;" cx="5.3" cy="12.3" r="0.9"/>
	<circle style="fill:#28120F;" cx="13.2" cy="12.3" r="0.9"/>
	<g>
		<path style="fill:#842230;" d="M5.9,19.5c0.5,1.4,1.8,2.4,3.3,2.4s2.8-1,3.3-2.4H5.9z"/>
		<g>
			<path style="fill:#FFFFFF;" d="M12.5,19.5c0.1-0.4,0.2-0.7,0.2-1.1h-7c0,0.4,0.1,0.8,0.2,1.1H12.5z"/>
		</g>
	</g>
	<ellipse style="fill:#412615;" cx="9.2" cy="4.8" rx="5.4" ry="2.5"/>
	
		<ellipse transform="matrix(0.8213 -0.5706 0.5706 0.8213 -0.4182 3.7097)" style="fill:#FFFFFF;" cx="5.7" cy="2.5" rx="1.6" ry="0.5"/>
</g>
</svg>
