<svg width="27" height="31" xmlns="http://www.w3.org/2000/svg" viewBox="0 0 18.1 23"><path fill="#5E3E32" d="M-48.2 10.4h18v3.7h-18z"/><path fill="#E9B846" d="M-46.3 4.8v9.9c0 3.9 3.2 7.1 7.1 7.1 3.9 0 7.1-3.2 7.1-7.1V4.8h-14.2z"/><path fill="#F5CA48" d="M-39.2 14.3c1.1 0 3 .3 2-2.6-.5-1.4-2-7-2-7h-7.1v9.9c0 3.9 3.2 7.1 7.1 7.1 0 .1-1.1-7.4 0-7.4z"/><path fill="#FFF" d="M-39.2 19.8c1.9 0 3.5-1.6 3.5-3.5h-7c0 1.9 1.5 3.5 3.5 3.5z"/><path fill="#5E3E32" d="M-36.2 4.9s-.6 2.4-3.9 2.7c-3.3.3-5.9 1.1-6.1 3.1s-.1 3.4-.1 3.4h-1.8S-49.8-.1-39.2-.1c10.8 0 9.1 14.2 9.1 14.2H-32s-.1-3-.1-4.5S-33.6 8-34.8 7c-1.2-1.1-1.4-2.1-1.4-2.1z"/><circle fill="#5E3E32" cx="-42.7" cy="11" r=".9"/><circle fill="#5E3E32" cx="-34.8" cy="11" r=".9"/><ellipse transform="matrix(.821 -.571 .571 .821 -9.215 -24.069)" fill="#FFF" cx="-43" cy="2.7" rx="1.6" ry=".5"/><path fill="#6B3E3E" d="M-42.5 17.4c.5 1.4 1.8 2.4 3.3 2.4s2.8-1 3.3-2.4h-6.6z"/><path fill="#E9B846" d="M23.5-39.5v9.9c0 3.9 3.2 7.1 7.1 7.1 3.9 0 7.1-3.2 7.1-7.1v-9.9H23.5z"/><path fill="#F5CA48" d="M30.8-29.9c1.1 0 3 .3 2-2.6-.5-1.4-2-7-2-7h-7.1v9.9c0 3.9 3.2 7.1 7.1 7.1 0 0-1.1-7.4 0-7.4z"/><path fill="none" stroke="#473421" stroke-linecap="round" stroke-miterlimit="10" d="M28-26.5s1.1 1.1 2.5 1.1c1.7 0 2.7-1.1 2.7-1.1"/><path fill="#291D11" d="M30.6-42.6h4.6l3.1-3.6v16.3s-1.6-.6-3.4-.3c-2.3.3-4 2.3-4 2.3h-.6s-1.7-2-4-2.3c-1.8-.2-3.4.3-3.4.3v-16.2l3.1 3.6h4.6"/><path fill="#FFF" d="M25.2-34.1l3.5 1.5s-.9 1.2-1.7.8c-.9-.4-1.8-2.3-1.8-2.3zm11 0l-3.5 1.5s.9 1.2 1.7.8c.9-.4 1.8-2.3 1.8-2.3z"/><circle fill="#F5CA48" cx="-48" cy="-34.7" r="2.6"/><circle fill="#E9B846" cx="-34.1" cy="-34.7" r="2.6"/><path fill="#F5CA48" d="M-33.9-38.1c0-3.9-3.2-7.1-7.1-7.1-3.9 0-7.1 3.2-7.1 7.1v7.3c0 3.9 3.2 7.1 7.1 7.1 3.9 0 7.1-3.2 7.1-7.1v-7.3z"/><path fill="#E9B846" d="M-40.9-45.1c-.4 0-.7 0-1.1.1l1.1 4.3s1.5 5.6 2 7c1 2.9-.9 2.6-2 2.6s0 7.5 0 7.5c3.9 0 7.1-3.2 7.1-7.1v-7.2c-.1-4.1-3.2-7.2-7.1-7.2z"/><path fill="#FFF" d="M-41-25.8c1.9 0 3.5-1.6 3.5-3.5h-7c0 2 1.6 3.5 3.5 3.5z"/><circle fill="#5E3E32" cx="-44.5" cy="-34.5" r=".9"/><circle fill="#5E3E32" cx="-37.1" cy="-34.5" r=".9"/><ellipse transform="matrix(.821 -.571 .571 .821 16.186 -33.002)" fill="#FFF" cx="-44.6" cy="-42.3" rx="1.6" ry=".5"/><path fill="#6B3E3E" d="M-44.3-28.1c.5 1.4 1.8 2.4 3.3 2.4s2.8-1 3.3-2.4h-6.6z"/><path fill="none" stroke="#473421" stroke-width=".5" stroke-miterlimit="10" d="M-43.5-32.3h-2.7c-.6 0-1.2-.5-1.2-1.2v-2c0-.6.5-1.2 1.2-1.2h2.7c.6 0 1.2.5 1.2 1.2v2c-.1.6-.6 1.2-1.2 1.2zm8.2 0H-38c-.6 0-1.2-.5-1.2-1.2v-2c0-.6.5-1.2 1.2-1.2h2.7c.6 0 1.2.5 1.2 1.2v2c-.1.6-.6 1.2-1.2 1.2z"/><path fill="none" stroke="#473421" stroke-width=".5" stroke-miterlimit="10" d="M-42.4-34.3s.7-1 1.6-1c.9 0 1.6.8 1.6.8"/><circle fill="#5E3E32" cx="73.7" cy="-38.2" r="1.9"/><circle fill="#5E3E32" cx="73.7" cy="-34.4" r="1.9"/><circle fill="#5E3E32" cx="59.2" cy="-38.4" r="1.9"/><circle fill="#5E3E32" cx="59.2" cy="-34.7" r="1.9"/><path fill="#E9B846" d="M59.6-40.5v9.9c0 3.9 3.2 7.1 7.1 7.1 3.9 0 7.1-3.2 7.1-7.1v-9.9H59.6z"/><path fill="#F5CA48" d="M66.6-30.9c1.1 0 3 .3 2-2.6-.5-1.4-2-7-2-7h-7.1v9.9c0 3.9 3.2 7.1 7.1 7.1 0 0-1.1-7.4 0-7.4z"/><circle fill="#5E3E32" cx="63.1" cy="-34.2" r=".9"/><circle fill="#5E3E32" cx="71.1" cy="-34.2" r=".9"/><path fill="#5E3E32" d="M70.6-29.5c-.1-.3-.4-.5-.8-.5h-6.2c-.4 0-.7.2-.8.5 0 .1-.1.2-.1.3v4.9c0 .5.4.9.9.9s.9-.4.9-.9v-4H69v4c0 .5.4.9.9.9s.9-.4.9-.9v-4.9c-.2-.1-.2-.2-.2-.3z"/><circle fill="#5E3E32" cx="64.8" cy="-40.5" r="1.9"/><circle fill="#5E3E32" cx="68.5" cy="-40.5" r="1.9"/><circle fill="#5E3E32" cx="72.1" cy="-40.5" r="1.9"/><circle fill="#5E3E32" cx="61.1" cy="-40.5" r="1.9"/><circle fill="#5E3E32" cx="64.7" cy="-42.7" r="1.9"/><circle fill="#5E3E32" cx="59.2" cy="-42.1" r="1.9"/><circle fill="#5E3E32" cx="73.7" cy="-42" r="1.9"/><circle fill="#5E3E32" cx="63" cy="-45.7" r="1.9"/><circle fill="#5E3E32" cx="66.6" cy="-45.7" r="1.9"/><circle fill="#5E3E32" cx="70.3" cy="-45.7" r="1.9"/><path fill="#5E3E32" d="M59.6-45.5c-.1.2-.3 3.1-.3 3.1l1.4 1.6 2.5.5 9.5-.6 1.1-2.7-.3-1.6-2-.5h-5.7l-6.2.2z"/><circle fill="#5E3E32" cx="72.7" cy="-44.2" r="1.9"/><circle fill="#5E3E32" cx="60.4" cy="-44.6" r="1.9"/><ellipse transform="matrix(.821 -.571 .571 .821 35.895 27.023)" fill="#FFF" cx="61.1" cy="-43.8" rx="1.6" ry=".5"/><path fill="#5E3E32" d="M4.3 60.9h18.2v10.3H4.3z"/><path fill="#E9B846" d="M6.3 54.1V64c0 3.9 3.2 7.1 7.1 7.1 3.9 0 7.1-3.2 7.1-7.1v-9.9H6.3z"/><path fill="#F5CA48" d="M13.4 63.7c1.1 0 3 .3 2-2.6-.5-1.4-2-7-2-7H6.3V64c0 3.9 3.2 7.1 7.1 7.1 0 0-1.1-7.4 0-7.4z"/><path fill="#5E3E32" d="M16.5 54.4s-.6 2.4-3.9 2.7c-3.3.3-5.9 1.1-6.1 3.1-.2 2.1-.1 3.4-.1 3.4H4.5s-1.7-14.2 8.9-14.2c10.8 0 9.1 14.2 9.1 14.2h-1.9s-.1-3-.1-4.5-1.4-1.6-2.6-2.6c-1.3-1.1-1.4-2.1-1.4-2.1z"/><circle fill="#5E3E32" cx="9.9" cy="60.4" r=".9"/><circle fill="#5E3E32" cx="17.9" cy="60.4" r=".9"/><ellipse transform="matrix(.821 -.571 .571 .821 -27.954 14.781)" fill="#FFF" cx="9.6" cy="52" rx="1.6" ry=".5"/><path fill="#FFF" d="M13.9 69.3c1.9 0 3.5-1.6 3.5-3.5h-7c-.1 1.9 1.5 3.5 3.5 3.5z"/><path fill="#6B3E3E" d="M10.6 66.9c.5 1.4 1.8 2.4 3.3 2.4s2.8-1 3.3-2.4h-6.6z"/><path fill="#71A266" d="M112.7 7.4c0-3.9-3.2-7.1-7.1-7.1-3.9 0-7.1 3.2-7.1 7.1v7.3c0 3.9 3.2 7.1 7.1 7.1 3.9 0 7.1-3.2 7.1-7.1V7.4z"/><path fill="#628F59" d="M105.6.3c-.4 0-.7 0-1.1.1l1.1 4.3s1.5 5.6 2 7c1 2.9-.9 2.6-2 2.6s0 7.5 0 7.5c3.9 0 7.1-3.2 7.1-7.1V7.4c0-3.9-3.2-7.1-7.1-7.1z"/><path fill="#FFF" d="M105.6 19.7c1.9 0 3.5-1.6 3.5-3.5h-7c-.1 2 1.5 3.5 3.5 3.5z"/><ellipse transform="matrix(.821 -.571 .571 .821 16.427 58.724)" fill="#9BC391" cx="101.9" cy="3.1" rx="1.6" ry=".5"/><path fill="#2E3D2F" d="M102.3 17.3c.5 1.4 1.8 2.4 3.3 2.4s2.8-1 3.3-2.4h-6.6z"/><ellipse transform="matrix(.726 .688 -.688 .726 34.563 -67.237)" fill="#2E3D2F" cx="101.6" cy="9.7" rx="2.2" ry="1.2"/><ellipse transform="matrix(-.726 .688 -.688 -.726 196.561 -58.909)" fill="#2E3D2F" cx="110" cy="9.7" rx="2.2" ry="1.2"/><ellipse fill="#B19A4E" cx="65" cy="57.8" rx="9.1" ry="8.6"/><path fill="#B19A4E" d="M56 58.1h18.1v13.2H56z"/><path fill="#F5CA48" d="M72.1 57.8c0-3.9-3.2-7.1-7.1-7.1-3.9 0-7.1 3.2-7.1 7.1v7.3c0 3.9 3.2 7.1 7.1 7.1 3.9 0 7.1-3.2 7.1-7.1v-7.3z"/><path fill="#E9B846" d="M65 50.7c-.4 0-.7 0-1.1.1l1.1 4.3s1.5 5.6 2 7c1 2.9-.9 2.6-2 2.6s0 7.5 0 7.5c3.9 0 7.1-3.2 7.1-7.1v-7.2c0-4-3.1-7.2-7.1-7.2z"/><path fill="#FFF" d="M65 70.1c1.9 0 3.5-1.6 3.5-3.5h-7c0 1.9 1.6 3.5 3.5 3.5z"/><circle fill="#5E3E32" cx="61.5" cy="61.4" r=".9"/><circle fill="#5E3E32" cx="68.8" cy="61.4" r=".9"/><path fill="#6B3E3E" d="M61.7 67.7c.5 1.4 1.8 2.4 3.3 2.4 1.5 0 2.8-1 3.3-2.4h-6.6z"/><path fill="#B19A4E" d="M57.2 59.2s3.6-1.6 4.9-2.7c1.3-1.1 1.5-2.3 1.5-2.3s1.5 3.6 4.1 4.2c2.6.6 4.7.2 4.7.2s.8-4.6-2.5-6.7c-3.3-2.1-6.3-2.4-8.1-1.6-1.8.8-4.6 3.4-4.6 5.2v3.7z"/><path d="M72.2 57.5l-1.4 1.9-1.7-2.9 2.3-.3m2.6.3l2.3-.4-1.7-2.8-1.4 1.8m.4 2l-.7.4c-.3.2-.8.1-.9-.2l-.4-.7c-.2-.3-.1-.8.2-.9l.7-.4c.3-.2.8-.1.9.2l.4.7c.2.2.1.7-.2.9z" fill="#B04F46"/><ellipse transform="matrix(.821 -.571 .571 .821 -18.974 43.903)" fill="#FFF" cx="60.6" cy="52.2" rx="1.6" ry=".5"/><ellipse fill="#8F5741" cx="119" cy="58" rx="9.1" ry="8.6"/><path fill="#F5CA48" d="M126.1 58c0-3.9-3.2-7.1-7.1-7.1-3.9 0-7.1 3.2-7.1 7.1v7.3c0 3.9 3.2 7.1 7.1 7.1 3.9 0 7.1-3.2 7.1-7.1V58z"/><path fill="#E9B846" d="M119 50.9c-.4 0-.7 0-1.1.1l1.1 4.3s1.5 5.6 2 7c1 2.9-.9 2.6-2 2.6s0 7.5 0 7.5c3.9 0 7.1-3.2 7.1-7.1V58c0-3.9-3.2-7.1-7.1-7.1z"/><path fill="#FFF" d="M119 70.3c1.9 0 3.5-1.6 3.5-3.5h-7c0 1.9 1.5 3.5 3.5 3.5z"/><circle fill="#5E3E32" cx="115.5" cy="61.6" r=".9"/><circle fill="#5E3E32" cx="122.8" cy="61.6" r=".9"/><path fill="#6B3E3E" d="M115.7 67.9c.5 1.4 1.8 2.4 3.3 2.4s2.8-1 3.3-2.4h-6.6z"/><path fill="#8F5741" d="M111.1 59.4s3.6-1.6 4.9-2.7c1.3-1.1 1.5-2.3 1.5-2.3s1.5 3.6 4.1 4.2c2.6.6 4.7.2 4.7.2s.8-4.6-2.5-6.7c-3.3-2.1-6.3-2.4-8.1-1.6-1.8.8-4.6 3.4-4.6 5.2v3.7z"/><path fill="#8F5741" d="M112.2 58.1s-.9 3.8.5 6.8c.8 1.8 1.4 2.8 1.4 2.8s-3.8-1.3-5.1-4.5c-1.2-3.2.6-8.2 2.7-10.3 1.4-1.4 1.8 2.8 1.8 2.8l-1.3 2.4zm13.6.3s.8 2.3-.3 5.4c-.6 1.5-1.7 3.1-1.7 3.1s3-1 4-2.6c1.6-2.5 2.1-8-.8-11-2-2.1-4.5-2.4-4.5-2.4l3.3 7.5z"/><ellipse transform="matrix(.821 -.571 .571 .821 -9.544 74.747)" fill="#FFF" cx="114.5" cy="52.6" rx="1.6" ry=".5"/><ellipse fill="#5E3E32" cx="-5.2" cy="-39.5" rx="8.2" ry="7.8"/><path fill="#E9B846" d="M-12.3-40.6v9.9c0 3.9 3.2 7.1 7.1 7.1 3.9 0 7.1-3.2 7.1-7.1v-9.9h-14.2z"/><path fill="#F5CA48" d="M-5.2-31c1.1 0 3 .3 2-2.6-.5-1.4-2-7-2-7h-7.1v9.9c0 3.9 3.2 7.1 7.1 7.1 0 0-1.2-7.4 0-7.4z"/><circle fill="#5E3E32" cx="-.8" cy="-34.3" r=".9"/><path fill="#5E3E32" d="M-.4-27.8c-1.1 0-2.7-1.9-4.8-1.9-2.1 0-3.7 1.9-4.8 1.9s-2.3-2.6-2.3-2.6.2 7.1 5.8 7.1H-4c5.7 0 5.8-7.1 5.8-7.1S.6-27.8-.4-27.8zm-4.9 2.9c-1.7 0-3.1-.9-3.1-1.9 0-1.1 1.4-1.9 3.1-1.9s3.1.9 3.1 1.9c0 1-1.4 1.9-3.1 1.9z"/><circle fill="#5E3E32" cx="-8.6" cy="-34.3" r=".9"/><path fill="#5E3E32" d="M1.9-40H3v7.2H1.9zm-15.3 0h1.1v6.6h-1.1z"/><path fill="#5E3E32" d="M-8.6-40.3s1.2 1.2 2.5 2 3.6.8 4.7.7c1.1 0 3.2-.6 3.3.8.2 1.3.6 1 .6 1s.5-4.2 0-5.1-6.1-2.2-6.1-2.2-8.2 1-8.6 1.4c-.4.5-.9 4-.9 5s1.1-.2 2.1-1 2.4-2.6 2.4-2.6z"/><ellipse transform="matrix(.821 -.571 .571 .821 23.489 -13.354)" fill="#FFF" cx="-9.6" cy="-44.2" rx="1.6" ry=".5"/><path fill="#5E3E32" d="M108.1-34.1H95.5c-.9 0-1.6-.7-1.6-1.6v-5.7c0-.9.7-1.6 1.6-1.6h12.6c.9 0 1.6.7 1.6 1.6v5.7c0 .9-.7 1.6-1.6 1.6z"/><path fill="#F5CA48" d="M108.9-38.5c0-3.9-3.2-7.1-7.1-7.1-3.9 0-7.1 3.2-7.1 7.1v7.3c0 3.9 3.2 7.1 7.1 7.1 3.9 0 7.1-3.2 7.1-7.1v-7.3z"/><path fill="#E9B846" d="M101.8-45.6c-.4 0-.7 0-1.1.1l1.1 4.3s1.5 5.6 2 7c1 2.9-.9 2.6-2 2.6s0 7.5 0 7.5c3.9 0 7.1-3.2 7.1-7.1v-7.2c0-4-3.2-7.2-7.1-7.2z"/><circle fill="#5E3E32" cx="97.8" cy="-35.8" r=".9"/><circle fill="#5E3E32" cx="105.8" cy="-35.8" r=".9"/><path fill="#FFF" d="M101.8-26c1.9 0 3.5-1.6 3.5-3.5h-7c-.1 1.9 1.5 3.5 3.5 3.5z"/><path fill="#6B3E3E" d="M98.5-28.4c.5 1.4 1.8 2.4 3.3 2.4s2.8-1 3.3-2.4h-6.6z"/><path fill="#5E3E32" d="M94.2-44.2c0 5.2 6.4 4.9 9.4 4.9 10 0 6.8-8.5 6.4-9.7s-.9 2.3-3.6 2.7c-2.7.5-4.2-1.4-7-1.4-2.6.1-5.2.8-5.2 3.5z"/><ellipse transform="matrix(.821 -.571 .571 .821 42.905 47.845)" fill="#FFF" cx="97.8" cy="-44.6" rx="1.6" ry=".5"/><circle fill="#281B18" cx="-39.2" cy="56.3" r="9.4"/><path fill="#281B18" d="M-48.6 56.1h18.7V71h-18.7z"/><path fill="#F5CA48" d="M-32.1 56.6c0-3.9-3.2-7.1-7.1-7.1-3.9 0-7.1 3.2-7.1 7.1v7.3c0 3.9 3.2 7.1 7.1 7.1 3.9 0 7.1-3.2 7.1-7.1v-7.3z"/><path fill="#E9B846" d="M-39.2 49.5c-.4 0-.7 0-1.1.1l1.1 4.3s1.5 5.6 2 7c1 2.9-.9 2.6-2 2.6s0 7.5 0 7.5c3.9 0 7.1-3.2 7.1-7.1v-7.2c0-4-3.2-7.2-7.1-7.2z"/><path fill="#FFF" d="M-39.2 68.9c1.9 0 3.5-1.6 3.5-3.5h-7c0 2 1.6 3.5 3.5 3.5z"/><path fill="#6B3E3E" d="M-42.5 66.5c.5 1.4 1.8 2.4 3.3 2.4s2.8-1 3.3-2.4h-6.6z"/><circle fill="#5E3E32" cx="-43" cy="60.4" r=".9"/><circle fill="#5E3E32" cx="-35.2" cy="60.4" r=".9"/><path fill="#281B18" d="M-47.1 56.3h15.8s-2-6-5.4-6.9c-3.4-.9-5.5-.9-7 .4-1.6 1.2-3.4 6.5-3.4 6.5z"/><ellipse transform="matrix(.821 -.571 .571 .821 -37.956 -16.077)" fill="#FFF" cx="-44.6" cy="52.5" rx="1.6" ry=".5"/><path fill="#473421" d="M142.9-30.6h-9.1c-2.3 0-4.2-1.9-4.2-4.2v-2.7c0-2.3 1.9-4.2 4.2-4.2h9.1c2.3 0 4.2 1.9 4.2 4.2v2.7c0 2.3-1.9 4.2-4.2 4.2z"/><circle fill="#F5CA48" cx="131.3" cy="-35.1" r="2.6"/><circle fill="#E9B846" cx="145.2" cy="-35.1" r="2.6"/><path fill="#F5CA48" d="M145.4-38.4c0-3.9-3.2-7.1-7.1-7.1-3.9 0-7.1 3.2-7.1 7.1v7.3c0 3.9 3.2 7.1 7.1 7.1 3.9 0 7.1-3.2 7.1-7.1v-7.3z"/><path fill="#E9B846" d="M138.3-45.5c-.4 0-.7 0-1.1.1l1.1 4.3s1.5 5.6 2 7c1 2.9-.9 2.6-2 2.6s0 7.5 0 7.5c3.9 0 7.1-3.2 7.1-7.1v-7.2c0-4-3.1-7.2-7.1-7.2z"/><path fill="#FFF" d="M138.3-26.1c1.9 0 3.5-1.6 3.5-3.5h-7c0 1.9 1.6 3.5 3.5 3.5z"/><circle fill="#5E3E32" cx="134.6" cy="-34.8" r=".9"/><circle fill="#5E3E32" cx="142.2" cy="-34.8" r=".9"/><ellipse transform="matrix(.821 -.571 .571 .821 48.438 69.232)" fill="#FFF" cx="134.7" cy="-42.7" rx="1.6" ry=".5"/><path fill="#6B3E3E" d="M135-28.5c.5 1.4 1.8 2.4 3.3 2.4s2.8-1 3.3-2.4H135z"/><path fill="#473421" d="M136.3-37.3H133c-.5 0-.9-.4-.9-.9s.4-.9.9-.9h3.3c.5 0 .9.4.9.9s-.4.9-.9.9zm7.5 0h-3.3c-.5 0-.9-.4-.9-.9s.4-.9.9-.9h3.3c.5 0 .9.4.9.9s-.4.9-.9.9z"/><ellipse fill="#4D3330" cx="9.1" cy="8.6" rx="9.1" ry="8.6"/><path fill="#F5CA48" d="M16.1 8.6c0-3.9-3.2-7.1-7.1-7.1-3.9 0-7 3.2-7 7.1v7.3C2 19.8 5.1 23 9 23s7.1-3.2 7.1-7.1V8.6z"/><path fill="#E9B846" d="M9.1 1.5c-.4 0-.7 0-1.1.1L9 6s1.5 5.6 2 7c1 2.9-.9 2.6-2 2.6s0 7.5 0 7.5c3.9 0 7.1-3.2 7.1-7.1V8.6c0-3.9-3.1-7.1-7-7.1z"/><path fill="#FFF" d="M9 20.9c1.9 0 3.5-1.6 3.5-3.5h-7c0 2 1.6 3.5 3.5 3.5z"/><circle fill="#5E3E32" cx="5.5" cy="12.2" r=".9"/><circle fill="#5E3E32" cx="12.9" cy="12.2" r=".9"/><path fill="#6B3E3E" d="M5.7 18.5c.5 1.4 1.8 2.4 3.3 2.4s2.8-1 3.3-2.4H5.7z"/><path fill="#4D3330" d="M1.2 10s3.6-1.6 4.9-2.7C7.4 6.1 7.6 5 7.6 5s1.5 3.6 4.1 4.2 4.7.2 4.7.2.8-4.6-2.5-6.7S7.5.3 5.7 1.1 1.1 4.5 1.1 6.3s.1 3.7.1 3.7z"/><ellipse transform="matrix(.821 -.571 .571 .821 -1.016 3.197)" fill="#FFF" cx="4.6" cy="3.2" rx="1.6" ry=".5"/><path fill="#4D3330" d="M63.1 15.2h5.2l-2-6.9c-.2-4.6-4.2-8.3-9-8.3-4.9 0-8.9 3.7-9 8.3l-2 6.9h5.2c1.6 1.3 3.6 2 5.8 2s4.3-.8 5.8-2z"/><path fill="#F5CA48" d="M64.4 8.6c0-3.9-3.2-7.1-7.1-7.1-3.9 0-7.1 3.2-7.1 7.1v7.3c0 3.9 3.2 7.1 7.1 7.1 3.9 0 7.1-3.2 7.1-7.1V8.6z"/><path fill="#E9B846" d="M57.3 1.5c-.4 0-.7 0-1.1.1L57.3 6s1.5 5.6 2 7c1 2.9-.9 2.6-2 2.6s0 7.5 0 7.5c3.9 0 7.1-3.2 7.1-7.1V8.6c0-3.9-3.2-7.1-7.1-7.1z"/><path fill="#FFF" d="M57.3 20.9c1.9 0 3.5-1.6 3.5-3.5h-7c0 2 1.5 3.5 3.5 3.5z"/><circle fill="#5E3E32" cx="53.8" cy="12.2" r=".9"/><circle fill="#5E3E32" cx="61.1" cy="12.2" r=".9"/><path fill="#6B3E3E" d="M54 18.5c.5 1.4 1.8 2.4 3.3 2.4s2.8-1 3.3-2.4H54z"/><ellipse transform="matrix(.821 -.571 .571 .821 7.609 30.728)" fill="#FFF" cx="52.8" cy="3.2" rx="1.6" ry=".5"/><path fill="#4D3330" d="M55 4.3s1.4 2.6 2.3 3.2c1.2.9 2.9.8 2.9.8l-.9-.8s1.4.6 2.4.8c1.2.3 3 0 3 0s-.8-5.2-3.2-6c-2.4-.9-7.2-1.1-7.6-.6s-3.5 2.4-4 4.9c-.5 2.6-.5 3.3-.5 3.3s2.2-.8 3.1-2c.5-.8.4-.9.4-.9l-.5 1.3s1.5-1.1 2-2.1.6-1.9.6-1.9z"/></svg>