<svg width="28" height="31" xmlns="http://www.w3.org/2000/svg" viewBox="0 0 19.1 21.5"><path fill="#5E3E32" d="M-176.9 56h18v3.7h-18z"/><path fill="#E9B846" d="M-175 50.4v9.9c0 3.9 3.2 7.1 7.1 7.1 3.9 0 7.1-3.2 7.1-7.1v-9.9H-175z"/><path fill="#F5CA48" d="M-167.9 60c1.1 0 3 .3 2-2.6-.5-1.4-2-7-2-7h-7.1v9.9c0 3.9 3.2 7.1 7.1 7.1 0 0-1.1-7.4 0-7.4z"/><path fill="#FFF" d="M-167.9 65.4c1.9 0 3.5-1.6 3.5-3.5h-7c0 1.9 1.6 3.5 3.5 3.5z"/><path fill="#5E3E32" d="M-164.9 50.5s-.6 2.4-3.9 2.7c-3.3.3-5.9 1.1-6.1 3.1-.2 2.1-.1 3.4-.1 3.4h-1.8s-1.7-14.2 8.9-14.2c10.8 0 9.1 14.2 9.1 14.2h-1.9s-.1-3-.1-4.5-1.4-1.6-2.6-2.6c-1.3-1-1.5-2.1-1.5-2.1z"/><circle fill="#5E3E32" cx="-171.4" cy="56.7" r=".9"/><circle fill="#5E3E32" cx="-163.5" cy="56.7" r=".9"/><ellipse transform="matrix(.821 -.571 .571 .821 -58.244 -89.334)" fill="#FFF" cx="-171.7" cy="48.3" rx="1.6" ry=".5"/><path fill="#6B3E3E" d="M-171.2 63c.5 1.4 1.8 2.4 3.3 2.4s2.8-1 3.3-2.4h-6.6z"/><path fill="#E9B846" d="M-105.1 6.2v9.9c0 3.9 3.2 7.1 7.1 7.1 3.9 0 7.1-3.2 7.1-7.1V6.2h-14.2z"/><path fill="#F5CA48" d="M-97.9 15.7c1.1 0 3 .3 2-2.6-.5-1.4-2-7-2-7h-7.1V16c0 3.9 3.2 7.1 7.1 7.1 0 .1-1.1-7.4 0-7.4z"/><path fill="none" stroke="#473421" stroke-linecap="round" stroke-miterlimit="10" d="M-100.7 19.2s1.1 1.1 2.5 1.1c1.7 0 2.7-1.1 2.7-1.1"/><path fill="#291D11" d="M-98.1 3h4.6l3.1-3.6v16.2s-1.6-.6-3.4-.3c-2.3.3-4 2.3-4 2.3h-.6s-1.7-2-4-2.3c-1.8-.2-3.4.3-3.4.3V-.5l3.1 3.6h4.6"/><path fill="#FFF" d="M-103.5 11.6l3.5 1.5s-.9 1.2-1.7.8c-.9-.5-1.8-2.3-1.8-2.3zm11 0L-96 13s.9 1.2 1.7.8c.9-.4 1.8-2.2 1.8-2.2z"/><circle fill="#F5CA48" cx="-176.7" cy="10.9" r="2.6"/><circle fill="#E9B846" cx="-162.8" cy="10.9" r="2.6"/><path fill="#F5CA48" d="M-162.5 7.6c0-3.9-3.2-7.1-7.1-7.1-3.9 0-7.1 3.2-7.1 7.1v7.3c0 3.9 3.2 7.1 7.1 7.1 3.9 0 7.1-3.2 7.1-7.1V7.6z"/><path fill="#E9B846" d="M-169.6.5c-.4 0-.7 0-1.1.1l1.1 4.3s1.5 5.6 2 7c1 2.9-.9 2.6-2 2.6s0 7.5 0 7.5c3.9 0 7.1-3.2 7.1-7.1V7.6c0-4-3.2-7.1-7.1-7.1z"/><path fill="#FFF" d="M-169.6 19.9c1.9 0 3.5-1.6 3.5-3.5h-7c-.1 1.9 1.5 3.5 3.5 3.5z"/><circle fill="#5E3E32" cx="-173.2" cy="11.1" r=".9"/><circle fill="#5E3E32" cx="-165.8" cy="11.1" r=".9"/><ellipse transform="matrix(.821 -.571 .571 .821 -32.843 -98.267)" fill="#FFF" cx="-173.3" cy="3.3" rx="1.6" ry=".5"/><path fill="#6B3E3E" d="M-172.9 17.5c.5 1.4 1.8 2.4 3.3 2.4s2.8-1 3.3-2.4h-6.6z"/><path fill="none" stroke="#473421" stroke-width=".5" stroke-miterlimit="10" d="M-172.2 13.3h-2.7c-.6 0-1.2-.5-1.2-1.2v-2c0-.6.5-1.2 1.2-1.2h2.7c.6 0 1.2.5 1.2 1.2v2c0 .7-.6 1.2-1.2 1.2zm8.2 0h-2.7c-.6 0-1.2-.5-1.2-1.2v-2c0-.6.5-1.2 1.2-1.2h2.7c.6 0 1.2.5 1.2 1.2v2c0 .7-.6 1.2-1.2 1.2z"/><path fill="none" stroke="#473421" stroke-width=".5" stroke-miterlimit="10" d="M-171 11.3s.7-1 1.6-1c.9 0 1.6.8 1.6.8"/><circle fill="#5E3E32" cx="-54.9" cy="7.4" r="1.9"/><circle fill="#5E3E32" cx="-54.9" cy="11.2" r="1.9"/><circle fill="#5E3E32" cx="-69.4" cy="7.2" r="1.9"/><circle fill="#5E3E32" cx="-69.4" cy="10.9" r="1.9"/><path fill="#E9B846" d="M-69.1 5.2v9.9c0 3.9 3.2 7.1 7.1 7.1 3.9 0 7.1-3.2 7.1-7.1V5.2h-14.2z"/><path fill="#F5CA48" d="M-62 14.7c1.1 0 3 .3 2-2.6-.5-1.4-2-7-2-7h-7.1V15c0 3.9 3.2 7.1 7.1 7.1 0 .1-1.2-7.4 0-7.4z"/><circle fill="#5E3E32" cx="-65.6" cy="11.4" r=".9"/><circle fill="#5E3E32" cx="-57.6" cy="11.4" r=".9"/><path fill="#5E3E32" d="M-58.1 16.1c-.1-.3-.4-.5-.8-.5h-6.2c-.4 0-.7.2-.8.5 0 .1-.1.2-.1.3v4.9c0 .5.4.9.9.9s.9-.4.9-.9v-4h4.5v4c0 .5.4.9.9.9s.9-.4.9-.9v-4.9c-.1-.1-.2-.2-.2-.3z"/><circle fill="#5E3E32" cx="-63.9" cy="5.1" r="1.9"/><circle fill="#5E3E32" cx="-60.2" cy="5.1" r="1.9"/><circle fill="#5E3E32" cx="-56.5" cy="5.1" r="1.9"/><circle fill="#5E3E32" cx="-67.5" cy="5.1" r="1.9"/><circle fill="#5E3E32" cx="-63.9" cy="3" r="1.9"/><circle fill="#5E3E32" cx="-69.4" cy="3.5" r="1.9"/><circle fill="#5E3E32" cx="-54.9" cy="3.6" r="1.9"/><circle fill="#5E3E32" cx="-65.7" cy="-.1" r="1.9"/><circle fill="#5E3E32" cx="-62" cy="-.1" r="1.9"/><circle fill="#5E3E32" cx="-58.4" cy="-.1" r="1.9"/><path fill="#5E3E32" d="M-69.1.1c-.1.2-.3 3.1-.3 3.1l1.4 1.6 2.5.5 9.5-.6 1.1-2.7-.3-1.6-2-.5h-5.7l-6.2.2z"/><circle fill="#5E3E32" cx="-55.9" cy="1.5" r="1.9"/><circle fill="#5E3E32" cx="-68.3" cy="1.1" r="1.9"/><ellipse transform="matrix(.821 -.571 .571 .821 -13.133 -38.242)" fill="#FFF" cx="-67.6" cy="1.8" rx="1.6" ry=".5"/><path fill="#5E3E32" d="M-124.3 106.5h18.2v10.3h-18.2z"/><path fill="#E9B846" d="M-122.3 99.8v9.9c0 3.9 3.2 7.1 7.1 7.1 3.9 0 7.1-3.2 7.1-7.1v-9.9h-14.2z"/><path fill="#F5CA48" d="M-115.3 109.3c1.1 0 3 .3 2-2.6-.5-1.4-2-7-2-7h-7.1v9.9c0 3.9 3.2 7.1 7.1 7.1 0 .1-1.1-7.4 0-7.4z"/><path fill="#5E3E32" d="M-112.2 100s-.6 2.4-3.9 2.7c-3.3.3-5.9 1.1-6.1 3.1-.2 2.1-.1 3.4-.1 3.4h-1.8s-1.7-14.2 8.9-14.2c10.8 0 9.1 14.2 9.1 14.2h-1.9s-.1-3-.1-4.5-1.4-1.6-2.6-2.6c-1.3-1.1-1.5-2.1-1.5-2.1z"/><circle fill="#5E3E32" cx="-118.8" cy="106" r=".9"/><circle fill="#5E3E32" cx="-110.8" cy="106" r=".9"/><ellipse transform="matrix(.821 -.571 .571 .821 -76.983 -50.484)" fill="#FFF" cx="-119.1" cy="97.6" rx="1.6" ry=".5"/><path fill="#FFF" d="M-114.8 114.9c1.9 0 3.5-1.6 3.5-3.5h-7c0 1.9 1.5 3.5 3.5 3.5z"/><path fill="#6B3E3E" d="M-118.1 112.5c.5 1.4 1.8 2.4 3.3 2.4s2.8-1 3.3-2.4h-6.6z"/><path fill="#71A266" d="M-16 53c0-3.9-3.2-7.1-7.1-7.1-3.9 0-7.1 3.2-7.1 7.1v7.3c0 3.9 3.2 7.1 7.1 7.1 3.9 0 7.1-3.2 7.1-7.1V53z"/><path fill="#628F59" d="M-23.1 45.9c-.4 0-.7 0-1.1.1l1.1 4.3s1.5 5.6 2 7c1 2.9-.9 2.6-2 2.6s0 7.5 0 7.5c3.9 0 7.1-3.2 7.1-7.1V53c0-3.9-3.2-7.1-7.1-7.1z"/><path fill="#FFF" d="M-23.1 65.3c1.9 0 3.5-1.6 3.5-3.5h-7c0 2 1.5 3.5 3.5 3.5z"/><ellipse transform="matrix(.821 -.571 .571 .821 -32.601 -6.541)" fill="#9BC391" cx="-26.7" cy="48.8" rx="1.6" ry=".5"/><path fill="#2E3D2F" d="M-26.4 62.9c.5 1.4 1.8 2.4 3.3 2.4s2.8-1 3.3-2.4h-6.6z"/><ellipse transform="matrix(.726 .688 -.688 .726 30.653 33.807)" fill="#2E3D2F" cx="-27.1" cy="55.3" rx="2.2" ry="1.2"/><ellipse transform="matrix(-.726 .688 -.688 -.726 5.886 108.345)" fill="#2E3D2F" cx="-18.7" cy="55.3" rx="2.2" ry="1.2"/><ellipse fill="#B19A4E" cx="-63.6" cy="103.4" rx="9.1" ry="8.6"/><path fill="#B19A4E" d="M-72.7 103.7h18.1v13.2h-18.1z"/><path fill="#F5CA48" d="M-56.6 103.4c0-3.9-3.2-7.1-7.1-7.1-3.9 0-7.1 3.2-7.1 7.1v7.3c0 3.9 3.2 7.1 7.1 7.1 3.9 0 7.1-3.2 7.1-7.1v-7.3z"/><path fill="#E9B846" d="M-63.6 96.3c-.4 0-.7 0-1.1.1l1.1 4.3s1.5 5.6 2 7c1 2.9-.9 2.6-2 2.6s0 7.5 0 7.5c3.9 0 7.1-3.2 7.1-7.1v-7.2c-.1-4-3.2-7.2-7.1-7.2z"/><path fill="#FFF" d="M-63.7 115.7c1.9 0 3.5-1.6 3.5-3.5h-7c0 1.9 1.6 3.5 3.5 3.5z"/><circle fill="#5E3E32" cx="-67.2" cy="107" r=".9"/><circle fill="#5E3E32" cx="-59.8" cy="107" r=".9"/><path fill="#6B3E3E" d="M-67 113.3c.5 1.4 1.8 2.4 3.3 2.4 1.5 0 2.8-1 3.3-2.4H-67z"/><path fill="#B19A4E" d="M-71.5 104.8s3.6-1.6 4.9-2.7c1.3-1.1 1.5-2.3 1.5-2.3s1.5 3.6 4.1 4.2c2.6.6 4.7.2 4.7.2s.8-4.6-2.5-6.7-6.3-2.4-8.1-1.6c-1.8.8-4.6 3.4-4.6 5.2-.1 1.8 0 3.7 0 3.7z"/><path d="M-56.5 103.1l-1.4 1.9-1.7-2.9 2.4-.3m2.5.3l2.3-.4-1.7-2.8-1.4 1.9m.4 1.9l-.7.4c-.3.2-.8.1-.9-.2l-.4-.7c-.2-.3-.1-.8.2-.9l.7-.4c.3-.2.8-.1.9.2l.4.7c.3.3.2.7-.2.9z" fill="#B04F46"/><ellipse transform="matrix(.821 -.571 .571 .821 -68.002 -21.363)" fill="#FFF" cx="-68.1" cy="97.9" rx="1.6" ry=".5"/><ellipse fill="#8F5741" cx="-9.7" cy="103.6" rx="9.1" ry="8.6"/><path fill="#F5CA48" d="M-2.6 103.6c0-3.9-3.2-7.1-7.1-7.1-3.9 0-7.1 3.2-7.1 7.1v7.3c0 3.9 3.2 7.1 7.1 7.1 3.9 0 7.1-3.2 7.1-7.1v-7.3z"/><path fill="#E9B846" d="M-9.7 96.5c-.4 0-.7 0-1.1.1l1.1 4.3s1.5 5.6 2 7c1 2.9-.9 2.6-2 2.6s0 7.5 0 7.5c3.9 0 7.1-3.2 7.1-7.1v-7.2c0-4-3.2-7.2-7.1-7.2z"/><path fill="#FFF" d="M-9.7 115.9c1.9 0 3.5-1.6 3.5-3.5h-7c0 2 1.5 3.5 3.5 3.5z"/><circle fill="#5E3E32" cx="-13.2" cy="107.2" r=".9"/><circle fill="#5E3E32" cx="-5.9" cy="107.2" r=".9"/><path fill="#6B3E3E" d="M-13 113.5c.5 1.4 1.8 2.4 3.3 2.4s2.8-1 3.3-2.4H-13z"/><path fill="#8F5741" d="M-17.6 105s3.6-1.6 4.9-2.7c1.3-1.1 1.5-2.3 1.5-2.3s1.5 3.6 4.1 4.2c2.6.6 4.7.2 4.7.2s.8-4.6-2.5-6.7-6.3-2.4-8.1-1.6c-1.8.8-4.6 3.4-4.6 5.2v3.7z"/><path fill="#8F5741" d="M-16.5 103.7s-.9 3.8.5 6.8c.8 1.8 1.4 2.8 1.4 2.8s-3.8-1.3-5.1-4.5c-1.2-3.2.6-8.2 2.7-10.3 1.4-1.4 1.8 2.8 1.8 2.8l-1.3 2.4zm13.6.3s.8 2.3-.3 5.4c-.6 1.5-1.7 3.1-1.7 3.1s3-1 4-2.6c1.6-2.5 2.1-8-.8-11-2-2.1-4.5-2.4-4.5-2.4l3.3 7.5z"/><ellipse transform="matrix(.821 -.571 .571 .821 -58.573 9.482)" fill="#FFF" cx="-14.2" cy="98.2" rx="1.6" ry=".5"/><ellipse fill="#5E3E32" cx="-133.9" cy="6.1" rx="8.2" ry="7.8"/><path fill="#E9B846" d="M-141 5.1V15c0 3.9 3.2 7.1 7.1 7.1 3.9 0 7.1-3.2 7.1-7.1V5.1H-141z"/><path fill="#F5CA48" d="M-133.9 14.6c1.1 0 3 .3 2-2.6-.5-1.4-2-7-2-7h-7.1v10c0 3.9 3.2 7.1 7.1 7.1 0 0-1.1-7.5 0-7.5z"/><circle fill="#5E3E32" cx="-129.5" cy="11.3" r=".9"/><path fill="#5E3E32" d="M-129.1 17.8c-1.1 0-2.7-1.9-4.8-1.9-2.1 0-3.7 1.9-4.8 1.9s-2.3-2.6-2.3-2.6.2 7.1 5.8 7.1h2.5c5.7 0 5.8-7.1 5.8-7.1s-1.1 2.6-2.2 2.6zm-4.9 2.9c-1.7 0-3.1-.9-3.1-1.9 0-1.1 1.4-1.9 3.1-1.9s3.1.9 3.1 1.9c0 1.1-1.4 1.9-3.1 1.9z"/><circle fill="#5E3E32" cx="-137.3" cy="11.3" r=".9"/><path fill="#5E3E32" d="M-126.8 5.6h1.1v7.2h-1.1zm-15.3 0h1.1v6.6h-1.1z"/><path fill="#5E3E32" d="M-137.3 5.3s1.2 1.2 2.5 2c1.2.8 3.6.8 4.7.7s3.2-.6 3.3.8c.2 1.3.6 1 .6 1s.5-4.2 0-5.1-6.1-2.2-6.1-2.2-8.2 1-8.6 1.4-.9 4-.9 5 1.1-.2 2.1-1c1-.7 2.4-2.6 2.4-2.6z"/><ellipse transform="matrix(.821 -.571 .571 .821 -25.539 -78.62)" fill="#FFF" cx="-138.2" cy="1.5" rx="1.6" ry=".5"/><path fill="#5E3E32" d="M-20.6 11.6h-12.6c-.9 0-1.6-.7-1.6-1.6V4.2c0-.9.7-1.6 1.6-1.6h12.6c.9 0 1.6.7 1.6 1.6v5.7c0 .9-.7 1.7-1.6 1.7z"/><path fill="#F5CA48" d="M-19.8 7.1c0-3.9-3.2-7.1-7.1-7.1-3.9 0-7.1 3.2-7.1 7.1v7.3c0 3.9 3.2 7.1 7.1 7.1 3.9 0 7.1-3.2 7.1-7.1V7.1z"/><path fill="#E9B846" d="M-26.9 0c-.4 0-.7 0-1.1.1l1.1 4.3s1.5 5.6 2 7c1 2.9-.9 2.6-2 2.6s0 7.5 0 7.5c3.9 0 7.1-3.2 7.1-7.1V7.1c0-3.9-3.2-7.1-7.1-7.1z"/><circle fill="#5E3E32" cx="-30.9" cy="9.8" r=".9"/><circle fill="#5E3E32" cx="-22.9" cy="9.8" r=".9"/><path fill="#FFF" d="M-26.9 19.6c1.9 0 3.5-1.6 3.5-3.5h-7c0 1.9 1.5 3.5 3.5 3.5z"/><path fill="#6B3E3E" d="M-30.2 17.2c.5 1.4 1.8 2.4 3.3 2.4s2.8-1 3.3-2.4h-6.6z"/><path fill="#5E3E32" d="M-34.5 1.5c0 5.2 6.4 4.9 9.4 4.9 10 0 6.8-8.5 6.4-9.7-.4-1.1-.9 2.3-3.6 2.7s-4.2-1.4-7-1.4c-2.5.1-5.2.7-5.2 3.5z"/><ellipse transform="matrix(.821 -.571 .571 .821 -6.123 -17.42)" fill="#FFF" cx="-30.9" cy="1.1" rx="1.6" ry=".5"/><circle fill="#281B18" cx="-167.9" cy="101.9" r="9.4"/><path fill="#281B18" d="M-177.3 101.7h18.7v14.9h-18.7z"/><path fill="#F5CA48" d="M-160.8 102.2c0-3.9-3.2-7.1-7.1-7.1-3.9 0-7.1 3.2-7.1 7.1v7.3c0 3.9 3.2 7.1 7.1 7.1 3.9 0 7.1-3.2 7.1-7.1v-7.3z"/><path fill="#E9B846" d="M-167.9 95.2c-.4 0-.7 0-1.1.1l1.1 4.3s1.5 5.6 2 7c1 2.9-.9 2.6-2 2.6s0 7.5 0 7.5c3.9 0 7.1-3.2 7.1-7.1v-7.3c0-4-3.1-7.1-7.1-7.1z"/><path fill="#FFF" d="M-167.9 114.6c1.9 0 3.5-1.6 3.5-3.5h-7c0 1.9 1.6 3.5 3.5 3.5z"/><path fill="#6B3E3E" d="M-171.2 112.2c.5 1.4 1.8 2.4 3.3 2.4s2.8-1 3.3-2.4h-6.6z"/><circle fill="#5E3E32" cx="-171.7" cy="106" r=".9"/><circle fill="#5E3E32" cx="-163.9" cy="106" r=".9"/><path fill="#281B18" d="M-175.8 101.9h15.8s-2-6-5.4-6.9c-3.4-.9-5.5-.9-7 .4-1.6 1.2-3.4 6.5-3.4 6.5z"/><ellipse transform="matrix(.821 -.571 .571 .821 -86.984 -81.342)" fill="#FFF" cx="-173.3" cy="98.2" rx="1.6" ry=".5"/><path fill="#473421" d="M14.2 15H5.1C2.8 15 1 13.2 1 10.9V8.1C1 5.8 2.8 4 5.1 4h9.1c2.3 0 4.2 1.9 4.2 4.2v2.7c0 2.3-1.9 4.1-4.2 4.1z"/><circle fill="#F5CA48" cx="2.6" cy="10.6" r="2.6"/><circle fill="#E9B846" cx="16.5" cy="10.6" r="2.6"/><path fill="#F5CA48" d="M16.8 7.2c0-3.9-3.2-7.1-7.1-7.1-3.9 0-7.1 3.2-7.1 7.1v7.3c0 3.9 3.2 7.1 7.1 7.1 3.9 0 7.1-3.2 7.1-7.1V7.2z"/><path fill="#E9B846" d="M9.7.1c-.4 0-.7 0-1.1.1l1.1 4.3s1.5 5.6 2 7c1 2.9-.9 2.6-2 2.6s0 7.5 0 7.5c3.9 0 7.1-3.2 7.1-7.1V7.2c0-3.9-3.2-7.1-7.1-7.1z"/><path fill="#FFF" d="M9.7 19.5c1.9 0 3.5-1.6 3.5-3.5h-7c-.1 1.9 1.5 3.5 3.5 3.5z"/><circle fill="#5E3E32" cx="6" cy="10.8" r=".9"/><circle fill="#5E3E32" cx="13.5" cy="10.8" r=".9"/><ellipse transform="matrix(.821 -.571 .571 .821 -.59 3.967)" fill="#FFF" cx="6" cy="2.9" rx="1.6" ry=".5"/><path fill="#6B3E3E" d="M6.4 17.1c.5 1.4 1.8 2.4 3.3 2.4s2.8-1 3.3-2.4H6.4z"/><path fill="#473421" d="M7.6 8.3H4.3c-.5 0-.9-.4-.9-.9s.4-.9.9-.9h3.3c.5 0 .9.4.9.9s-.4.9-.9.9zm7.5 0h-3.3c-.5 0-.9-.4-.9-.9s.4-.9.9-.9h3.3c.5 0 .9.4.9.9s-.4.9-.9.9z"/><ellipse fill="#4D3330" cx="-119.6" cy="54.2" rx="9.1" ry="8.6"/><path fill="#F5CA48" d="M-112.5 54.2c0-3.9-3.2-7.1-7.1-7.1-3.9 0-7.1 3.2-7.1 7.1v7.3c0 3.9 3.2 7.1 7.1 7.1 3.9 0 7.1-3.2 7.1-7.1v-7.3z"/><path fill="#E9B846" d="M-119.6 47.2c-.4 0-.7 0-1.1.1l1.1 4.3s1.5 5.6 2 7c1 2.9-.9 2.6-2 2.6s0 7.5 0 7.5c3.9 0 7.1-3.2 7.1-7.1v-7.3c0-4-3.2-7.1-7.1-7.1z"/><path fill="#FFF" d="M-119.6 66.5c1.9 0 3.5-1.6 3.5-3.5h-7c-.1 2 1.5 3.5 3.5 3.5z"/><circle fill="#5E3E32" cx="-123.2" cy="57.8" r=".9"/><circle fill="#5E3E32" cx="-115.8" cy="57.8" r=".9"/><path fill="#6B3E3E" d="M-122.9 64.2c.5 1.4 1.8 2.4 3.3 2.4s2.8-1 3.3-2.4h-6.6z"/><path fill="#4D3330" d="M-127.5 55.6s3.6-1.6 4.9-2.7c1.3-1.1 1.5-2.3 1.5-2.3s1.5 3.6 4.1 4.2c2.6.6 4.7.2 4.7.2s.8-4.6-2.5-6.7c-3.3-2.1-6.3-2.4-8.1-1.6-1.8.8-4.6 3.4-4.6 5.2-.1 1.9 0 3.7 0 3.7z"/><ellipse transform="matrix(.821 -.571 .571 .821 -50.044 -62.068)" fill="#FFF" cx="-124.1" cy="48.8" rx="1.6" ry=".5"/><path fill="#4D3330" d="M-65.5 60.8h5.2l-2-6.9c-.2-4.6-4.2-8.3-9-8.3-4.9 0-8.9 3.7-9 8.3l-2 6.9h5.2c1.6 1.3 3.6 2 5.8 2s4.2-.7 5.8-2z"/><path fill="#F5CA48" d="M-64.3 54.2c0-3.9-3.2-7.1-7.1-7.1-3.9 0-7.1 3.2-7.1 7.1v7.3c0 3.9 3.2 7.1 7.1 7.1 3.9 0 7.1-3.2 7.1-7.1v-7.3z"/><path fill="#E9B846" d="M-71.4 47.2c-.4 0-.7 0-1.1.1l1.1 4.3s1.5 5.6 2 7c1 2.9-.9 2.6-2 2.6s0 7.5 0 7.5c3.9 0 7.1-3.2 7.1-7.1v-7.3c0-4-3.2-7.1-7.1-7.1z"/><path fill="#FFF" d="M-71.4 66.5c1.9 0 3.5-1.6 3.5-3.5h-7c0 2 1.6 3.5 3.5 3.5z"/><circle fill="#5E3E32" cx="-74.9" cy="57.8" r=".9"/><circle fill="#5E3E32" cx="-67.6" cy="57.8" r=".9"/><path fill="#6B3E3E" d="M-74.7 64.2c.5 1.4 1.8 2.4 3.3 2.4s2.8-1 3.3-2.4h-6.6z"/><ellipse transform="matrix(.821 -.571 .571 .821 -41.419 -34.537)" fill="#FFF" cx="-75.8" cy="48.8" rx="1.6" ry=".5"/><path fill="#4D3330" d="M-73.7 49.9s1.4 2.6 2.3 3.2c1.2.9 2.9.8 2.9.8l-.9-.8s1.4.6 2.4.8c1.2.3 3 0 3 0s-.8-5.2-3.2-6c-2.4-.9-7.2-1.1-7.6-.6-.4.4-3.5 2.4-4 4.9-.5 2.6-.5 3.3-.5 3.3s2.2-.8 3.1-2c.6-.8.5-.8.5-.8l-.5 1.3s1.5-1.1 2-2.1.5-2 .5-2z"/></svg>