<svg width="23" height="36" xmlns="http://www.w3.org/2000/svg" viewBox="0 0 15.3 23.7"><path fill="#5E3E32" d="M-71.2 56.6h18v3.7h-18z"/><path fill="#E9B846" d="M-69.3 51v9.9c0 3.9 3.2 7.1 7.1 7.1 3.9 0 7.1-3.2 7.1-7.1V51h-14.2z"/><path fill="#F5CA48" d="M-62.2 60.5c1.1 0 3 .3 2-2.6-.5-1.4-2-7-2-7h-7.1v9.9c0 3.9 3.2 7.1 7.1 7.1 0 .1-1.1-7.4 0-7.4z"/><path fill="#FFF" d="M-62.2 65.9c1.9 0 3.5-1.6 3.5-3.5h-7c0 2 1.6 3.5 3.5 3.5z"/><path fill="#5E3E32" d="M-59.2 51.1s-.6 2.4-3.9 2.7c-3.3.3-5.9 1.1-6.1 3.1-.2 2.1-.1 3.4-.1 3.4h-1.8s-1.7-14.2 8.9-14.2c10.8 0 9.1 14.2 9.1 14.2H-55s-.1-3-.1-4.5-1.4-1.6-2.6-2.6c-1.3-1.1-1.5-2.1-1.5-2.1z"/><circle fill="#5E3E32" cx="-65.7" cy="57.2" r=".9"/><circle fill="#5E3E32" cx="-57.7" cy="57.2" r=".9"/><ellipse transform="matrix(.821 -.571 .571 .821 -39.657 -28.925)" fill="#FFF" cx="-66" cy="48.8" rx="1.6" ry=".5"/><path fill="#6B3E3E" d="M-65.5 63.5c.5 1.4 1.8 2.4 3.3 2.4s2.8-1 3.3-2.4h-6.6z"/><path fill="#E9B846" d="M.6 6.7v9.9c0 3.9 3.2 7.1 7.1 7.1 3.9 0 7.1-3.2 7.1-7.1V6.7H.6z"/><path fill="#F5CA48" d="M7.8 16.2c1.1 0 3 .3 2-2.6-.5-1.4-2-7-2-7H.7v9.9c0 3.9 3.2 7.1 7.1 7.1 0 .1-1.1-7.4 0-7.4z"/><path fill="none" stroke="#473421" stroke-linecap="round" stroke-miterlimit="10" d="M5 19.7s1.1 1.1 2.5 1.1c1.7 0 2.7-1.1 2.7-1.1"/><path fill="#291D11" d="M7.6 3.6h4.6L15.3 0v16.2s-1.6-.6-3.4-.3c-2.3.3-4 2.3-4 2.3h-.5s-1.7-2-4-2.3c-1.8-.3-3.4.3-3.4.3V0l3.1 3.6h4.5"/><path fill="#FFF" d="M2.2 12.1l3.5 1.5s-.9 1.2-1.7.8-1.8-2.3-1.8-2.3zm11 0l-3.5 1.5s.9 1.2 1.7.8c.9-.4 1.8-2.3 1.8-2.3z"/><circle fill="#F5CA48" cx="-71" cy="11.5" r="2.6"/><circle fill="#E9B846" cx="-57.1" cy="11.5" r="2.6"/><path fill="#F5CA48" d="M-56.8 8.1c0-3.9-3.2-7.1-7.1-7.1-3.9 0-7.1 3.2-7.1 7.1v7.3c0 3.9 3.2 7.1 7.1 7.1 3.9 0 7.1-3.2 7.1-7.1V8.1z"/><path fill="#E9B846" d="M-63.9 1c-.4 0-.7 0-1.1.1l1.1 4.3s1.5 5.6 2 7c1 2.9-.9 2.6-2 2.6s0 7.5 0 7.5c3.9 0 7.1-3.2 7.1-7.1V8.1c0-3.9-3.2-7.1-7.1-7.1z"/><path fill="#FFF" d="M-63.9 20.4c1.9 0 3.5-1.6 3.5-3.5h-7c0 1.9 1.5 3.5 3.5 3.5z"/><circle fill="#5E3E32" cx="-67.4" cy="11.7" r=".9"/><circle fill="#5E3E32" cx="-60.1" cy="11.7" r=".9"/><ellipse transform="matrix(.821 -.571 .571 .821 -14.256 -37.858)" fill="#FFF" cx="-67.6" cy="3.8" rx="1.6" ry=".5"/><path fill="#6B3E3E" d="M-67.2 18c.5 1.4 1.8 2.4 3.3 2.4s2.8-1 3.3-2.4h-6.6z"/><path fill="none" stroke="#473421" stroke-width=".5" stroke-miterlimit="10" d="M-66.5 13.8h-2.7c-.6 0-1.2-.5-1.2-1.2v-2c0-.6.5-1.2 1.2-1.2h2.7c.6 0 1.2.5 1.2 1.2v2c0 .7-.6 1.2-1.2 1.2zm8.2 0H-61c-.6 0-1.2-.5-1.2-1.2v-2c0-.6.5-1.2 1.2-1.2h2.7c.6 0 1.2.5 1.2 1.2v2c0 .7-.5 1.2-1.2 1.2z"/><path fill="none" stroke="#473421" stroke-width=".5" stroke-miterlimit="10" d="M-65.3 11.9s.7-1 1.6-1c.9 0 1.6.8 1.6.8"/><circle fill="#5E3E32" cx="50.8" cy="8" r="1.9"/><circle fill="#5E3E32" cx="50.8" cy="11.7" r="1.9"/><circle fill="#5E3E32" cx="36.3" cy="7.7" r="1.9"/><circle fill="#5E3E32" cx="36.3" cy="11.5" r="1.9"/><path fill="#E9B846" d="M36.6 5.7v9.9c0 3.9 3.2 7.1 7.1 7.1 3.9 0 7.1-3.2 7.1-7.1V5.7H36.6z"/><path fill="#F5CA48" d="M43.7 15.2c1.1 0 3 .3 2-2.6-.5-1.4-2-7-2-7h-7.1v9.9c0 3.9 3.2 7.1 7.1 7.1 0 .1-1.2-7.4 0-7.4z"/><circle fill="#5E3E32" cx="40.2" cy="11.9" r=".9"/><circle fill="#5E3E32" cx="48.1" cy="11.9" r=".9"/><path fill="#5E3E32" d="M47.6 16.6c-.1-.3-.4-.5-.8-.5h-6.2c-.4 0-.7.2-.8.5 0 .1-.1.2-.1.3v4.9c0 .5.4.9.9.9s.9-.4.9-.9v-4H46v4c0 .5.4.9.9.9s.9-.4.9-.9V17c-.1-.2-.2-.3-.2-.4z"/><circle fill="#5E3E32" cx="41.8" cy="5.6" r="1.9"/><circle fill="#5E3E32" cx="45.5" cy="5.6" r="1.9"/><circle fill="#5E3E32" cx="49.2" cy="5.6" r="1.9"/><circle fill="#5E3E32" cx="38.2" cy="5.6" r="1.9"/><circle fill="#5E3E32" cx="41.8" cy="3.5" r="1.9"/><circle fill="#5E3E32" cx="36.3" cy="4" r="1.9"/><circle fill="#5E3E32" cx="50.8" cy="4.2" r="1.9"/><circle fill="#5E3E32" cx="40" cy=".5" r="1.9"/><circle fill="#5E3E32" cx="43.7" cy=".5" r="1.9"/><circle fill="#5E3E32" cx="47.3" cy=".5" r="1.9"/><path fill="#5E3E32" d="M36.6.6c-.1.2-.3 3.1-.3 3.1l1.4 1.6 2.5.5 9.5-.6 1.1-2.7-.3-1.5-2-.5h-5.7l-6.2.1z"/><circle fill="#5E3E32" cx="49.8" cy="2" r="1.9"/><circle fill="#5E3E32" cx="37.4" cy="1.6" r="1.9"/><ellipse transform="matrix(.821 -.571 .571 .821 5.454 22.166)" fill="#FFF" cx="38.1" cy="2.4" rx="1.6" ry=".5"/><path fill="#5E3E32" d="M-18.6 107H-.4v10.3h-18.2z"/><path fill="#E9B846" d="M-16.6 100.3v9.9c0 3.9 3.2 7.1 7.1 7.1 3.9 0 7.1-3.2 7.1-7.1v-9.9h-14.2z"/><path fill="#F5CA48" d="M-9.6 109.8c1.1 0 3 .3 2-2.6-.5-1.4-2-7-2-7h-7.1v9.9c0 3.9 3.2 7.1 7.1 7.1 0 .1-1.1-7.4 0-7.4z"/><path fill="#5E3E32" d="M-6.5 100.5s-.6 2.4-3.9 2.7c-3.3.3-5.9 1.1-6.1 3.1-.2 2.1-.1 3.4-.1 3.4h-1.8s-1.7-14.2 8.9-14.2c10.8 0 9.1 14.2 9.1 14.2h-1.9s-.1-3-.1-4.5-1.4-1.6-2.6-2.6c-1.3-1-1.5-2.1-1.5-2.1z"/><circle fill="#5E3E32" cx="-13.1" cy="106.5" r=".9"/><circle fill="#5E3E32" cx="-5.1" cy="106.5" r=".9"/><ellipse transform="matrix(.821 -.571 .571 .821 -58.396 9.925)" fill="#FFF" cx="-13.4" cy="98.2" rx="1.6" ry=".5"/><path fill="#FFF" d="M-9.1 115.4c1.9 0 3.5-1.6 3.5-3.5h-7c0 2 1.5 3.5 3.5 3.5z"/><path fill="#6B3E3E" d="M-12.4 113c.5 1.4 1.8 2.4 3.3 2.4s2.8-1 3.3-2.4h-6.6z"/><path fill="#71A266" d="M89.7 53.6c0-3.9-3.2-7.1-7.1-7.1-3.9 0-7.1 3.2-7.1 7.1v7.3c0 3.9 3.2 7.1 7.1 7.1 3.9 0 7.1-3.2 7.1-7.1v-7.3z"/><path fill="#628F59" d="M82.6 46.5c-.4 0-.7 0-1.1.1l1.1 4.3s1.5 5.6 2 7c1 2.9-.9 2.6-2 2.6s0 7.5 0 7.5c3.9 0 7.1-3.2 7.1-7.1v-7.2c0-4-3.2-7.2-7.1-7.2z"/><path fill="#FFF" d="M82.6 65.9c1.9 0 3.5-1.6 3.5-3.5h-7c0 1.9 1.5 3.5 3.5 3.5z"/><ellipse transform="matrix(.821 -.571 .571 .821 -14.015 53.868)" fill="#9BC391" cx="79" cy="49.3" rx="1.6" ry=".5"/><path fill="#2E3D2F" d="M79.3 63.5c.5 1.4 1.8 2.4 3.3 2.4s2.8-1 3.3-2.4h-6.6z"/><ellipse transform="matrix(.726 .688 -.688 .726 60.019 -38.772)" fill="#2E3D2F" cx="78.6" cy="55.9" rx="2.2" ry="1.2"/><ellipse transform="matrix(-.726 .688 -.688 -.726 188.675 36.55)" fill="#2E3D2F" cx="87.1" cy="55.9" rx="2.2" ry="1.2"/><ellipse fill="#B19A4E" cx="42.1" cy="103.9" rx="9.1" ry="8.6"/><path fill="#B19A4E" d="M33 104.3h18.1v13.2H33z"/><path fill="#F5CA48" d="M49.1 103.9c0-3.9-3.2-7.1-7.1-7.1-3.9 0-7.1 3.2-7.1 7.1v7.3c0 3.9 3.2 7.1 7.1 7.1 3.9 0 7.1-3.2 7.1-7.1v-7.3z"/><path fill="#E9B846" d="M42.1 96.9c-.4 0-.7 0-1.1.1l1.1 4.3s1.5 5.6 2 7c1 2.9-.9 2.6-2 2.6s0 7.5 0 7.5c3.9 0 7.1-3.2 7.1-7.1v-7.2c-.1-4.1-3.2-7.2-7.1-7.2z"/><path fill="#FFF" d="M42.1 116.3c1.9 0 3.5-1.6 3.5-3.5h-7c-.1 1.9 1.5 3.5 3.5 3.5z"/><circle fill="#5E3E32" cx="38.5" cy="107.5" r=".9"/><circle fill="#5E3E32" cx="45.9" cy="107.5" r=".9"/><path fill="#6B3E3E" d="M38.7 113.9c.5 1.4 1.8 2.4 3.3 2.4s2.8-1 3.3-2.4h-6.6z"/><path fill="#B19A4E" d="M34.2 105.3s3.6-1.6 4.9-2.7c1.3-1.1 1.5-2.3 1.5-2.3s1.5 3.6 4.1 4.2 4.7.2 4.7.2.8-4.6-2.5-6.7c-3.3-2.1-6.3-2.4-8.1-1.6s-4.6 3.4-4.6 5.2c-.1 1.9 0 3.7 0 3.7z"/><path d="M49.3 103.7l-1.4 1.8-1.7-2.8 2.3-.4m2.5.3l2.3-.3-1.7-2.9-1.4 1.9m.4 1.9l-.7.4c-.3.2-.8.1-.9-.2l-.4-.7c-.2-.3-.1-.8.2-.9l.7-.4c.3-.2.8-.1.9.2l.4.7c.3.3.2.7-.2.9z" fill="#B04F46"/><ellipse transform="matrix(.821 -.571 .571 .821 -49.415 39.046)" fill="#FFF" cx="37.6" cy="98.4" rx="1.6" ry=".5"/><ellipse fill="#8F5741" cx="96" cy="104.1" rx="9.1" ry="8.6"/><path fill="#F5CA48" d="M103.1 104.2c0-3.9-3.2-7.1-7.1-7.1-3.9 0-7.1 3.2-7.1 7.1v7.3c0 3.9 3.2 7.1 7.1 7.1 3.9 0 7.1-3.2 7.1-7.1v-7.3z"/><path fill="#E9B846" d="M96 97.1c-.4 0-.7 0-1.1.1l1.1 4.3s1.5 5.6 2 7c1 2.9-.9 2.6-2 2.6s0 7.5 0 7.5c3.9 0 7.1-3.2 7.1-7.1v-7.2c0-4.1-3.2-7.2-7.1-7.2z"/><path fill="#FFF" d="M96 116.5c1.9 0 3.5-1.6 3.5-3.5h-7c0 1.9 1.6 3.5 3.5 3.5z"/><circle fill="#5E3E32" cx="92.5" cy="107.7" r=".9"/><circle fill="#5E3E32" cx="99.8" cy="107.7" r=".9"/><path fill="#6B3E3E" d="M92.7 114.1c.5 1.4 1.8 2.4 3.3 2.4s2.8-1 3.3-2.4h-6.6z"/><path fill="#8F5741" d="M88.1 105.6s3.6-1.6 4.9-2.7c1.3-1.1 1.5-2.3 1.5-2.3s1.5 3.6 4.1 4.2c2.6.6 4.7.2 4.7.2s.8-4.6-2.5-6.7-6.3-2.4-8.1-1.6c-1.8.8-4.6 3.4-4.6 5.2v3.7z"/><path fill="#8F5741" d="M89.2 104.3s-.9 3.8.5 6.8c.8 1.8 1.4 2.8 1.4 2.8s-3.8-1.3-5.1-4.5c-1.2-3.2.6-8.2 2.7-10.3 1.4-1.4 1.8 2.8 1.8 2.8l-1.3 2.4zm13.6.3s.8 2.3-.3 5.4c-.6 1.5-1.7 3.1-1.7 3.1s3-1 4-2.6c1.6-2.5 2.1-8-.8-11-2-2.1-4.5-2.4-4.5-2.4l3.3 7.5z"/><ellipse transform="matrix(.821 -.571 .571 .821 -39.986 69.89)" fill="#FFF" cx="91.6" cy="98.8" rx="1.6" ry=".5"/><ellipse fill="#5E3E32" cx="-28.2" cy="6.6" rx="8.2" ry="7.8"/><path fill="#E9B846" d="M-35.3 5.6v9.9c0 3.9 3.2 7.1 7.1 7.1 3.9 0 7.1-3.2 7.1-7.1V5.6h-14.2z"/><path fill="#F5CA48" d="M-28.2 15.1c1.1 0 3 .3 2-2.6-.5-1.4-2-7-2-7h-7.1v9.9c0 3.9 3.2 7.1 7.1 7.1 0 .1-1.1-7.4 0-7.4z"/><circle fill="#5E3E32" cx="-23.8" cy="11.8" r=".9"/><path fill="#5E3E32" d="M-23.4 18.3c-1.1 0-2.7-1.9-4.8-1.9-2.1 0-3.7 1.9-4.8 1.9s-2.3-2.6-2.3-2.6.2 7.1 5.8 7.1h2.5c5.7 0 5.8-7.1 5.8-7.1s-1.1 2.6-2.2 2.6zm-4.9 3c-1.7 0-3.1-.9-3.1-1.9 0-1.1 1.4-1.9 3.1-1.9s3.1.9 3.1 1.9c0 1-1.4 1.9-3.1 1.9z"/><circle fill="#5E3E32" cx="-31.6" cy="11.8" r=".9"/><path fill="#5E3E32" d="M-21.1 6.2h1.1v7.2h-1.1zm-15.3 0h1.1v6.6h-1.1z"/><path fill="#5E3E32" d="M-31.6 5.8s1.2 1.2 2.5 2c1.2.8 3.6.8 4.7.7 1.1 0 3.2-.6 3.3.8.2 1.3.6 1 .6 1s.5-4.2 0-5.1S-26.6 3-26.6 3s-8.2 1-8.6 1.4c-.4.5-.9 4-.9 5s1.1-.2 2.1-1c1-.6 2.4-2.6 2.4-2.6z"/><ellipse transform="matrix(.821 -.571 .571 .821 -6.952 -18.211)" fill="#FFF" cx="-32.5" cy="2" rx="1.6" ry=".5"/><path fill="#5E3E32" d="M85.1 12.1H72.5c-.9 0-1.6-.7-1.6-1.6V4.8c0-.9.7-1.6 1.6-1.6h12.6c.9 0 1.6.7 1.6 1.6v5.7c0 .9-.7 1.6-1.6 1.6z"/><path fill="#F5CA48" d="M85.9 7.6c0-3.9-3.2-7.1-7.1-7.1-3.9 0-7.1 3.2-7.1 7.1v7.3c0 3.9 3.2 7.1 7.1 7.1 3.9 0 7.1-3.2 7.1-7.1V7.6z"/><path fill="#E9B846" d="M78.8.5c-.4 0-.7 0-1.1.1L78.8 5s1.5 5.6 2 7c1 2.9-.9 2.6-2 2.6s0 7.5 0 7.5c3.9 0 7.1-3.2 7.1-7.1V7.6c0-3.9-3.2-7.1-7.1-7.1z"/><circle fill="#5E3E32" cx="74.8" cy="10.3" r=".9"/><circle fill="#5E3E32" cx="82.8" cy="10.3" r=".9"/><path fill="#FFF" d="M78.8 20.1c1.9 0 3.5-1.6 3.5-3.5h-7c0 2 1.6 3.5 3.5 3.5z"/><path fill="#6B3E3E" d="M75.5 17.7c.5 1.4 1.8 2.4 3.3 2.4s2.8-1 3.3-2.4h-6.6z"/><path fill="#5E3E32" d="M71.2 2c0 5.2 6.4 4.9 9.4 4.9 10 0 6.8-8.5 6.4-9.7S86.2-.5 83.5 0s-4.2-1.4-7-1.4c-2.6 0-5.3.7-5.3 3.4z"/><ellipse transform="matrix(.821 -.571 .571 .821 12.463 42.988)" fill="#FFF" cx="74.8" cy="1.6" rx="1.6" ry=".5"/><circle fill="#281B18" cx="-62.2" cy="102.4" r="9.4"/><path fill="#281B18" d="M-71.6 102.3h18.7v14.9h-18.7z"/><path fill="#F5CA48" d="M-55.1 102.8c0-3.9-3.2-7.1-7.1-7.1-3.9 0-7.1 3.2-7.1 7.1v7.3c0 3.9 3.2 7.1 7.1 7.1 3.9 0 7.1-3.2 7.1-7.1v-7.3z"/><path fill="#E9B846" d="M-62.1 95.7c-.4 0-.7 0-1.1.1l1.1 4.3s1.5 5.6 2 7c1 2.9-.9 2.6-2 2.6s0 7.5 0 7.5c3.9 0 7.1-3.2 7.1-7.1v-7.2c-.1-4-3.2-7.2-7.1-7.2z"/><path fill="#FFF" d="M-62.2 115.1c1.9 0 3.5-1.6 3.5-3.5h-7c0 1.9 1.6 3.5 3.5 3.5z"/><path fill="#6B3E3E" d="M-65.5 112.7c.5 1.4 1.8 2.4 3.3 2.4s2.8-1 3.3-2.4h-6.6z"/><circle fill="#5E3E32" cx="-66" cy="106.6" r=".9"/><circle fill="#5E3E32" cx="-58.2" cy="106.6" r=".9"/><path fill="#281B18" d="M-70.1 102.5h15.8s-2-6-5.4-6.9c-3.4-.9-5.5-.9-7 .4-1.6 1.1-3.4 6.5-3.4 6.5z"/><ellipse transform="matrix(.821 -.571 .571 .821 -68.398 -20.934)" fill="#FFF" cx="-67.6" cy="98.7" rx="1.6" ry=".5"/><path fill="#473421" d="M119.9 15.6h-9.1c-2.3 0-4.2-1.9-4.2-4.2V8.7c0-2.3 1.9-4.2 4.2-4.2h9.1c2.3 0 4.2 1.9 4.2 4.2v2.7c0 2.3-1.9 4.2-4.2 4.2z"/><circle fill="#F5CA48" cx="108.3" cy="11.1" r="2.6"/><circle fill="#E9B846" cx="122.2" cy="11.1" r="2.6"/><path fill="#F5CA48" d="M122.5 7.7c0-3.9-3.2-7.1-7.1-7.1-3.9 0-7.1 3.2-7.1 7.1V15c0 3.9 3.2 7.1 7.1 7.1 3.9 0 7.1-3.2 7.1-7.1V7.7z"/><path fill="#E9B846" d="M115.4.7c-.4 0-.7 0-1.1.1l1.1 4.3s1.5 5.6 2 7c1 2.9-.9 2.6-2 2.6s0 7.5 0 7.5c3.9 0 7.1-3.2 7.1-7.1V7.7c0-3.9-3.2-7-7.1-7z"/><path fill="#FFF" d="M115.4 20c1.9 0 3.5-1.6 3.5-3.5h-7c-.1 2 1.5 3.5 3.5 3.5z"/><circle fill="#5E3E32" cx="111.7" cy="11.3" r=".9"/><circle fill="#5E3E32" cx="119.2" cy="11.3" r=".9"/><ellipse transform="matrix(.821 -.571 .571 .821 17.996 64.376)" fill="#FFF" cx="111.7" cy="3.5" rx="1.6" ry=".5"/><path fill="#6B3E3E" d="M112.1 17.7c.5 1.4 1.8 2.4 3.3 2.4s2.8-1 3.3-2.4h-6.6z"/><path fill="#473421" d="M113.3 8.8H110c-.5 0-.9-.4-.9-.9s.4-.9.9-.9h3.3c.5 0 .9.4.9.9s-.4.9-.9.9zm7.6 0h-3.3c-.5 0-.9-.4-.9-.9s.4-.9.9-.9h3.3c.5 0 .9.4.9.9-.1.5-.5.9-.9.9z"/><ellipse fill="#4D3330" cx="-13.9" cy="54.8" rx="9.1" ry="8.6"/><path fill="#F5CA48" d="M-6.8 54.8c0-3.9-3.2-7.1-7.1-7.1-3.9 0-7.1 3.2-7.1 7.1V62c0 3.9 3.2 7.1 7.1 7.1 3.9 0 7.1-3.2 7.1-7.1v-7.2z"/><path fill="#E9B846" d="M-13.9 47.7c-.4 0-.7 0-1.1.1l1.1 4.3s1.5 5.6 2 7c1 2.9-.9 2.6-2 2.6s0 7.5 0 7.5c3.9 0 7.1-3.2 7.1-7.1v-7.2c0-4-3.2-7.2-7.1-7.2z"/><path fill="#FFF" d="M-13.9 67.1c1.9 0 3.5-1.6 3.5-3.5h-7c0 1.9 1.5 3.5 3.5 3.5z"/><circle fill="#5E3E32" cx="-17.4" cy="58.4" r=".9"/><circle fill="#5E3E32" cx="-10.1" cy="58.4" r=".9"/><path fill="#6B3E3E" d="M-17.2 64.7c.5 1.4 1.8 2.4 3.3 2.4s2.8-1 3.3-2.4h-6.6z"/><path fill="#4D3330" d="M-21.8 56.2s3.6-1.6 4.9-2.7c1.3-1.1 1.5-2.3 1.5-2.3s1.5 3.6 4.1 4.2 4.7.2 4.7.2.8-4.6-2.5-6.7-6.3-2.4-8.1-1.6-4.6 3.4-4.6 5.2v3.7z"/><ellipse transform="matrix(.821 -.571 .571 .821 -31.458 -1.659)" fill="#FFF" cx="-18.4" cy="49.4" rx="1.6" ry=".5"/><g><path fill="#4D3330" d="M40.2 61.3h5.2l-2-6.9c-.2-4.6-4.2-8.3-9-8.3-4.9 0-8.9 3.7-9 8.3l-2 6.9h5.2c1.6 1.3 3.6 2 5.8 2s4.2-.7 5.8-2z"/><path fill="#F5CA48" d="M41.4 54.8c0-3.9-3.2-7.1-7.1-7.1-3.9 0-7.1 3.2-7.1 7.1V62c0 3.9 3.2 7.1 7.1 7.1 3.9 0 7.1-3.2 7.1-7.1v-7.2z"/><path fill="#E9B846" d="M34.3 47.7c-.4 0-.7 0-1.1.1l1.1 4.3s1.5 5.6 2 7c1 2.9-.9 2.6-2 2.6s0 7.5 0 7.5c3.9 0 7.1-3.2 7.1-7.1v-7.2c0-4-3.2-7.2-7.1-7.2z"/><path fill="#FFF" d="M34.3 67.1c1.9 0 3.5-1.6 3.5-3.5h-7c0 1.9 1.6 3.5 3.5 3.5z"/><circle fill="#5E3E32" cx="30.8" cy="58.4" r=".9"/><circle fill="#5E3E32" cx="38.1" cy="58.4" r=".9"/><path fill="#6B3E3E" d="M31 64.7c.5 1.4 1.8 2.4 3.3 2.4s2.8-1 3.3-2.4H31z"/><ellipse transform="matrix(.821 -.571 .571 .821 -22.833 25.872)" fill="#FFF" cx="29.9" cy="49.4" rx="1.6" ry=".5"/><path fill="#4D3330" d="M32.1 50.4s1.4 2.6 2.3 3.2c1.2.9 2.9.8 2.9.8l-.9-.8s1.4.6 2.4.8c1.2.3 3 0 3 0s-.8-5.2-3.2-6c-2.4-.9-7.2-1.1-7.6-.6-.4.4-3.5 2.4-4 4.9-.5 2.6-.5 3.3-.5 3.3s2.2-.8 3.1-2c.6-.8.5-.8.5-.8l-.5 1.3s1.5-1.1 2-2.1c.3-1.1.5-2 .5-2z"/></g></svg>