<svg width="24" height="31" xmlns="http://www.w3.org/2000/svg" viewBox="0 0 18.3 24.1"><path fill="#5E3E32" d="M-105.6 58h18v3.7h-18z"/><path fill="#E9B846" d="M-103.6 52.4v9.9c0 3.9 3.2 7.1 7.1 7.1 3.9 0 7.1-3.2 7.1-7.1v-9.9h-14.2z"/><path fill="#F5CA48" d="M-96.6 61.9c1.1 0 3 .3 2-2.6-.5-1.4-2-7-2-7h-7.1v9.9c0 3.9 3.2 7.1 7.1 7.1 0 .1-1.1-7.4 0-7.4z"/><path fill="#FFF" d="M-96.6 67.3c1.9 0 3.5-1.6 3.5-3.5h-7c0 2 1.6 3.5 3.5 3.5z"/><path fill="#5E3E32" d="M-93.5 52.5s-.6 2.4-3.9 2.7c-3.3.3-5.9 1.1-6.1 3.1-.2 2.1-.1 3.4-.1 3.4h-1.8s-1.7-14.2 8.9-14.2c10.8 0 9.1 14.2 9.1 14.2h-1.9s-.1-3-.1-4.5-1.4-1.6-2.6-2.6c-1.4-1.1-1.5-2.1-1.5-2.1z"/><circle fill="#5E3E32" cx="-100.1" cy="58.6" r=".9"/><circle fill="#5E3E32" cx="-92.1" cy="58.6" r=".9"/><ellipse transform="matrix(.821 -.571 .571 .821 -46.607 -48.285)" fill="#FFF" cx="-100.4" cy="50.2" rx="1.6" ry=".5"/><path fill="#6B3E3E" d="M-99.9 64.9c.5 1.4 1.8 2.4 3.3 2.4s2.8-1 3.3-2.4h-6.6z"/><path fill="#E9B846" d="M-33.8 8.1V18c0 3.9 3.2 7.1 7.1 7.1 3.9 0 7.1-3.2 7.1-7.1V8.1h-14.2z"/><path fill="#F5CA48" d="M-26.6 17.6c1.1 0 3 .3 2-2.6-.5-1.4-2-7-2-7h-7.1v10c0 3.9 3.2 7.1 7.1 7.1 0 0-1.1-7.5 0-7.5z"/><path fill="none" stroke="#473421" stroke-linecap="round" stroke-miterlimit="10" d="M-29.3 21.1s1.1 1.1 2.5 1.1c1.7 0 2.7-1.1 2.7-1.1"/><path fill="#291D11" d="M-26.7 5h4.6l3.1-3.6v16.2s-1.6-.6-3.4-.3c-2.3.3-4 2.3-4 2.3h-.6s-1.7-2-4-2.3c-1.8-.2-3.4.3-3.4.3V1.4l3.1 3.6h4.6"/><path fill="#FFF" d="M-32.1 13.5l3.5 1.5s-.9 1.2-1.7.8-1.8-2.3-1.8-2.3zm10.9 0l-3.5 1.5s.9 1.2 1.7.8 1.8-2.3 1.8-2.3z"/><circle fill="#F5CA48" cx="-105.4" cy="12.9" r="2.6"/><circle fill="#E9B846" cx="-91.5" cy="12.9" r="2.6"/><path fill="#F5CA48" d="M-91.2 9.5c0-3.9-3.2-7.1-7.1-7.1-3.9 0-7.1 3.2-7.1 7.1v7.3c0 3.9 3.2 7.1 7.1 7.1 3.9 0 7.1-3.2 7.1-7.1V9.5z"/><path fill="#E9B846" d="M-98.3 2.4c-.4 0-.7 0-1.1.1l1.1 4.3s1.5 5.6 2 7c1 2.9-.9 2.6-2 2.6s0 7.5 0 7.5c3.9 0 7.1-3.2 7.1-7.1V9.5c0-3.9-3.2-7.1-7.1-7.1z"/><path fill="#FFF" d="M-98.3 21.8c1.9 0 3.5-1.6 3.5-3.5h-7c0 1.9 1.6 3.5 3.5 3.5z"/><circle fill="#5E3E32" cx="-101.8" cy="13.1" r=".9"/><circle fill="#5E3E32" cx="-94.5" cy="13.1" r=".9"/><ellipse transform="matrix(.821 -.571 .571 .821 -21.206 -57.218)" fill="#FFF" cx="-101.9" cy="5.2" rx="1.6" ry=".5"/><path fill="#6B3E3E" d="M-101.6 19.4c.5 1.4 1.8 2.4 3.3 2.4s2.8-1 3.3-2.4h-6.6z"/><path fill="none" stroke="#473421" stroke-width=".5" stroke-miterlimit="10" d="M-100.9 15.2h-2.7c-.6 0-1.2-.5-1.2-1.2v-2c0-.6.5-1.2 1.2-1.2h2.7c.6 0 1.2.5 1.2 1.2v2c0 .7-.5 1.2-1.2 1.2zm8.2 0h-2.7c-.6 0-1.2-.5-1.2-1.2v-2c0-.6.5-1.2 1.2-1.2h2.7c.6 0 1.2.5 1.2 1.2v2c0 .7-.5 1.2-1.2 1.2z"/><path fill="none" stroke="#473421" stroke-width=".5" stroke-miterlimit="10" d="M-99.7 13.3s.7-1 1.6-1c.9 0 1.6.8 1.6.8"/><circle fill="#5E3E32" cx="16.4" cy="9.4" r="1.9"/><circle fill="#5E3E32" cx="16.4" cy="13.1" r="1.9"/><circle fill="#5E3E32" cx="1.9" cy="9.1" r="1.9"/><circle fill="#5E3E32" cx="1.9" cy="12.9" r="1.9"/><path fill="#E9B846" d="M2.2 7.1V17c0 3.9 3.2 7.1 7.1 7.1 3.9 0 7.1-3.2 7.1-7.1V7.1H2.2z"/><path fill="#F5CA48" d="M9.3 16.6c1.1 0 3 .3 2-2.6-.5-1.4-2-7-2-7H2.2v10c0 3.9 3.2 7.1 7.1 7.1 0 0-1.1-7.5 0-7.5z"/><circle fill="#5E3E32" cx="5.8" cy="13.4" r=".9"/><circle fill="#5E3E32" cx="13.7" cy="13.4" r=".9"/><path fill="#5E3E32" d="M13.2 18c-.1-.3-.4-.5-.8-.5H6.2c-.4 0-.7.2-.8.5 0 .1-.1.2-.1.3v4.9c0 .5.4.9.9.9s.9-.4.9-.9v-4h4.5v4c0 .5.4.9.9.9s.9-.4.9-.9v-4.9c-.1-.1-.1-.2-.2-.3z"/><circle fill="#5E3E32" cx="7.5" cy="7" r="1.9"/><circle fill="#5E3E32" cx="11.1" cy="7" r="1.9"/><circle fill="#5E3E32" cx="14.8" cy="7" r="1.9"/><circle fill="#5E3E32" cx="3.8" cy="7" r="1.9"/><circle fill="#5E3E32" cx="7.4" cy="4.9" r="1.9"/><circle fill="#5E3E32" cx="1.9" cy="5.5" r="1.9"/><circle fill="#5E3E32" cx="16.4" cy="5.6" r="1.9"/><circle fill="#5E3E32" cx="5.6" cy="1.9" r="1.9"/><circle fill="#5E3E32" cx="9.3" cy="1.9" r="1.9"/><circle fill="#5E3E32" cx="13" cy="1.9" r="1.9"/><path fill="#5E3E32" d="M2.2 2c-.1.2-.3 3.1-.3 3.1l1.4 1.6 2.5.5 9.5-.6 1.1-2.7-.3-1.6-2-.5H8.4L2.2 2z"/><circle fill="#5E3E32" cx="15.4" cy="3.4" r="1.9"/><circle fill="#5E3E32" cx="3.1" cy="3" r="1.9"/><ellipse transform="matrix(.821 -.571 .571 .821 -1.496 2.807)" fill="#FFF" cx="3.7" cy="3.8" rx="1.6" ry=".5"/><path fill="#5E3E32" d="M-53 108.4h18.2v10.3H-53z"/><path fill="#E9B846" d="M-51 101.7v9.9c0 3.9 3.2 7.1 7.1 7.1 3.9 0 7.1-3.2 7.1-7.1v-9.9H-51z"/><path fill="#F5CA48" d="M-43.9 111.2c1.1 0 3 .3 2-2.6-.5-1.4-2-7-2-7H-51v9.9c0 3.9 3.2 7.1 7.1 7.1 0 .1-1.2-7.4 0-7.4z"/><path fill="#5E3E32" d="M-40.9 101.9s-.6 2.4-3.9 2.7-5.9 1.1-6.1 3.1c-.2 2.1-.1 3.4-.1 3.4h-1.8s-1.7-14.2 8.9-14.2c10.8 0 9.1 14.2 9.1 14.2h-1.9s-.1-3-.1-4.5-1.4-1.6-2.6-2.6c-1.3-1-1.5-2.1-1.5-2.1z"/><circle fill="#5E3E32" cx="-47.4" cy="107.9" r=".9"/><circle fill="#5E3E32" cx="-39.5" cy="107.9" r=".9"/><ellipse transform="matrix(.821 -.571 .571 .821 -65.346 -9.435)" fill="#FFF" cx="-47.7" cy="99.6" rx="1.6" ry=".5"/><path fill="#FFF" d="M-43.5 116.8c1.9 0 3.5-1.6 3.5-3.5h-7c0 2 1.6 3.5 3.5 3.5z"/><path fill="#6B3E3E" d="M-46.8 114.4c.5 1.4 1.8 2.4 3.3 2.4s2.8-1 3.3-2.4h-6.6z"/><path fill="#71A266" d="M55.3 55c0-3.9-3.2-7.1-7.1-7.1-3.9 0-7.1 3.2-7.1 7.1v7.3c0 3.9 3.2 7.1 7.1 7.1 3.9 0 7.1-3.2 7.1-7.1V55z"/><path fill="#628F59" d="M48.2 47.9c-.4 0-.7 0-1.1.1l1.1 4.3s1.5 5.6 2 7c1 2.9-.9 2.6-2 2.6s0 7.5 0 7.5c3.9 0 7.1-3.2 7.1-7.1V55c0-3.9-3.2-7.1-7.1-7.1z"/><path fill="#FFF" d="M48.2 67.3c1.9 0 3.5-1.6 3.5-3.5h-7c0 1.9 1.6 3.5 3.5 3.5z"/><ellipse transform="matrix(.821 -.571 .571 .821 -20.965 34.508)" fill="#9BC391" cx="44.6" cy="50.7" rx="1.6" ry=".5"/><path fill="#2E3D2F" d="M44.9 64.9c.5 1.4 1.8 2.4 3.3 2.4s2.8-1 3.3-2.4h-6.6z"/><ellipse transform="matrix(.726 .688 -.688 .726 51.562 -14.735)" fill="#2E3D2F" cx="44.3" cy="57.3" rx="2.2" ry="1.2"/><ellipse transform="matrix(-.726 .688 -.688 -.726 130.329 62.638)" fill="#2E3D2F" cx="52.7" cy="57.3" rx="2.2" ry="1.2"/><ellipse fill="#B19A4E" cx="7.7" cy="105.3" rx="9.1" ry="8.6"/><path fill="#B19A4E" d="M-1.4 105.7h18.1v13.2H-1.4z"/><path fill="#F5CA48" d="M14.8 105.4c0-3.9-3.2-7.1-7.1-7.1-3.9 0-7.1 3.2-7.1 7.1v7.3c0 3.9 3.2 7.1 7.1 7.1 3.9 0 7.1-3.2 7.1-7.1v-7.3z"/><path fill="#E9B846" d="M7.7 98.3c-.4 0-.7 0-1.1.1l1.1 4.3s1.5 5.6 2 7c1 2.9-.9 2.6-2 2.6s0 7.5 0 7.5c3.9 0 7.1-3.2 7.1-7.1v-7.2c0-4.1-3.2-7.2-7.1-7.2z"/><path fill="#FFF" d="M7.7 117.7c1.9 0 3.5-1.6 3.5-3.5h-7c0 1.9 1.5 3.5 3.5 3.5z"/><circle fill="#5E3E32" cx="4.2" cy="108.9" r=".9"/><circle fill="#5E3E32" cx="11.5" cy="108.9" r=".9"/><path fill="#6B3E3E" d="M4.4 115.3c.5 1.4 1.8 2.4 3.3 2.4s2.8-1 3.3-2.4H4.4z"/><path fill="#B19A4E" d="M-.2 106.8s3.6-1.6 4.9-2.7c1.3-1.1 1.5-2.3 1.5-2.3s1.5 3.6 4.1 4.2 4.7.2 4.7.2.8-4.6-2.5-6.7c-3.3-2.1-6.3-2.4-8.1-1.6s-4.6 3.4-4.6 5.2v3.7z"/><path d="M14.9 105.1l-1.4 1.8-1.7-2.8 2.3-.3m2.5.2l2.3-.3-1.7-2.9-1.4 1.9m.5 1.9l-.7.4c-.3.2-.8.1-.9-.2l-.4-.7c-.2-.3-.1-.8.2-.9l.7-.4c.3-.2.8-.1.9.2l.4.7c.2.3.1.7-.2.9z" fill="#B04F46"/><ellipse transform="matrix(.821 -.571 .571 .821 -56.365 19.686)" fill="#FFF" cx="3.2" cy="99.8" rx="1.6" ry=".5"/><ellipse fill="#8F5741" cx="61.6" cy="105.6" rx="9.1" ry="8.6"/><path fill="#F5CA48" d="M68.7 105.6c0-3.9-3.2-7.1-7.1-7.1-3.9 0-7.1 3.2-7.1 7.1v7.3c0 3.9 3.2 7.1 7.1 7.1 3.9 0 7.1-3.2 7.1-7.1v-7.3z"/><path fill="#E9B846" d="M61.6 98.5c-.4 0-.7 0-1.1.1l1.1 4.3s1.5 5.6 2 7c1 2.9-.9 2.6-2 2.6s0 7.5 0 7.5c3.9 0 7.1-3.2 7.1-7.1v-7.2c0-4-3.2-7.2-7.1-7.2z"/><path fill="#FFF" d="M61.6 117.9c1.9 0 3.5-1.6 3.5-3.5h-7c0 1.9 1.6 3.5 3.5 3.5z"/><circle fill="#5E3E32" cx="58.1" cy="109.2" r=".9"/><circle fill="#5E3E32" cx="65.4" cy="109.2" r=".9"/><path fill="#6B3E3E" d="M58.3 115.5c.5 1.4 1.8 2.4 3.3 2.4s2.8-1 3.3-2.4h-6.6z"/><path fill="#8F5741" d="M53.8 107s3.6-1.6 4.9-2.7c1.3-1.1 1.5-2.3 1.5-2.3s1.5 3.6 4.1 4.2c2.6.6 4.7.2 4.7.2s.8-4.6-2.5-6.7c-3.3-2.1-6.3-2.4-8.1-1.6-1.8.8-4.6 3.4-4.6 5.2-.1 1.8 0 3.7 0 3.7z"/><path fill="#8F5741" d="M54.8 105.7s-.9 3.8.5 6.8c.8 1.8 1.4 2.8 1.4 2.8s-3.8-1.3-5.1-4.5c-1.2-3.2.6-8.2 2.7-10.3 1.4-1.4 1.8 2.8 1.8 2.8l-1.3 2.4zm13.6.3s.8 2.3-.3 5.4c-.6 1.5-1.7 3.1-1.7 3.1s3-1 4-2.6c1.6-2.5 2.1-8-.8-11-2-2.1-4.5-2.4-4.5-2.4l3.3 7.5z"/><ellipse transform="matrix(.821 -.571 .571 .821 -46.936 50.531)" fill="#FFF" cx="57.2" cy="100.2" rx="1.6" ry=".5"/><ellipse fill="#5E3E32" cx="-62.6" cy="8.1" rx="8.2" ry="7.8"/><path fill="#E9B846" d="M-69.7 7v9.9c0 3.9 3.2 7.1 7.1 7.1 3.9 0 7.1-3.2 7.1-7.1V7h-14.2z"/><path fill="#F5CA48" d="M-62.6 16.6c1.1 0 3 .3 2-2.6-.5-1.4-2-7-2-7h-7.1v9.9c0 3.9 3.2 7.1 7.1 7.1 0 0-1.1-7.4 0-7.4z"/><circle fill="#5E3E32" cx="-58.1" cy="13.3" r=".9"/><path fill="#5E3E32" d="M-57.8 19.7c-1.1 0-2.7-1.9-4.8-1.9-2.1 0-3.7 1.9-4.8 1.9s-2.3-2.6-2.3-2.6.2 7.1 5.8 7.1h2.5c5.7 0 5.8-7.1 5.8-7.1s-1.1 2.6-2.2 2.6zm-4.8 3c-1.7 0-3.1-.9-3.1-1.9 0-1.1 1.4-1.9 3.1-1.9s3.1.9 3.1 1.9c-.1 1-1.5 1.9-3.1 1.9z"/><circle fill="#5E3E32" cx="-66" cy="13.3" r=".9"/><path fill="#5E3E32" d="M-55.5 7.6h1.1v7.2h-1.1zm-15.3 0h1.1v6.6h-1.1z"/><path fill="#5E3E32" d="M-66 7.2s1.2 1.2 2.5 2c1.2.8 3.6.8 4.7.7s3.2-.6 3.3.8c.2 1.3.6 1 .6 1s.5-4.2 0-5.1S-61 4.5-61 4.5s-8.2 1-8.6 1.4c-.4.5-.9 4-.9 5s1.1-.2 2.1-1S-66 7.2-66 7.2z"/><ellipse transform="matrix(.821 -.571 .571 .821 -13.903 -37.571)" fill="#FFF" cx="-66.9" cy="3.4" rx="1.6" ry=".5"/><path fill="#5E3E32" d="M50.8 13.5H38.2c-.9 0-1.6-.7-1.6-1.6V6.2c0-.9.7-1.6 1.6-1.6h12.6c.9 0 1.6.7 1.6 1.6v5.7c0 .9-.8 1.6-1.6 1.6z"/><path fill="#F5CA48" d="M51.5 9c0-3.9-3.2-7.1-7.1-7.1-3.9 0-7.1 3.2-7.1 7.1v7.3c0 3.9 3.2 7.1 7.1 7.1 3.9 0 7.1-3.2 7.1-7.1V9z"/><path fill="#E9B846" d="M44.4 2c-.4 0-.7 0-1.1.1l1.1 4.3s1.5 5.6 2 7c1 2.9-.9 2.6-2 2.6s0 7.5 0 7.5c3.9 0 7.1-3.2 7.1-7.1V9c0-3.9-3.2-7-7.1-7z"/><circle fill="#5E3E32" cx="40.5" cy="11.7" r=".9"/><circle fill="#5E3E32" cx="48.4" cy="11.7" r=".9"/><path fill="#FFF" d="M44.4 21.6c1.9 0 3.5-1.6 3.5-3.5h-7c0 1.9 1.6 3.5 3.5 3.5z"/><path fill="#6B3E3E" d="M41.1 19.2c.5 1.4 1.8 2.4 3.3 2.4s2.8-1 3.3-2.4h-6.6z"/><path fill="#5E3E32" d="M36.8 3.4c0 5.2 6.4 4.9 9.4 4.9 10 0 6.8-8.5 6.4-9.7S51.7.9 49 1.3c-2.7.5-4.2-1.4-7-1.4-2.5.1-5.2.8-5.2 3.5z"/><ellipse transform="matrix(.821 -.571 .571 .821 5.513 23.629)" fill="#FFF" cx="40.5" cy="3" rx="1.6" ry=".5"/><circle fill="#281B18" cx="-96.6" cy="103.9" r="9.4"/><path fill="#281B18" d="M-105.9 103.7h18.7v14.9h-18.7z"/><path fill="#F5CA48" d="M-89.4 104.2c0-3.9-3.2-7.1-7.1-7.1-3.9 0-7.1 3.2-7.1 7.1v7.3c0 3.9 3.2 7.1 7.1 7.1 3.9 0 7.1-3.2 7.1-7.1v-7.3z"/><path fill="#E9B846" d="M-96.5 97.1c-.4 0-.7 0-1.1.1l1.1 4.3s1.5 5.6 2 7c1 2.9-.9 2.6-2 2.6s0 7.5 0 7.5c3.9 0 7.1-3.2 7.1-7.1v-7.2c0-4-3.2-7.2-7.1-7.2z"/><path fill="#FFF" d="M-96.5 116.5c1.9 0 3.5-1.6 3.5-3.5h-7c0 1.9 1.5 3.5 3.5 3.5z"/><path fill="#6B3E3E" d="M-99.8 114.1c.5 1.4 1.8 2.4 3.3 2.4s2.8-1 3.3-2.4h-6.6z"/><circle fill="#5E3E32" cx="-100.4" cy="108" r=".9"/><circle fill="#5E3E32" cx="-92.6" cy="108" r=".9"/><path fill="#281B18" d="M-104.4 103.9h15.8s-2-6-5.4-6.9c-3.4-.9-5.5-.9-7 .4-1.7 1.1-3.4 6.5-3.4 6.5z"/><ellipse transform="matrix(.821 -.571 .571 .821 -75.348 -40.294)" fill="#FFF" cx="-102" cy="100.1" rx="1.6" ry=".5"/><path fill="#473421" d="M85.6 17h-9.1c-2.3 0-4.2-1.9-4.2-4.2v-2.7c0-2.3 1.9-4.2 4.2-4.2h9.1c2.3 0 4.2 1.9 4.2 4.2v2.7c-.1 2.3-2 4.2-4.2 4.2z"/><circle fill="#F5CA48" cx="73.9" cy="12.5" r="2.6"/><circle fill="#E9B846" cx="87.8" cy="12.5" r="2.6"/><path fill="#F5CA48" d="M88.1 9.1C88.1 5.2 84.9 2 81 2c-3.9 0-7.1 3.2-7.1 7.1v7.3c0 3.9 3.2 7.1 7.1 7.1 3.9 0 7.1-3.2 7.1-7.1V9.1z"/><path fill="#E9B846" d="M81 2.1c-.4 0-.7 0-1.1.1L81 6.5s1.5 5.6 2 7c1 2.9-.9 2.6-2 2.6s0 7.5 0 7.5c3.9 0 7.1-3.2 7.1-7.1V9.1c0-3.9-3.2-7-7.1-7z"/><path fill="#FFF" d="M81 21.5c1.9 0 3.5-1.6 3.5-3.5h-7c0 1.9 1.6 3.5 3.5 3.5z"/><circle fill="#5E3E32" cx="77.3" cy="12.7" r=".9"/><circle fill="#5E3E32" cx="84.8" cy="12.7" r=".9"/><ellipse transform="matrix(.821 -.571 .571 .821 11.046 45.016)" fill="#FFF" cx="77.4" cy="4.9" rx="1.6" ry=".5"/><path fill="#6B3E3E" d="M77.7 19.1c.5 1.4 1.8 2.4 3.3 2.4s2.8-1 3.3-2.4h-6.6z"/><path fill="#473421" d="M79 10.2h-3.3c-.5 0-.9-.4-.9-.9s.4-.9.9-.9H79c.5 0 .9.4.9.9-.1.5-.5.9-.9.9zm7.5 0h-3.3c-.5 0-.9-.4-.9-.9s.4-.9.9-.9h3.3c.5 0 .9.4.9.9-.1.5-.4.9-.9.9z"/><ellipse fill="#4D3330" cx="-48.3" cy="56.2" rx="9.1" ry="8.6"/><path fill="#F5CA48" d="M-41.2 56.2c0-3.9-3.2-7.1-7.1-7.1-3.9 0-7.1 3.2-7.1 7.1v7.3c0 3.9 3.2 7.1 7.1 7.1 3.9 0 7.1-3.2 7.1-7.1v-7.3z"/><path fill="#E9B846" d="M-48.3 49.1c-.4 0-.7 0-1.1.1l1.1 4.3s1.5 5.6 2 7c1 2.9-.9 2.6-2 2.6s0 7.5 0 7.5c3.9 0 7.1-3.2 7.1-7.1v-7.2c0-4-3.2-7.2-7.1-7.2z"/><path fill="#FFF" d="M-48.3 68.5c1.9 0 3.5-1.6 3.5-3.5h-7c0 1.9 1.6 3.5 3.5 3.5z"/><circle fill="#5E3E32" cx="-51.8" cy="59.8" r=".9"/><circle fill="#5E3E32" cx="-44.5" cy="59.8" r=".9"/><path fill="#6B3E3E" d="M-51.6 66.1c.5 1.4 1.8 2.4 3.3 2.4s2.8-1 3.3-2.4h-6.6z"/><path fill="#4D3330" d="M-56.2 57.6s3.6-1.6 4.9-2.7c1.3-1.1 1.5-2.3 1.5-2.3s1.5 3.6 4.1 4.2c2.6.6 4.7.2 4.7.2s.8-4.6-2.5-6.7-6.3-2.4-8.1-1.6-4.6 3.4-4.6 5.2v3.7z"/><ellipse transform="matrix(.821 -.571 .571 .821 -38.408 -21.019)" fill="#FFF" cx="-52.8" cy="50.8" rx="1.6" ry=".5"/><g><path fill="#4D3330" d="M5.8 62.7H11l-2-6.9c-.2-4.6-4.2-8.3-9-8.3-4.9 0-8.9 3.7-9 8.3l-2 6.9h5.2c1.6 1.3 3.6 2 5.8 2s4.2-.7 5.8-2z"/><path fill="#F5CA48" d="M7 56.2c0-3.9-3.2-7.1-7.1-7.1-3.9 0-7.1 3.2-7.1 7.1v7.3c0 3.9 3.2 7.1 7.1 7.1 3.9 0 7.1-3.2 7.1-7.1v-7.3z"/><path fill="#E9B846" d="M0 49.1c-.4 0-.7 0-1.1.1L0 53.5s1.5 5.6 2 7c1 2.9-.9 2.6-2 2.6s0 7.5 0 7.5c3.9 0 7.1-3.2 7.1-7.1v-7.2c-.1-4-3.2-7.2-7.1-7.2z"/><path fill="#FFF" d="M-.1 68.5c1.9 0 3.5-1.6 3.5-3.5h-7c0 1.9 1.6 3.5 3.5 3.5z"/><circle fill="#5E3E32" cx="-3.6" cy="59.8" r=".9"/><circle fill="#5E3E32" cx="3.8" cy="59.8" r=".9"/><path fill="#6B3E3E" d="M-3.4 66.1c.5 1.4 1.8 2.4 3.3 2.4s2.8-1 3.3-2.4h-6.6z"/><ellipse transform="matrix(.821 -.571 .571 .821 -29.783 6.512)" fill="#FFF" cx="-4.5" cy="50.8" rx="1.6" ry=".5"/><path fill="#4D3330" d="M-2.3 51.8S-.9 54.4 0 55c1.2.9 2.9.8 2.9.8l-1-.8s1.4.6 2.4.8c1.2.3 3 0 3 0s-.8-5.2-3.2-6c-2.4-.9-7.2-1.1-7.6-.6s-3.5 2.4-4 4.9c-.5 2.6-.5 3.3-.5 3.3s2.2-.8 3.1-2c.6-.8.5-.8.5-.8l-.6 1.3s1.5-1.1 2-2.1c.6-1.1.7-2 .7-2z"/></g></svg>