<?xml version="1.0" encoding="utf-8"?>
<!-- Generator: Adobe Illustrator 19.2.0, SVG Export Plug-In . SVG Version: 6.00 Build 0)  -->
<svg version="1.1" id="Layer_1" xmlns="http://www.w3.org/2000/svg" xmlns:xlink="http://www.w3.org/1999/xlink" x="0px" y="0px"
	 viewBox="0 0 26.2 23" style="enable-background:new 0 0 26.2 23;" xml:space="preserve">
<g>
	<path style="fill:#A94D2C;" d="M18.9,11.4c0,0,4.4,1.2,6.2,4.9c1.4,2.9,1.1,6.6,1.1,6.6h-6c0,0,2-5,0-7.9c-0.9-1.2-2.2-1.7-2.2-1.7
		L18.9,11.4z"/>
	<path style="fill:#A94D2C;" d="M7.3,11.4c0,0-4.4,1.2-6.2,4.9C-0.3,19.3,0,23,0,23h6c0,0-2-5,0-7.9c0.9-1.2,2.2-1.7,2.2-1.7
		L7.3,11.4z"/>
	<ellipse style="fill:#A94D2C;" cx="13.1" cy="8.6" rx="9.1" ry="8.6"/>
	<path style="fill:#FFCC37;" d="M20.2,8.6c0-3.9-3.2-7.1-7.1-7.1c-3.9,0-7.1,3.2-7.1,7.1v0.6h0v6.7c0,3.9,3.2,7.1,7.1,7.1
		c3.9,0,7.1-3.2,7.1-7.1v-1.5h0V8.6z"/>
	<path style="fill:#F7BD32;" d="M13.1,1.5c-0.4,0-0.7,0-1.1,0.1L13.1,6c0,0,1.5,5.6,2,7c1,2.9-0.9,2.6-2,2.6c-1.1,0,0,7.5,0,7.5
		c3.9,0,7.1-3.2,7.1-7.1v-1.5h0V8.6C20.2,4.7,17.1,1.5,13.1,1.5z"/>
	<path style="fill:#FFFFFF;" d="M13.1,20.9c1.9,0,3.5-1.6,3.5-3.5h-7C9.6,19.4,11.2,20.9,13.1,20.9z"/>
	<circle style="fill:#783827;" cx="9.6" cy="12.2" r="0.9"/>
	<circle style="fill:#783827;" cx="17" cy="12.2" r="0.9"/>
	<path style="fill:#842230;" d="M9.8,18.5c0.5,1.4,1.8,2.4,3.3,2.4s2.8-1,3.3-2.4H9.8z"/>
	<path style="fill:#A94D2C;" d="M10.8,1.5c0,0,1.7,1.6,2.3,3.5c0.7,2.2,0.1,3.1,0.1,3.1s3.2-0.4,5.7,1c1.3,0.7,1.5,1.3,1.5,1.3
		s0.4-4.8-0.9-6.5S16.8,1.3,14.8,1S10.8,1.5,10.8,1.5z"/>
	<path style="fill:#A94D2C;" d="M10.8,1.5c0,0,1.9,1.3,2,3.7c0,1.5-0.5,2.9-0.5,2.9s-1.4-0.3-3.8,0.3c-2,0.6-2.8,1.9-2.8,1.9
		S4.6,7,5.8,5.3S10.8,1.5,10.8,1.5z"/>
	
		<ellipse transform="matrix(0.8213 -0.5706 0.5706 0.8213 -0.5087 5.3376)" style="fill:#FFFFFF;" cx="8.3" cy="3.5" rx="1.6" ry="0.5"/>
</g>
</svg>
