<svg width="23" height="34" xmlns="http://www.w3.org/2000/svg" viewBox="0 0 16.9 24.9"><path fill="#5E3E32" d="M-142.1 59.5h18v3.7h-18z"/><path fill="#E9B846" d="M-140.2 53.9v9.9c0 3.9 3.2 7.1 7.1 7.1 3.9 0 7.1-3.2 7.1-7.1v-9.9h-14.2z"/><path fill="#F5CA48" d="M-133.1 63.5c1.1 0 3 .3 2-2.6-.5-1.4-2-7-2-7h-7.1v9.9c0 3.9 3.2 7.1 7.1 7.1 0 0-1.1-7.4 0-7.4z"/><path fill="#FFF" d="M-133.1 68.9c1.9 0 3.5-1.6 3.5-3.5h-7c0 1.9 1.5 3.5 3.5 3.5z"/><path fill="#5E3E32" d="M-130.1 54s-.6 2.4-3.9 2.7c-3.3.3-5.9 1.1-6.1 3.1-.2 2.1-.1 3.4-.1 3.4h-1.8s-1.7-14.2 8.9-14.2c10.8 0 9.1 14.2 9.1 14.2h-1.9s-.1-3-.1-4.5-1.4-1.6-2.6-2.6c-1.3-1-1.5-2.1-1.5-2.1z"/><circle fill="#5E3E32" cx="-136.6" cy="60.2" r=".9"/><circle fill="#5E3E32" cx="-128.7" cy="60.2" r=".9"/><ellipse transform="matrix(.821 -.571 .571 .821 -54.03 -68.86)" fill="#FFF" cx="-136.9" cy="51.8" rx="1.6" ry=".5"/><path fill="#6B3E3E" d="M-136.4 66.5c.5 1.4 1.8 2.4 3.3 2.4s2.8-1 3.3-2.4h-6.6z"/><path fill="#E9B846" d="M-70.3 9.7v9.9c0 3.9 3.2 7.1 7.1 7.1 3.9 0 7.1-3.2 7.1-7.1V9.7h-14.2z"/><path fill="#F5CA48" d="M-63.1 19.2c1.1 0 3 .3 2-2.6-.5-1.4-2-7-2-7h-7.1v9.9c0 3.9 3.2 7.1 7.1 7.1 0 .1-1.1-7.4 0-7.4z"/><path fill="none" stroke="#473421" stroke-linecap="round" stroke-miterlimit="10" d="M-65.9 22.7s1.1 1.1 2.5 1.1c1.7 0 2.7-1.1 2.7-1.1"/><path fill="#291D11" d="M-63.3 6.6h4.6l3.1-3.6v16.2s-1.6-.6-3.4-.3c-2.3.3-4 2.3-4 2.3h-.6s-1.7-2-4-2.3c-1.8-.2-3.4.3-3.4.3V3l3.1 3.6h4.6"/><path fill="#FFF" d="M-68.7 15.1l3.5 1.5s-.9 1.2-1.7.8c-.9-.4-1.8-2.3-1.8-2.3zm11 0l-3.5 1.5s.9 1.2 1.7.8c.9-.4 1.8-2.3 1.8-2.3z"/><circle fill="#F5CA48" cx="-141.9" cy="14.4" r="2.6"/><circle fill="#E9B846" cx="-128" cy="14.4" r="2.6"/><path fill="#F5CA48" d="M-127.8 11.1c0-3.9-3.2-7.1-7.1-7.1-3.9 0-7.1 3.2-7.1 7.1v7.3c0 3.9 3.2 7.1 7.1 7.1 3.9 0 7.1-3.2 7.1-7.1v-7.3z"/><path fill="#E9B846" d="M-134.8 4c-.4 0-.7 0-1.1.1l1.1 4.3s1.5 5.6 2 7c1 2.9-.9 2.6-2 2.6s0 7.5 0 7.5c3.9 0 7.1-3.2 7.1-7.1v-7.2c-.1-4-3.2-7.2-7.1-7.2z"/><path fill="#FFF" d="M-134.9 23.4c1.9 0 3.5-1.6 3.5-3.5h-7c0 1.9 1.6 3.5 3.5 3.5z"/><circle fill="#5E3E32" cx="-138.4" cy="14.7" r=".9"/><circle fill="#5E3E32" cx="-131" cy="14.7" r=".9"/><ellipse transform="matrix(.821 -.571 .571 .821 -28.629 -77.793)" fill="#FFF" cx="-138.5" cy="6.8" rx="1.6" ry=".5"/><path fill="#6B3E3E" d="M-138.2 21c.5 1.4 1.8 2.4 3.3 2.4s2.8-1 3.3-2.4h-6.6z"/><path fill="none" stroke="#473421" stroke-width=".5" stroke-miterlimit="10" d="M-137.4 16.8h-2.7c-.6 0-1.2-.5-1.2-1.2v-2c0-.6.5-1.2 1.2-1.2h2.7c.6 0 1.2.5 1.2 1.2v2c-.1.7-.6 1.2-1.2 1.2zm8.2 0h-2.7c-.6 0-1.2-.5-1.2-1.2v-2c0-.6.5-1.2 1.2-1.2h2.7c.6 0 1.2.5 1.2 1.2v2c-.1.7-.6 1.2-1.2 1.2z"/><path fill="none" stroke="#473421" stroke-width=".5" stroke-miterlimit="10" d="M-136.3 14.8s.7-1 1.6-1c.9 0 1.6.8 1.6.8"/><circle fill="#5E3E32" cx="-20.2" cy="10.9" r="1.9"/><circle fill="#5E3E32" cx="-20.2" cy="14.7" r="1.9"/><circle fill="#5E3E32" cx="-34.7" cy="10.7" r="1.9"/><circle fill="#5E3E32" cx="-34.7" cy="14.4" r="1.9"/><path fill="#E9B846" d="M-34.3 8.7v9.9c0 3.9 3.2 7.1 7.1 7.1 3.9 0 7.1-3.2 7.1-7.1V8.7h-14.2z"/><path fill="#F5CA48" d="M-27.3 18.2c1.1 0 3 .3 2-2.6-.5-1.4-2-7-2-7h-7.1v9.9c0 3.9 3.2 7.1 7.1 7.1 0 .1-1.1-7.4 0-7.4z"/><circle fill="#5E3E32" cx="-30.8" cy="14.9" r=".9"/><circle fill="#5E3E32" cx="-22.8" cy="14.9" r=".9"/><path fill="#5E3E32" d="M-23.3 19.6c-.1-.3-.4-.5-.8-.5h-6.2c-.4 0-.7.2-.8.5 0 .1-.1.2-.1.3v4.9c0 .5.4.9.9.9s.9-.4.9-.9v-4h4.5v4c0 .5.4.9.9.9s.9-.4.9-.9v-4.9c-.2-.1-.2-.2-.2-.3z"/><circle fill="#5E3E32" cx="-29.1" cy="8.6" r="1.9"/><circle fill="#5E3E32" cx="-25.4" cy="8.6" r="1.9"/><circle fill="#5E3E32" cx="-21.7" cy="8.6" r="1.9"/><circle fill="#5E3E32" cx="-32.8" cy="8.6" r="1.9"/><circle fill="#5E3E32" cx="-29.1" cy="6.5" r="1.9"/><circle fill="#5E3E32" cx="-34.7" cy="7" r="1.9"/><circle fill="#5E3E32" cx="-20.2" cy="7.2" r="1.9"/><circle fill="#5E3E32" cx="-30.9" cy="3.5" r="1.9"/><circle fill="#5E3E32" cx="-27.3" cy="3.5" r="1.9"/><circle fill="#5E3E32" cx="-23.6" cy="3.5" r="1.9"/><path fill="#5E3E32" d="M-34.3 3.6c-.1.2-.3 3.1-.3 3.1l1.4 1.6 2.5.5 9.5-.6 1.1-2.7-.3-1.6-2-.5h-5.7l-6.2.2z"/><circle fill="#5E3E32" cx="-21.1" cy="5" r="1.9"/><circle fill="#5E3E32" cx="-33.5" cy="4.6" r="1.9"/><ellipse transform="matrix(.821 -.571 .571 .821 -8.919 -17.769)" fill="#FFF" cx="-32.8" cy="5.4" rx="1.6" ry=".5"/><path fill="#5E3E32" d="M-89.5 110h18.2v10.3h-18.2z"/><path fill="#E9B846" d="M-87.6 103.3v9.9c0 3.9 3.2 7.1 7.1 7.1 3.9 0 7.1-3.2 7.1-7.1v-9.9h-14.2z"/><path fill="#F5CA48" d="M-80.5 112.8c1.1 0 3 .3 2-2.6-.5-1.4-2-7-2-7h-7.1v9.9c0 3.9 3.2 7.1 7.1 7.1 0 .1-1.1-7.4 0-7.4z"/><path fill="#5E3E32" d="M-77.4 103.5s-.6 2.4-3.9 2.7c-3.3.3-5.9 1.1-6.1 3.1-.2 2.1-.1 3.4-.1 3.4h-1.8s-1.7-14.2 8.9-14.2c10.8 0 9.1 14.2 9.1 14.2h-1.9s-.1-3-.1-4.5-1.4-1.6-2.6-2.6c-1.4-1-1.5-2.1-1.5-2.1z"/><circle fill="#5E3E32" cx="-84" cy="109.5" r=".9"/><circle fill="#5E3E32" cx="-76" cy="109.5" r=".9"/><ellipse transform="matrix(.821 -.571 .571 .821 -72.769 -30.01)" fill="#FFF" cx="-84.3" cy="101.1" rx="1.6" ry=".5"/><path fill="#FFF" d="M-80 118.4c1.9 0 3.5-1.6 3.5-3.5h-7c0 1.9 1.5 3.5 3.5 3.5z"/><path fill="#6B3E3E" d="M-83.3 116c.5 1.4 1.8 2.4 3.3 2.4s2.8-1 3.3-2.4h-6.6z"/><path fill="#71A266" d="M18.8 56.5c0-3.9-3.2-7.1-7.1-7.1-3.9 0-7.1 3.2-7.1 7.1v7.3c0 3.9 3.2 7.1 7.1 7.1 3.9 0 7.1-3.2 7.1-7.1v-7.3z"/><path fill="#628F59" d="M11.7 49.5c-.4 0-.7 0-1.1.1l1.1 4.3s1.5 5.6 2 7c1 2.9-.9 2.6-2 2.6s0 7.5 0 7.5c3.9 0 7.1-3.2 7.1-7.1v-7.2c0-4.1-3.2-7.2-7.1-7.2z"/><path fill="#FFF" d="M11.7 68.9c1.9 0 3.5-1.6 3.5-3.5h-7c-.1 1.9 1.5 3.5 3.5 3.5z"/><ellipse transform="matrix(.821 -.571 .571 .821 -28.387 13.933)" fill="#9BC391" cx="8" cy="52.3" rx="1.6" ry=".5"/><path fill="#2E3D2F" d="M8.4 66.5c.5 1.4 1.8 2.4 3.3 2.4s2.8-1 3.3-2.4H8.4z"/><ellipse transform="matrix(.726 .688 -.688 .726 42.609 10.839)" fill="#2E3D2F" cx="7.7" cy="58.9" rx="2.2" ry="1.2"/><ellipse transform="matrix(-.726 .688 -.688 -.726 68.327 90.474)" fill="#2E3D2F" cx="16.1" cy="58.9" rx="2.2" ry="1.2"/><ellipse fill="#B19A4E" cx="-28.9" cy="106.9" rx="9.1" ry="8.6"/><path fill="#B19A4E" d="M-37.9 107.2h18.1v13.2h-18.1z"/><path fill="#F5CA48" d="M-21.8 106.9c0-3.9-3.2-7.1-7.1-7.1-3.9 0-7.1 3.2-7.1 7.1v7.3c0 3.9 3.2 7.1 7.1 7.1 3.9 0 7.1-3.2 7.1-7.1v-7.3z"/><path fill="#E9B846" d="M-28.9 99.8c-.4 0-.7 0-1.1.1l1.1 4.3s1.5 5.6 2 7c1 2.9-.9 2.6-2 2.6s0 7.5 0 7.5c3.9 0 7.1-3.2 7.1-7.1V107c0-4-3.1-7.2-7.1-7.2z"/><path fill="#FFF" d="M-28.9 119.2c1.9 0 3.5-1.6 3.5-3.5h-7c0 2 1.6 3.5 3.5 3.5z"/><circle fill="#5E3E32" cx="-32.4" cy="110.5" r=".9"/><circle fill="#5E3E32" cx="-25.1" cy="110.5" r=".9"/><path fill="#6B3E3E" d="M-32.2 116.8c.5 1.4 1.8 2.4 3.3 2.4s2.8-1 3.3-2.4h-6.6z"/><path fill="#B19A4E" d="M-36.7 108.3s3.6-1.6 4.9-2.7c1.3-1.1 1.5-2.3 1.5-2.3s1.5 3.6 4.1 4.2 4.7.2 4.7.2.8-4.6-2.5-6.7c-3.3-2.1-6.3-2.4-8.1-1.6s-4.6 3.4-4.6 5.2c-.1 1.9 0 3.7 0 3.7z"/><path d="M-21.7 106.6l-1.4 1.9-1.7-2.9 2.3-.3m2.6.3l2.3-.3-1.7-2.9-1.4 1.9m.4 1.9l-.7.4c-.3.2-.8.1-.9-.2l-.4-.7c-.2-.3-.1-.8.2-.9l.7-.4c.3-.2.8-.1.9.2l.4.7c.3.3.1.7-.2.9z" fill="#B04F46"/><ellipse transform="matrix(.821 -.571 .571 .821 -63.788 -.889)" fill="#FFF" cx="-33.3" cy="101.4" rx="1.6" ry=".5"/><ellipse fill="#8F5741" cx="25.1" cy="107.1" rx="9.1" ry="8.6"/><path fill="#F5CA48" d="M32.2 107.1c0-3.9-3.2-7.1-7.1-7.1-3.9 0-7.1 3.2-7.1 7.1v7.3c0 3.9 3.2 7.1 7.1 7.1 3.9 0 7.1-3.2 7.1-7.1v-7.3z"/><path fill="#E9B846" d="M25.1 100c-.4 0-.7 0-1.1.1l1.1 4.3s1.5 5.6 2 7c1 2.9-.9 2.6-2 2.6s0 7.5 0 7.5c3.9 0 7.1-3.2 7.1-7.1v-7.2c0-4-3.2-7.2-7.1-7.2z"/><path fill="#FFF" d="M25.1 119.4c1.9 0 3.5-1.6 3.5-3.5h-7c0 2 1.5 3.5 3.5 3.5z"/><circle fill="#5E3E32" cx="21.6" cy="110.7" r=".9"/><circle fill="#5E3E32" cx="28.9" cy="110.7" r=".9"/><path fill="#6B3E3E" d="M21.8 117c.5 1.4 1.8 2.4 3.3 2.4s2.8-1 3.3-2.4h-6.6z"/><path fill="#8F5741" d="M17.2 108.5s3.6-1.6 4.9-2.7c1.3-1.1 1.5-2.3 1.5-2.3s1.5 3.6 4.1 4.2c2.6.6 4.7.2 4.7.2s.8-4.6-2.5-6.7-6.3-2.4-8.1-1.6c-1.8.8-4.6 3.4-4.6 5.2v3.7z"/><path fill="#8F5741" d="M18.3 107.2s-.9 3.8.5 6.8c.8 1.8 1.4 2.8 1.4 2.8s-3.8-1.3-5.1-4.5c-1.2-3.2.6-8.2 2.7-10.3 1.4-1.4 1.8 2.8 1.8 2.8l-1.3 2.4zm13.6.3s.8 2.3-.3 5.4c-.6 1.5-1.7 3.1-1.7 3.1s3-1 4-2.6c1.6-2.5 2.1-8-.8-11-2-2.1-4.5-2.4-4.5-2.4l3.3 7.5z"/><ellipse transform="matrix(.821 -.571 .571 .821 -54.359 29.956)" fill="#FFF" cx="20.6" cy="101.7" rx="1.6" ry=".5"/><ellipse fill="#5E3E32" cx="-99.1" cy="9.6" rx="8.2" ry="7.8"/><path fill="#E9B846" d="M-106.2 8.6v9.9c0 3.9 3.2 7.1 7.1 7.1 3.9 0 7.1-3.2 7.1-7.1V8.6h-14.2z"/><path fill="#F5CA48" d="M-99.1 18.1c1.1 0 3 .3 2-2.6-.5-1.4-2-7-2-7h-7.1v9.9c0 3.9 3.2 7.1 7.1 7.1 0 .1-1.2-7.4 0-7.4z"/><circle fill="#5E3E32" cx="-94.7" cy="14.8" r=".9"/><path fill="#5E3E32" d="M-94.3 21.3c-1.1 0-2.7-1.9-4.8-1.9-2.1 0-3.7 1.9-4.8 1.9s-2.3-2.6-2.3-2.6.2 7.1 5.8 7.1h2.5c5.7 0 5.8-7.1 5.8-7.1s-1.2 2.6-2.2 2.6zm-4.9 2.9c-1.7 0-3.1-.9-3.1-1.9 0-1.1 1.4-1.9 3.1-1.9s3.1.9 3.1 1.9c0 1.1-1.4 1.9-3.1 1.9z"/><circle fill="#5E3E32" cx="-102.5" cy="14.8" r=".9"/><path fill="#5E3E32" d="M-92 9.1h1.1v7.2H-92zm-15.3 0h1.1v6.6h-1.1z"/><path fill="#5E3E32" d="M-102.5 8.8s1.2 1.2 2.5 2c1.2.8 3.6.8 4.7.7s3.2-.6 3.3.8c.2 1.3.6 1 .6 1s.5-4.2 0-5.1S-97.5 6-97.5 6s-8.2 1-8.6 1.4c-.4.5-.9 4-.9 5s1.1-.2 2.1-1 2.4-2.6 2.4-2.6z"/><ellipse transform="matrix(.821 -.571 .571 .821 -21.325 -58.146)" fill="#FFF" cx="-103.5" cy="5" rx="1.6" ry=".5"/><path fill="#5E3E32" d="M14.2 15.1H1.6c-.9 0-1.6-.7-1.6-1.6V7.8c0-.9.7-1.6 1.6-1.6h12.6c.9 0 1.6.7 1.6 1.6v5.7c0 .8-.7 1.6-1.6 1.6z"/><path fill="#F5CA48" d="M15 10.6c0-3.9-3.2-7.1-7.1-7.1C4 3.5.8 6.7.8 10.6v7.3C.8 21.8 4 25 7.9 25c3.9 0 7.1-3.2 7.1-7.1v-7.3z"/><path fill="#E9B846" d="M7.9 3.5c-.4 0-.7 0-1.1.1l1.1 4.3s1.5 5.6 2 7c1 2.9-.9 2.6-2 2.6s0 7.5 0 7.5c3.9 0 7.1-3.2 7.1-7.1v-7.2c0-4-3.2-7.2-7.1-7.2z"/><circle fill="#5E3E32" cx="3.9" cy="13.3" r=".9"/><circle fill="#5E3E32" cx="11.9" cy="13.3" r=".9"/><path fill="#FFF" d="M7.9 23.1c1.9 0 3.5-1.6 3.5-3.5h-7c0 1.9 1.5 3.5 3.5 3.5z"/><path fill="#6B3E3E" d="M4.6 20.7c.5 1.4 1.8 2.4 3.3 2.4s2.8-1 3.3-2.4H4.6z"/><path fill="#5E3E32" d="M.3 5c0 5.2 6.4 4.9 9.4 4.9 10 0 6.8-8.5 6.4-9.7-.4-1.1-.9 2.3-3.6 2.7s-4.2-1.4-7-1.4C3 1.6.3 2.2.3 5z"/><ellipse transform="matrix(.821 -.571 .571 .821 -1.909 3.054)" fill="#FFF" cx="3.9" cy="4.6" rx="1.6" ry=".5"/><circle fill="#281B18" cx="-133.1" cy="105.4" r="9.4"/><path fill="#281B18" d="M-142.5 105.2h18.7v14.9h-18.7z"/><path fill="#F5CA48" d="M-126 105.8c0-3.9-3.2-7.1-7.1-7.1-3.9 0-7.1 3.2-7.1 7.1v7.3c0 3.9 3.2 7.1 7.1 7.1 3.9 0 7.1-3.2 7.1-7.1v-7.3z"/><path fill="#E9B846" d="M-133.1 98.7c-.4 0-.7 0-1.1.1l1.1 4.3s1.5 5.6 2 7c1 2.9-.9 2.6-2 2.6s0 7.5 0 7.5c3.9 0 7.1-3.2 7.1-7.1v-7.2c0-4.1-3.2-7.2-7.1-7.2z"/><path fill="#FFF" d="M-133.1 118.1c1.9 0 3.5-1.6 3.5-3.5h-7c0 1.9 1.6 3.5 3.5 3.5z"/><path fill="#6B3E3E" d="M-136.4 115.7c.5 1.4 1.8 2.4 3.3 2.4s2.8-1 3.3-2.4h-6.6z"/><circle fill="#5E3E32" cx="-136.9" cy="109.6" r=".9"/><circle fill="#5E3E32" cx="-129.1" cy="109.6" r=".9"/><path fill="#281B18" d="M-141 105.4h15.8s-2-6-5.4-6.9c-3.4-.9-5.5-.9-7 .4-1.6 1.2-3.4 6.5-3.4 6.5z"/><ellipse transform="matrix(.821 -.571 .571 .821 -82.771 -60.869)" fill="#FFF" cx="-138.5" cy="101.7" rx="1.6" ry=".5"/><path fill="#473421" d="M49 18.5h-9.1c-2.3 0-4.2-1.9-4.2-4.2v-2.7c0-2.3 1.9-4.2 4.2-4.2H49c2.3 0 4.2 1.9 4.2 4.2v2.7c0 2.4-1.9 4.2-4.2 4.2z"/><circle fill="#F5CA48" cx="37.4" cy="14.1" r="2.6"/><circle fill="#E9B846" cx="51.3" cy="14.1" r="2.6"/><path fill="#F5CA48" d="M51.5 10.7c0-3.9-3.2-7.1-7.1-7.1-3.9 0-7.1 3.2-7.1 7.1V18c0 3.9 3.2 7.1 7.1 7.1 3.9 0 7.1-3.2 7.1-7.1v-7.3z"/><path fill="#E9B846" d="M44.5 3.6c-.4 0-.7 0-1.1.1L44.5 8s1.5 5.6 2 7c1 2.9-.9 2.6-2 2.6s0 7.5 0 7.5c3.9 0 7.1-3.2 7.1-7.1v-7.2c-.1-4-3.2-7.2-7.1-7.2z"/><path fill="#FFF" d="M44.4 23c1.9 0 3.5-1.6 3.5-3.5h-7c0 1.9 1.6 3.5 3.5 3.5z"/><circle fill="#5E3E32" cx="40.7" cy="14.3" r=".9"/><circle fill="#5E3E32" cx="48.3" cy="14.3" r=".9"/><ellipse transform="matrix(.821 -.571 .571 .821 3.623 24.441)" fill="#FFF" cx="40.8" cy="6.4" rx="1.6" ry=".5"/><path fill="#6B3E3E" d="M41.1 20.6c.5 1.4 1.8 2.4 3.3 2.4s2.8-1 3.3-2.4h-6.6z"/><path fill="#473421" d="M42.4 11.8h-3.3c-.5 0-.9-.4-.9-.9s.4-.9.9-.9h3.3c.5 0 .9.4.9.9s-.4.9-.9.9zm7.5 0h-3.3c-.5 0-.9-.4-.9-.9s.4-.9.9-.9h3.3c.5 0 .9.4.9.9s-.4.9-.9.9z"/><ellipse fill="#4D3330" cx="-84.8" cy="57.7" rx="9.1" ry="8.6"/><path fill="#F5CA48" d="M-77.8 57.7c0-3.9-3.2-7.1-7.1-7.1-3.9 0-7.1 3.2-7.1 7.1V65c0 3.9 3.2 7.1 7.1 7.1 3.9 0 7.1-3.2 7.1-7.1v-7.3z"/><path fill="#E9B846" d="M-84.8 50.7c-.4 0-.7 0-1.1.1l1.1 4.3s1.5 5.6 2 7c1 2.9-.9 2.6-2 2.6s0 7.5 0 7.5c3.9 0 7.1-3.2 7.1-7.1v-7.2c-.1-4.1-3.2-7.2-7.1-7.2z"/><path fill="#FFF" d="M-84.9 70.1c1.9 0 3.5-1.6 3.5-3.5h-7c0 1.9 1.6 3.5 3.5 3.5z"/><circle fill="#5E3E32" cx="-88.4" cy="61.3" r=".9"/><circle fill="#5E3E32" cx="-81" cy="61.3" r=".9"/><path fill="#6B3E3E" d="M-88.2 67.7c.5 1.4 1.8 2.4 3.3 2.4s2.8-1 3.3-2.4h-6.6z"/><path fill="#4D3330" d="M-92.7 59.1s3.6-1.6 4.9-2.7c1.3-1.1 1.5-2.3 1.5-2.3s1.5 3.6 4.1 4.2c2.6.6 4.7.2 4.7.2s.8-4.6-2.5-6.7-6.3-2.4-8.1-1.6c-1.8.8-4.6 3.4-4.6 5.2-.1 1.9 0 3.7 0 3.7z"/><ellipse transform="matrix(.821 -.571 .571 .821 -45.83 -41.594)" fill="#FFF" cx="-89.3" cy="52.3" rx="1.6" ry=".5"/><path fill="#4D3330" d="M-30.8 64.3h5.2l-2-6.9c-.2-4.6-4.2-8.3-9-8.3-4.9 0-8.9 3.7-9 8.3l-2 6.9h5.2c1.6 1.3 3.6 2 5.8 2s4.3-.7 5.8-2z"/><path fill="#F5CA48" d="M-29.5 57.7c0-3.9-3.2-7.1-7.1-7.1-3.9 0-7.1 3.2-7.1 7.1V65c0 3.9 3.2 7.1 7.1 7.1 3.9 0 7.1-3.2 7.1-7.1v-7.3z"/><path fill="#E9B846" d="M-36.6 50.7c-.4 0-.7 0-1.1.1l1.1 4.3s1.5 5.6 2 7c1 2.9-.9 2.6-2 2.6s0 7.5 0 7.5c3.9 0 7.1-3.2 7.1-7.1v-7.2c0-4.1-3.2-7.2-7.1-7.2z"/><path fill="#FFF" d="M-36.6 70.1c1.9 0 3.5-1.6 3.5-3.5h-7c0 1.9 1.6 3.5 3.5 3.5z"/><circle fill="#5E3E32" cx="-40.1" cy="61.3" r=".9"/><circle fill="#5E3E32" cx="-32.8" cy="61.3" r=".9"/><path fill="#6B3E3E" d="M-39.9 67.7c.5 1.4 1.8 2.4 3.3 2.4s2.8-1 3.3-2.4h-6.6z"/><ellipse transform="matrix(.821 -.571 .571 .821 -37.206 -14.063)" fill="#FFF" cx="-41" cy="52.3" rx="1.6" ry=".5"/><path fill="#4D3330" d="M-38.9 53.4s1.4 2.6 2.3 3.2c1.2.9 2.9.8 2.9.8l-.9-.8s1.4.6 2.4.8c1.2.3 3 0 3 0s-.8-5.2-3.2-6c-2.4-.9-7.2-1.1-7.6-.6s-3.5 2.4-4 4.9c-.5 2.6-.5 3.3-.5 3.3s2.2-.8 3.1-2c.6-.8.5-.8.5-.8l-.5 1.3s1.5-1.1 2-2.1c.4-1.1.5-2 .5-2z"/></svg>