<svg width="29" height="31" xmlns="http://www.w3.org/2000/svg" viewBox="0 0 20.3 23"><path fill="#5E3E32" d="M-104.2-38.8h18v3.7h-18z"/><path fill="#E9B846" d="M-102.3-44.4v9.9c0 3.9 3.2 7.1 7.1 7.1 3.9 0 7.1-3.2 7.1-7.1v-9.9h-14.2z"/><path fill="#F5CA48" d="M-95.2-34.8c1.1 0 3 .3 2-2.6-.5-1.4-2-7-2-7h-7.1v9.9c0 3.9 3.2 7.1 7.1 7.1 0 0-1.1-7.4 0-7.4z"/><path fill="#FFF" d="M-95.2-29.4c1.9 0 3.5-1.6 3.5-3.5h-7c0 1.9 1.6 3.5 3.5 3.5z"/><path fill="#5E3E32" d="M-92.2-44.3s-.6 2.4-3.9 2.7c-3.3.3-5.9 1.1-6.1 3.1-.2 2.1-.1 3.4-.1 3.4h-1.8s-1.7-14.2 8.9-14.2c10.8 0 9.1 14.2 9.1 14.2H-88s-.1-3-.1-4.5-1.4-1.6-2.6-2.6c-1.3-1-1.5-2.1-1.5-2.1z"/><circle fill="#5E3E32" cx="-98.7" cy="-38.1" r=".9"/><circle fill="#5E3E32" cx="-90.8" cy="-38.1" r=".9"/><ellipse transform="matrix(.821 -.571 .571 .821 8.834 -64.803)" fill="#FFF" cx="-99" cy="-46.5" rx="1.6" ry=".5"/><path fill="#6B3E3E" d="M-98.5-31.8c.5 1.4 1.8 2.4 3.3 2.4s2.8-1 3.3-2.4h-6.6z"/><path fill="#E9B846" d="M-32.4-88.6v9.9c0 3.9 3.2 7.1 7.1 7.1 3.9 0 7.1-3.2 7.1-7.1v-9.9h-14.2z"/><path fill="#F5CA48" d="M-25.2-79.1c1.1 0 3 .3 2-2.6-.5-1.4-2-7-2-7h-7.1v9.9c0 3.9 3.2 7.1 7.1 7.1 0 .1-1.1-7.4 0-7.4z"/><path fill="none" stroke="#473421" stroke-linecap="round" stroke-miterlimit="10" d="M-28-75.6s1.1 1.1 2.5 1.1c1.7 0 2.7-1.1 2.7-1.1"/><path fill="#291D11" d="M-25.4-91.7h4.6l3.1-3.6v16.2s-1.6-.6-3.4-.3c-2.3.3-4 2.3-4 2.3h-.6s-1.7-2-4-2.3c-1.8-.2-3.4.3-3.4.3v-16.2l3.1 3.6h4.6"/><path fill="#FFF" d="M-30.8-83.2l3.5 1.5s-.9 1.2-1.7.8-1.8-2.3-1.8-2.3zm11 0l-3.5 1.5s.9 1.2 1.7.8 1.8-2.3 1.8-2.3z"/><circle fill="#F5CA48" cx="-104" cy="-83.9" r="2.6"/><circle fill="#E9B846" cx="-90.1" cy="-83.9" r="2.6"/><path fill="#F5CA48" d="M-89.8-87.2c0-3.9-3.2-7.1-7.1-7.1-3.9 0-7.1 3.2-7.1 7.1v7.3c0 3.9 3.2 7.1 7.1 7.1 3.9 0 7.1-3.2 7.1-7.1v-7.3z"/><path fill="#E9B846" d="M-96.9-94.3c-.4 0-.7 0-1.1.1l1.1 4.3s1.5 5.6 2 7c1 2.9-.9 2.6-2 2.6s0 7.5 0 7.5c3.9 0 7.1-3.2 7.1-7.1v-7.2c0-4.1-3.2-7.2-7.1-7.2z"/><path fill="#FFF" d="M-96.9-74.9c1.9 0 3.5-1.6 3.5-3.5h-7c-.1 1.9 1.5 3.5 3.5 3.5z"/><circle fill="#5E3E32" cx="-100.5" cy="-83.6" r=".9"/><circle fill="#5E3E32" cx="-93.1" cy="-83.6" r=".9"/><ellipse transform="matrix(.821 -.571 .571 .821 34.235 -73.736)" fill="#FFF" cx="-100.6" cy="-91.5" rx="1.6" ry=".5"/><path fill="#6B3E3E" d="M-100.2-77.3c.5 1.4 1.8 2.4 3.3 2.4s2.8-1 3.3-2.4h-6.6z"/><path fill="none" stroke="#473421" stroke-width=".5" stroke-miterlimit="10" d="M-99.5-81.5h-2.7c-.6 0-1.2-.5-1.2-1.2v-2c0-.6.5-1.2 1.2-1.2h2.7c.6 0 1.2.5 1.2 1.2v2c-.1.7-.6 1.2-1.2 1.2zm8.2 0H-94c-.6 0-1.2-.5-1.2-1.2v-2c0-.6.5-1.2 1.2-1.2h2.7c.6 0 1.2.5 1.2 1.2v2c0 .7-.6 1.2-1.2 1.2z"/><path fill="none" stroke="#473421" stroke-width=".5" stroke-miterlimit="10" d="M-98.4-83.5s.7-1 1.6-1c.9 0 1.6.8 1.6.8"/><circle fill="#5E3E32" cx="17.8" cy="-87.4" r="1.9"/><circle fill="#5E3E32" cx="17.8" cy="-83.6" r="1.9"/><circle fill="#5E3E32" cx="3.3" cy="-87.6" r="1.9"/><circle fill="#5E3E32" cx="3.3" cy="-83.9" r="1.9"/><path fill="#E9B846" d="M3.6-89.6v9.9c0 3.9 3.2 7.1 7.1 7.1 3.9 0 7.1-3.2 7.1-7.1v-9.9H3.6z"/><path fill="#F5CA48" d="M10.7-80.1c1.1 0 3 .3 2-2.6-.5-1.4-2-7-2-7H3.6v9.9c0 3.9 3.2 7.1 7.1 7.1 0 .1-1.2-7.4 0-7.4z"/><circle fill="#5E3E32" cx="7.1" cy="-83.4" r=".9"/><circle fill="#5E3E32" cx="15.1" cy="-83.4" r=".9"/><path fill="#5E3E32" d="M14.6-78.7c-.1-.3-.4-.5-.8-.5H7.6c-.4 0-.7.2-.8.5 0 .1-.1.2-.1.3v4.9c0 .5.4.9.9.9s.9-.4.9-.9v-4H13v4c0 .5.4.9.9.9s.9-.4.9-.9v-4.9c-.2-.1-.2-.2-.2-.3z"/><circle fill="#5E3E32" cx="8.8" cy="-89.7" r="1.9"/><circle fill="#5E3E32" cx="12.5" cy="-89.7" r="1.9"/><circle fill="#5E3E32" cx="16.2" cy="-89.7" r="1.9"/><circle fill="#5E3E32" cx="5.1" cy="-89.7" r="1.9"/><circle fill="#5E3E32" cx="8.8" cy="-91.8" r="1.9"/><circle fill="#5E3E32" cx="3.3" cy="-91.3" r="1.9"/><circle fill="#5E3E32" cx="17.8" cy="-91.2" r="1.9"/><circle fill="#5E3E32" cx="7" cy="-94.8" r="1.9"/><circle fill="#5E3E32" cx="10.7" cy="-94.8" r="1.9"/><circle fill="#5E3E32" cx="14.3" cy="-94.8" r="1.9"/><path fill="#5E3E32" d="M3.6-94.7c-.1.2-.3 3.1-.3 3.1L4.6-90l2.5.5 9.5-.6 1.1-2.7-.3-1.6-2-.5H9.7l-6.1.2z"/><circle fill="#5E3E32" cx="16.8" cy="-93.3" r="1.9"/><circle fill="#5E3E32" cx="4.4" cy="-93.7" r="1.9"/><ellipse transform="matrix(.821 -.571 .571 .821 53.945 -13.711)" fill="#FFF" cx="5.1" cy="-93" rx="1.6" ry=".5"/><path fill="#5E3E32" d="M-51.6 11.7h18.2V22h-18.2z"/><path fill="#E9B846" d="M-49.7 5v9.9c0 3.9 3.2 7.1 7.1 7.1 3.9 0 7.1-3.2 7.1-7.1V5h-14.2z"/><path fill="#F5CA48" d="M-42.6 14.5c1.1 0 3 .3 2-2.6-.5-1.4-2-7-2-7h-7.1v9.9c0 3.9 3.2 7.1 7.1 7.1 0 .1-1.1-7.4 0-7.4z"/><path fill="#5E3E32" d="M-39.5 5.2s-.6 2.4-3.9 2.7-5.9 1.1-6.1 3.1-.1 3.4-.1 3.4h-1.8S-53.1.2-42.5.2c10.8 0 9.1 14.2 9.1 14.2h-1.9s-.1-3-.1-4.5-1.4-1.6-2.6-2.6c-1.4-1-1.5-2.1-1.5-2.1z"/><circle fill="#5E3E32" cx="-46.1" cy="11.2" r=".9"/><circle fill="#5E3E32" cx="-38.1" cy="11.2" r=".9"/><ellipse transform="matrix(.821 -.571 .571 .821 -9.905 -25.953)" fill="#FFF" cx="-46.4" cy="2.8" rx="1.6" ry=".5"/><path fill="#FFF" d="M-42.1 20.1c1.9 0 3.5-1.6 3.5-3.5h-7c0 1.9 1.5 3.5 3.5 3.5z"/><path fill="#6B3E3E" d="M-45.4 17.7c.5 1.4 1.8 2.4 3.3 2.4s2.8-1 3.3-2.4h-6.6z"/><path fill="#71A266" d="M56.7-41.8c0-3.9-3.2-7.1-7.1-7.1-3.9 0-7.1 3.2-7.1 7.1v7.3c0 3.9 3.2 7.1 7.1 7.1 3.9 0 7.1-3.2 7.1-7.1v-7.3z"/><path fill="#628F59" d="M49.6-48.8c-.4 0-.7 0-1.1.1l1.1 4.3s1.5 5.6 2 7c1 2.9-.9 2.6-2 2.6s0 7.5 0 7.5c3.9 0 7.1-3.2 7.1-7.1v-7.3c0-4-3.2-7.1-7.1-7.1z"/><path fill="#FFF" d="M49.6-29.4c1.9 0 3.5-1.6 3.5-3.5h-7c0 1.9 1.5 3.5 3.5 3.5z"/><ellipse transform="matrix(.821 -.571 .571 .821 34.477 17.99)" fill="#9BC391" cx="46" cy="-46" rx="1.6" ry=".5"/><path fill="#2E3D2F" d="M46.3-31.8c.5 1.4 1.8 2.4 3.3 2.4s2.8-1 3.3-2.4h-6.6z"/><ellipse transform="matrix(.726 .688 -.688 .726 -14.626 -42.206)" fill="#2E3D2F" cx="45.6" cy="-39.4" rx="2.2" ry="1.2"/><ellipse transform="matrix(-.726 .688 -.688 -.726 66.111 -105.25)" fill="#2E3D2F" cx="54" cy="-39.4" rx="2.2" ry="1.2"/><ellipse fill="#B19A4E" cx="9.1" cy="8.6" rx="9.1" ry="8.6"/><path fill="#B19A4E" d="M0 8.9h18.1v13.2H0z"/><path fill="#F5CA48" d="M16.1 8.6c0-3.9-3.2-7.1-7.1-7.1-3.9 0-7 3.2-7 7.1v7.3C2 19.8 5.1 23 9 23s7.1-3.2 7.1-7.1V8.6z"/><path fill="#E9B846" d="M9.1 1.5c-.4 0-.7 0-1.1.1L9 6s1.5 5.6 2 7c1 2.9-.9 2.6-2 2.6s0 7.5 0 7.5c3.9 0 7.1-3.2 7.1-7.1V8.6c0-3.9-3.1-7.1-7-7.1z"/><path fill="#FFF" d="M9 20.9c1.9 0 3.5-1.6 3.5-3.5h-7c0 2 1.6 3.5 3.5 3.5z"/><circle fill="#5E3E32" cx="5.5" cy="12.2" r=".9"/><circle fill="#5E3E32" cx="12.9" cy="12.2" r=".9"/><path fill="#6B3E3E" d="M5.7 18.5c.5 1.4 1.8 2.4 3.3 2.4s2.8-1 3.3-2.4H5.7z"/><path fill="#B19A4E" d="M1.2 10s3.6-1.6 4.9-2.7C7.4 6.1 7.6 5 7.6 5s1.5 3.6 4.1 4.2 4.7.2 4.7.2.8-4.6-2.5-6.7S7.5.3 5.7 1.1 1.1 4.5 1.1 6.3s.1 3.7.1 3.7z"/><path d="M16.2 8.3l-1.4 1.9-1.7-2.9 2.4-.3m2.5.3l2.3-.3-1.7-2.9L17.2 6m.4 1.9l-.7.4c-.3.2-.8.1-.9-.2l-.4-.7c-.2-.3-.1-.8.2-.9l.7-.5c.3-.2.8-.1.9.2l.4.7c.3.4.2.8-.2 1z" fill="#B04F46"/><ellipse transform="matrix(.821 -.571 .571 .821 -.924 3.168)" fill="#FFF" cx="4.6" cy="3.1" rx="1.6" ry=".5"/><ellipse fill="#8F5741" cx="63" cy="8.8" rx="9.1" ry="8.6"/><path fill="#F5CA48" d="M70.1 8.8c0-3.9-3.2-7.1-7.1-7.1-3.9 0-7.1 3.2-7.1 7.1v7.3c0 3.9 3.2 7.1 7.1 7.1 3.9 0 7.1-3.2 7.1-7.1V8.8z"/><path fill="#E9B846" d="M63 1.7c-.4 0-.7 0-1.1.1L63 6.2s1.5 5.6 2 7c1 2.9-.9 2.6-2 2.6s0 7.5 0 7.5c3.9 0 7.1-3.2 7.1-7.1V8.8c0-3.9-3.2-7.1-7.1-7.1z"/><path fill="#FFF" d="M63 21.1c1.9 0 3.5-1.6 3.5-3.5h-7c0 2 1.5 3.5 3.5 3.5z"/><circle fill="#5E3E32" cx="59.5" cy="12.4" r=".9"/><circle fill="#5E3E32" cx="66.8" cy="12.4" r=".9"/><path fill="#6B3E3E" d="M59.7 18.7c.5 1.4 1.8 2.4 3.3 2.4s2.8-1 3.3-2.4h-6.6z"/><path fill="#8F5741" d="M55.1 10.2s3.6-1.6 4.9-2.7c1.3-1.1 1.5-2.3 1.5-2.3s1.5 3.6 4.1 4.2c2.6.6 4.7.2 4.7.2s.8-4.6-2.5-6.7-6.3-2.4-8.1-1.6-4.6 3.4-4.6 5.2v3.7z"/><path fill="#8F5741" d="M56.2 8.9s-.9 3.8.5 6.8c.8 1.8 1.4 2.8 1.4 2.8S54.3 17.2 53 14s.6-8.2 2.7-10.3c1.4-1.4 1.8 2.8 1.8 2.8l-1.3 2.4zm13.6.3s.8 2.3-.3 5.4c-.6 1.5-1.7 3.1-1.7 3.1s3-1 4-2.6c1.6-2.5 2.1-8-.8-11-2-2.1-4.5-2.4-4.5-2.4l3.3 7.5z"/><ellipse transform="matrix(.821 -.571 .571 .821 8.505 34.013)" fill="#FFF" cx="58.5" cy="3.4" rx="1.6" ry=".5"/><ellipse fill="#5E3E32" cx="-61.2" cy="-88.7" rx="8.2" ry="7.8"/><path fill="#E9B846" d="M-68.3-89.7v9.9c0 3.9 3.2 7.1 7.1 7.1 3.9 0 7.1-3.2 7.1-7.1v-9.9h-14.2z"/><path fill="#F5CA48" d="M-61.2-80.2c1.1 0 3 .3 2-2.6-.5-1.4-2-7-2-7h-7.1v9.9c0 3.9 3.2 7.1 7.1 7.1 0 .1-1.2-7.4 0-7.4z"/><circle fill="#5E3E32" cx="-56.8" cy="-83.5" r=".9"/><path fill="#5E3E32" d="M-56.4-77c-1.1 0-2.7-1.9-4.8-1.9-2.1 0-3.7 1.9-4.8 1.9s-2.3-2.6-2.3-2.6.2 7.1 5.8 7.1h2.5c5.7 0 5.8-7.1 5.8-7.1s-1.2 2.6-2.2 2.6zm-4.9 2.9c-1.7 0-3.1-.9-3.1-1.9 0-1.1 1.4-1.9 3.1-1.9s3.1.9 3.1 1.9c0 1.1-1.4 1.9-3.1 1.9z"/><circle fill="#5E3E32" cx="-64.6" cy="-83.5" r=".9"/><path fill="#5E3E32" d="M-54.1-89.2h1.1v7.2h-1.1zm-15.3 0h1.1v6.6h-1.1z"/><path fill="#5E3E32" d="M-64.6-89.5s1.2 1.2 2.5 2 3.6.8 4.7.7c1.1 0 3.2-.6 3.3.8.2 1.3.6 1 .6 1s.5-4.2 0-5.1-6.1-2.2-6.1-2.2-8.2 1-8.6 1.4c-.4.5-.9 4-.9 5s1.1-.2 2.1-1c1-.7 2.4-2.6 2.4-2.6z"/><ellipse transform="matrix(.821 -.571 .571 .821 41.539 -54.089)" fill="#FFF" cx="-65.6" cy="-93.3" rx="1.6" ry=".5"/><path fill="#5E3E32" d="M52.1-83.2H39.5c-.9 0-1.6-.7-1.6-1.6v-5.7c0-.9.7-1.6 1.6-1.6h12.6c.9 0 1.6.7 1.6 1.6v5.7c0 .8-.7 1.6-1.6 1.6z"/><path fill="#F5CA48" d="M52.9-87.7c0-3.9-3.2-7.1-7.1-7.1-3.9 0-7.1 3.2-7.1 7.1v7.3c0 3.9 3.2 7.1 7.1 7.1 3.9 0 7.1-3.2 7.1-7.1v-7.3z"/><path fill="#E9B846" d="M45.8-94.8c-.4 0-.7 0-1.1.1l1.1 4.3s1.5 5.6 2 7c1 2.9-.9 2.6-2 2.6s0 7.5 0 7.5c3.9 0 7.1-3.2 7.1-7.1v-7.3c0-3.9-3.2-7.1-7.1-7.1z"/><circle fill="#5E3E32" cx="41.8" cy="-85" r=".9"/><circle fill="#5E3E32" cx="49.8" cy="-85" r=".9"/><path fill="#FFF" d="M45.8-75.2c1.9 0 3.5-1.6 3.5-3.5h-7c0 1.9 1.5 3.5 3.5 3.5z"/><path fill="#6B3E3E" d="M42.5-77.6c.5 1.4 1.8 2.4 3.3 2.4s2.8-1 3.3-2.4h-6.6z"/><path fill="#5E3E32" d="M38.2-93.3c0 5.2 6.4 4.9 9.4 4.9 10 0 6.8-8.5 6.4-9.7-.4-1.1-.9 2.3-3.6 2.7-2.7.5-4.2-1.4-7-1.4-2.5.1-5.2.7-5.2 3.5z"/><ellipse transform="matrix(.821 -.571 .571 .821 60.955 7.111)" fill="#FFF" cx="41.8" cy="-93.7" rx="1.6" ry=".5"/><circle fill="#281B18" cx="-95.2" cy="7.1" r="9.4"/><path fill="#281B18" d="M-104.6 6.9h18.7v14.9h-18.7z"/><path fill="#F5CA48" d="M-88.1 7.5c0-3.9-3.2-7.1-7.1-7.1-3.9 0-7.1 3.2-7.1 7.1v7.3c0 3.9 3.2 7.1 7.1 7.1 3.9 0 7.1-3.2 7.1-7.1V7.5z"/><path fill="#E9B846" d="M-95.2.4c-.4 0-.7 0-1.1.1l1.1 4.3s1.5 5.6 2 7c1 2.9-.9 2.6-2 2.6s0 7.5 0 7.5c3.9 0 7.1-3.2 7.1-7.1V7.5c0-4-3.2-7.1-7.1-7.1z"/><path fill="#FFF" d="M-95.2 19.8c1.9 0 3.5-1.6 3.5-3.5h-7c0 1.9 1.6 3.5 3.5 3.5z"/><path fill="#6B3E3E" d="M-98.5 17.4c.5 1.4 1.8 2.4 3.3 2.4s2.8-1 3.3-2.4h-6.6z"/><circle fill="#5E3E32" cx="-99" cy="11.3" r=".9"/><circle fill="#5E3E32" cx="-91.2" cy="11.3" r=".9"/><path fill="#281B18" d="M-103.1 7.1h15.8s-2-6-5.4-6.9c-3.4-.9-5.5-.9-7 .4-1.6 1.2-3.4 6.5-3.4 6.5z"/><ellipse transform="matrix(.821 -.571 .571 .821 -19.906 -56.811)" fill="#FFF" cx="-100.6" cy="3.4" rx="1.6" ry=".5"/><path fill="#473421" d="M86.9-79.8h-9.1c-2.3 0-4.2-1.9-4.2-4.2v-2.7c0-2.3 1.9-4.2 4.2-4.2h9.1c2.3 0 4.2 1.9 4.2 4.2v2.7c0 2.4-1.9 4.2-4.2 4.2z"/><circle fill="#F5CA48" cx="75.3" cy="-84.2" r="2.6"/><circle fill="#E9B846" cx="89.2" cy="-84.2" r="2.6"/><path fill="#F5CA48" d="M89.4-87.6c0-3.9-3.2-7.1-7.1-7.1-3.9 0-7.1 3.2-7.1 7.1v7.3c0 3.9 3.2 7.1 7.1 7.1 3.9 0 7.1-3.2 7.1-7.1v-7.3z"/><path fill="#E9B846" d="M82.4-94.7c-.4 0-.7 0-1.1.1l1.1 4.3s1.5 5.6 2 7c1 2.9-.9 2.6-2 2.6s0 7.5 0 7.5c3.9 0 7.1-3.2 7.1-7.1v-7.2c-.1-4-3.2-7.2-7.1-7.2z"/><path fill="#FFF" d="M82.4-75.3c1.9 0 3.5-1.6 3.5-3.5h-7c-.1 1.9 1.5 3.5 3.5 3.5z"/><circle fill="#5E3E32" cx="78.7" cy="-84" r=".9"/><circle fill="#5E3E32" cx="86.2" cy="-84" r=".9"/><ellipse transform="matrix(.821 -.571 .571 .821 66.488 28.498)" fill="#FFF" cx="78.7" cy="-91.9" rx="1.6" ry=".5"/><path fill="#6B3E3E" d="M79-77.7c.5 1.4 1.8 2.4 3.3 2.4s2.8-1 3.3-2.4H79z"/><path fill="#473421" d="M80.3-86.5H77c-.5 0-.9-.4-.9-.9s.4-.9.9-.9h3.3c.5 0 .9.4.9.9s-.4.9-.9.9zm7.5 0h-3.3c-.5 0-.9-.4-.9-.9s.4-.9.9-.9h3.3c.5 0 .9.4.9.9s-.4.9-.9.9z"/><ellipse fill="#4D3330" cx="-46.9" cy="-40.6" rx="9.1" ry="8.6"/><path fill="#F5CA48" d="M-39.9-40.6c0-3.9-3.2-7.1-7.1-7.1-3.9 0-7.1 3.2-7.1 7.1v7.3c0 3.9 3.2 7.1 7.1 7.1 3.9 0 7.1-3.2 7.1-7.1v-7.3z"/><path fill="#E9B846" d="M-46.9-47.6c-.4 0-.7 0-1.1.1l1.1 4.3s1.5 5.6 2 7c1 2.9-.9 2.6-2 2.6s0 7.5 0 7.5c3.9 0 7.1-3.2 7.1-7.1v-7.2c-.1-4.1-3.2-7.2-7.1-7.2z"/><path fill="#FFF" d="M-46.9-28.2c1.9 0 3.5-1.6 3.5-3.5h-7c-.1 1.9 1.5 3.5 3.5 3.5z"/><circle fill="#5E3E32" cx="-50.5" cy="-37" r=".9"/><circle fill="#5E3E32" cx="-43.1" cy="-37" r=".9"/><path fill="#6B3E3E" d="M-50.3-30.6c.5 1.4 1.8 2.4 3.3 2.4s2.8-1 3.3-2.4h-6.6z"/><path fill="#4D3330" d="M-54.8-39.2s3.6-1.6 4.9-2.7c1.3-1.1 1.5-2.3 1.5-2.3s1.5 3.6 4.1 4.2c2.6.6 4.7.2 4.7.2s.8-4.6-2.5-6.7c-3.3-2.1-6.3-2.4-8.1-1.6-1.8.8-4.6 3.4-4.6 5.2-.1 1.9 0 3.7 0 3.7z"/><ellipse transform="matrix(.821 -.571 .571 .821 17.034 -37.537)" fill="#FFF" cx="-51.4" cy="-46" rx="1.6" ry=".5"/><g><path fill="#4D3330" d="M7.2-34h5.2l-2-6.9c-.2-4.6-4.2-8.3-9-8.3-4.9 0-8.9 3.7-9 8.3l-2 6.9h5.2c1.6 1.3 3.6 2 5.8 2s4.2-.7 5.8-2z"/><path fill="#F5CA48" d="M8.4-40.6c0-3.9-3.2-7.1-7.1-7.1-3.9 0-7.1 3.2-7.1 7.1v7.3c0 3.9 3.2 7.1 7.1 7.1 3.9 0 7.1-3.2 7.1-7.1v-7.3z"/><path fill="#E9B846" d="M1.3-47.6c-.4 0-.7 0-1.1.1l1.1 4.3s1.5 5.6 2 7c1 2.9-.9 2.6-2 2.6s0 7.5 0 7.5c3.9 0 7.1-3.2 7.1-7.1v-7.2c0-4.1-3.2-7.2-7.1-7.2z"/><path fill="#FFF" d="M1.3-28.2c1.9 0 3.5-1.6 3.5-3.5h-7c0 1.9 1.6 3.5 3.5 3.5z"/><circle fill="#5E3E32" cx="-2.2" cy="-37" r=".9"/><circle fill="#5E3E32" cx="5.1" cy="-37" r=".9"/><path fill="#6B3E3E" d="M-2-30.6c.5 1.4 1.8 2.4 3.3 2.4s2.8-1 3.3-2.4H-2z"/><ellipse transform="matrix(.821 -.571 .571 .821 25.659 -10.006)" fill="#FFF" cx="-3.1" cy="-46" rx="1.6" ry=".5"/><path fill="#4D3330" d="M-1-44.9s1.4 2.6 2.3 3.2c1.2.9 2.9.8 2.9.8l-.9-.8s1.4.6 2.4.8c1.2.3 3 0 3 0s-.8-5.2-3.2-6c-2.4-.9-7.2-1.1-7.6-.6-.4.4-3.5 2.4-4 4.9-.5 2.6-.5 3.3-.5 3.3s2.2-.8 3.1-2c.5-.8.5-.9.5-.9l-.5 1.3S-2-42-1.5-43s.5-1.9.5-1.9z"/></g></svg>