<svg width="28" height="31" xmlns="http://www.w3.org/2000/svg" viewBox="0 0 20.5 23"><path fill="#5E3E32" d="M-156.8-39h18v3.7h-18z"/><path fill="#E9B846" d="M-154.9-44.6v9.9c0 3.9 3.2 7.1 7.1 7.1 3.9 0 7.1-3.2 7.1-7.1v-9.9h-14.2z"/><path fill="#F5CA48" d="M-147.8-35c1.1 0 3 .3 2-2.6-.5-1.4-2-7-2-7h-7.1v9.9c0 3.9 3.2 7.1 7.1 7.1 0 0-1.1-7.4 0-7.4z"/><path fill="#FFF" d="M-147.8-29.6c1.9 0 3.5-1.6 3.5-3.5h-7c0 1.9 1.6 3.5 3.5 3.5z"/><path fill="#5E3E32" d="M-144.8-44.5s-.6 2.4-3.9 2.7c-3.3.3-5.9 1.1-6.1 3.1-.2 2.1-.1 3.4-.1 3.4h-1.8s-1.7-14.2 8.9-14.2c10.8 0 9.1 14.2 9.1 14.2h-1.9s-.1-3-.1-4.5-1.4-1.6-2.6-2.6c-1.3-1-1.5-2.1-1.5-2.1z"/><circle fill="#5E3E32" cx="-151.3" cy="-38.3" r=".9"/><circle fill="#5E3E32" cx="-143.4" cy="-38.3" r=".9"/><ellipse transform="matrix(.821 -.571 .571 .821 -.445 -94.846)" fill="#FFF" cx="-151.6" cy="-46.7" rx="1.6" ry=".5"/><path fill="#6B3E3E" d="M-151.1-32c.5 1.4 1.8 2.4 3.3 2.4s2.8-1 3.3-2.4h-6.6z"/><path fill="#E9B846" d="M-85-88.9v9.9c0 3.9 3.2 7.1 7.1 7.1 3.9 0 7.1-3.2 7.1-7.1v-9.9H-85z"/><path fill="#F5CA48" d="M-77.8-79.3c1.1 0 3 .3 2-2.6-.5-1.4-2-7-2-7h-7.1v9.9c0 3.9 3.2 7.1 7.1 7.1 0 0-1.1-7.4 0-7.4z"/><path fill="none" stroke="#473421" stroke-linecap="round" stroke-miterlimit="10" d="M-80.6-75.8s1.1 1.1 2.5 1.1c1.7 0 2.7-1.1 2.7-1.1"/><path fill="#291D11" d="M-78-92h4.6l3.1-3.6v16.2s-1.6-.6-3.4-.3c-2.3.3-4 2.3-4 2.3h-.6s-1.7-2-4-2.3c-1.8-.2-3.4.3-3.4.3v-16.2l3.1 3.6h4.6"/><path fill="#FFF" d="M-83.4-83.4l3.5 1.5s-.9 1.2-1.7.8-1.8-2.3-1.8-2.3zm11 0l-3.5 1.5s.9 1.2 1.7.8 1.8-2.3 1.8-2.3z"/><circle fill="#F5CA48" cx="-156.6" cy="-84.1" r="2.6"/><circle fill="#E9B846" cx="-142.7" cy="-84.1" r="2.6"/><path fill="#F5CA48" d="M-142.4-87.5c0-3.9-3.2-7.1-7.1-7.1-3.9 0-7.1 3.2-7.1 7.1v7.3c0 3.9 3.2 7.1 7.1 7.1 3.9 0 7.1-3.2 7.1-7.1v-7.3z"/><path fill="#E9B846" d="M-149.5-94.5c-.4 0-.7 0-1.1.1l1.1 4.3s1.5 5.6 2 7c1 2.9-.9 2.6-2 2.6s0 7.5 0 7.5c3.9 0 7.1-3.2 7.1-7.1v-7.2c0-4.1-3.2-7.2-7.1-7.2z"/><path fill="#FFF" d="M-149.5-75.1c1.9 0 3.5-1.6 3.5-3.5h-7c0 1.9 1.5 3.5 3.5 3.5z"/><circle fill="#5E3E32" cx="-153" cy="-83.9" r=".9"/><circle fill="#5E3E32" cx="-145.7" cy="-83.9" r=".9"/><ellipse transform="matrix(.821 -.571 .571 .821 24.956 -103.779)" fill="#FFF" cx="-153.2" cy="-91.7" rx="1.6" ry=".5"/><path fill="#6B3E3E" d="M-152.8-77.5c.5 1.4 1.8 2.4 3.3 2.4s2.8-1 3.3-2.4h-6.6z"/><path fill="none" stroke="#473421" stroke-width=".5" stroke-miterlimit="10" d="M-152.1-81.7h-2.7c-.6 0-1.2-.5-1.2-1.2v-2c0-.6.5-1.2 1.2-1.2h2.7c.6 0 1.2.5 1.2 1.2v2c0 .7-.6 1.2-1.2 1.2zm8.2 0h-2.7c-.6 0-1.2-.5-1.2-1.2v-2c0-.6.5-1.2 1.2-1.2h2.7c.6 0 1.2.5 1.2 1.2v2c0 .7-.6 1.2-1.2 1.2z"/><path fill="none" stroke="#473421" stroke-width=".5" stroke-miterlimit="10" d="M-150.9-83.7s.7-1 1.6-1c.9 0 1.6.8 1.6.8"/><circle fill="#5E3E32" cx="-34.8" cy="-87.6" r="1.9"/><circle fill="#5E3E32" cx="-34.8" cy="-83.8" r="1.9"/><circle fill="#5E3E32" cx="-49.3" cy="-87.8" r="1.9"/><circle fill="#5E3E32" cx="-49.3" cy="-84.1" r="1.9"/><path fill="#E9B846" d="M-49-89.8v9.9c0 3.9 3.2 7.1 7.1 7.1 3.9 0 7.1-3.2 7.1-7.1v-9.9H-49z"/><path fill="#F5CA48" d="M-41.9-80.3c1.1 0 3 .3 2-2.6-.5-1.4-2-7-2-7H-49v9.9c0 3.9 3.2 7.1 7.1 7.1 0 .1-1.2-7.4 0-7.4z"/><circle fill="#5E3E32" cx="-45.5" cy="-83.6" r=".9"/><circle fill="#5E3E32" cx="-37.5" cy="-83.6" r=".9"/><path fill="#5E3E32" d="M-38-78.9c-.1-.3-.4-.5-.8-.5H-45c-.4 0-.7.2-.8.5 0 .1-.1.2-.1.3v4.9c0 .5.4.9.9.9s.9-.4.9-.9v-4h4.5v4c0 .5.4.9.9.9s.9-.4.9-.9v-4.9c-.1-.1-.2-.2-.2-.3z"/><circle fill="#5E3E32" cx="-43.8" cy="-89.9" r="1.9"/><circle fill="#5E3E32" cx="-40.1" cy="-89.9" r="1.9"/><circle fill="#5E3E32" cx="-36.4" cy="-89.9" r="1.9"/><circle fill="#5E3E32" cx="-47.4" cy="-89.9" r="1.9"/><circle fill="#5E3E32" cx="-43.8" cy="-92" r="1.9"/><circle fill="#5E3E32" cx="-49.3" cy="-91.5" r="1.9"/><circle fill="#5E3E32" cx="-34.8" cy="-91.4" r="1.9"/><circle fill="#5E3E32" cx="-45.6" cy="-95.1" r="1.9"/><circle fill="#5E3E32" cx="-41.9" cy="-95.1" r="1.9"/><circle fill="#5E3E32" cx="-38.3" cy="-95.1" r="1.9"/><path fill="#5E3E32" d="M-49-94.9c-.1.2-.3 3.1-.3 3.1l1.4 1.6 2.5.5 9.5-.6 1.1-2.7-.3-1.6-2-.5h-5.7l-6.2.2z"/><circle fill="#5E3E32" cx="-35.8" cy="-93.6" r="1.9"/><circle fill="#5E3E32" cx="-48.2" cy="-93.9" r="1.9"/><ellipse transform="matrix(.821 -.571 .571 .821 44.666 -43.755)" fill="#FFF" cx="-47.5" cy="-93.2" rx="1.6" ry=".5"/><path fill="#5E3E32" d="M-104.2 11.5H-86v10.3h-18.2z"/><path fill="#E9B846" d="M-102.2 4.8v9.9c0 3.9 3.2 7.1 7.1 7.1 3.9 0 7.1-3.2 7.1-7.1V4.8h-14.2z"/><path fill="#F5CA48" d="M-95.2 14.3c1.1 0 3 .3 2-2.6-.5-1.4-2-7-2-7h-7.1v9.9c0 3.9 3.2 7.1 7.1 7.1 0 .1-1.1-7.4 0-7.4z"/><path fill="#5E3E32" d="M-92.1 5s-.6 2.4-3.9 2.7c-3.3.3-5.9 1.1-6.1 3.1-.2 2.1-.1 3.4-.1 3.4h-1.8S-105.7 0-95.1 0C-84.3 0-86 14.2-86 14.2h-1.9s-.1-3-.1-4.5-1.4-1.6-2.6-2.6C-91.9 6-92.1 5-92.1 5z"/><circle fill="#5E3E32" cx="-98.7" cy="11" r=".9"/><circle fill="#5E3E32" cx="-90.7" cy="11" r=".9"/><ellipse transform="matrix(.821 -.571 .571 .821 -19.184 -55.996)" fill="#FFF" cx="-99" cy="2.6" rx="1.6" ry=".5"/><path fill="#FFF" d="M-94.7 19.9c1.9 0 3.5-1.6 3.5-3.5h-7c0 1.9 1.5 3.5 3.5 3.5z"/><path fill="#6B3E3E" d="M-98 17.5c.5 1.4 1.8 2.4 3.3 2.4s2.8-1 3.3-2.4H-98z"/><path fill="#71A266" d="M4.1-42c0-3.9-3.2-7.1-7.1-7.1-3.9 0-7.1 3.2-7.1 7.1v7.3c0 3.9 3.2 7.1 7.1 7.1 3.9 0 7.1-3.2 7.1-7.1V-42z"/><path fill="#628F59" d="M-3-49.1c-.4 0-.7 0-1.1.1l1.1 4.3s1.5 5.6 2 7c1 2.9-.9 2.6-2 2.6s0 7.5 0 7.5c3.9 0 7.1-3.2 7.1-7.1V-42c0-3.9-3.2-7.1-7.1-7.1z"/><path fill="#FFF" d="M-3-29.7c1.9 0 3.5-1.6 3.5-3.5h-7c0 2 1.5 3.5 3.5 3.5z"/><ellipse transform="matrix(.821 -.571 .571 .821 25.198 -12.053)" fill="#9BC391" cx="-6.6" cy="-46.2" rx="1.6" ry=".5"/><path fill="#2E3D2F" d="M-6.3-32.1c.5 1.4 1.8 2.4 3.3 2.4s2.8-1 3.3-2.4h-6.6z"/><ellipse transform="matrix(.726 .688 -.688 .726 -29.197 -6.083)" fill="#2E3D2F" cx="-7" cy="-39.7" rx="2.2" ry="1.2"/><ellipse transform="matrix(-.726 .688 -.688 -.726 -24.788 -69.434)" fill="#2E3D2F" cx="1.4" cy="-39.7" rx="2.2" ry="1.2"/><ellipse fill="#B19A4E" cx="-43.5" cy="8.4" rx="9.1" ry="8.6"/><path fill="#B19A4E" d="M-52.6 8.7h18.1v13.2h-18.1z"/><path fill="#F5CA48" d="M-36.5 8.4c0-3.9-3.2-7.1-7.1-7.1-3.9 0-7.1 3.2-7.1 7.1v7.3c0 3.9 3.2 7.1 7.1 7.1 3.9 0 7.1-3.2 7.1-7.1V8.4z"/><path fill="#E9B846" d="M-43.5 1.3c-.4 0-.7 0-1.1.1l1.1 4.3s1.5 5.6 2 7c1 2.9-.9 2.6-2 2.6s0 7.5 0 7.5c3.9 0 7.1-3.2 7.1-7.1V8.4c-.1-3.9-3.2-7.1-7.1-7.1z"/><path fill="#FFF" d="M-43.5 20.7c1.9 0 3.5-1.6 3.5-3.5h-7c-.1 1.9 1.5 3.5 3.5 3.5z"/><circle fill="#5E3E32" cx="-47.1" cy="12" r=".9"/><circle fill="#5E3E32" cx="-39.7" cy="12" r=".9"/><path fill="#6B3E3E" d="M-46.9 18.3c.5 1.4 1.8 2.4 3.3 2.4s2.8-1 3.3-2.4h-6.6z"/><path fill="#B19A4E" d="M-51.4 9.8s3.6-1.6 4.9-2.7C-45.2 6-45 4.8-45 4.8s1.5 3.6 4.1 4.2c2.6.6 4.7.2 4.7.2s.8-4.6-2.5-6.7C-42 .4-45 .1-46.8.9s-4.6 3.4-4.6 5.2v3.7z"/><path d="M-36.4 8.1l-1.3 1.9-1.8-2.9 2.4-.3m2.5.3l2.3-.4-1.7-2.8-1.4 1.9m.4 1.9l-.7.4c-.3.2-.8.1-.9-.2l-.4-.8c-.2-.3-.1-.8.2-.9l.7-.4c.3-.2.8-.1.9.2l.4.7c.3.4.2.8-.2 1z" fill="#B04F46"/><ellipse transform="matrix(.821 -.571 .571 .821 -10.203 -26.875)" fill="#FFF" cx="-48" cy="2.8" rx="1.6" ry=".5"/><ellipse fill="#8F5741" cx="10.4" cy="8.6" rx="9.1" ry="8.6"/><path fill="#F5CA48" d="M17.5 8.6c0-3.9-3.2-7.1-7.1-7.1-3.9 0-7.1 3.2-7.1 7.1v7.3c0 3.9 3.2 7.1 7.1 7.1 3.9 0 7.1-3.2 7.1-7.1V8.6z"/><path fill="#E9B846" d="M10.4 1.5c-.4 0-.7 0-1.1.1L10.4 6s1.5 5.6 2 7c1 2.9-.9 2.6-2 2.6s0 7.5 0 7.5c3.9 0 7.1-3.2 7.1-7.1V8.6c0-3.9-3.2-7.1-7.1-7.1z"/><path fill="#FFF" d="M10.4 20.9c1.9 0 3.5-1.6 3.5-3.5h-7c0 2 1.6 3.5 3.5 3.5z"/><circle fill="#5E3E32" cx="6.9" cy="12.2" r=".9"/><circle fill="#5E3E32" cx="14.2" cy="12.2" r=".9"/><path fill="#6B3E3E" d="M7.1 18.5c.5 1.4 1.8 2.4 3.3 2.4s2.8-1 3.3-2.4H7.1z"/><path fill="#8F5741" d="M2.5 10s3.6-1.6 4.9-2.7C8.8 6.1 8.9 5 8.9 5s1.5 3.6 4.1 4.2 4.7.2 4.7.2.8-4.6-2.5-6.7S8.9.3 7.1 1.1 2.5 4.5 2.5 6.3V10z"/><path fill="#8F5741" d="M3.6 8.7s-.9 3.8.5 6.8c.8 1.8 1.4 2.8 1.4 2.8S1.7 17 .4 13.8 1 5.6 3.1 3.6c1.4-1.4 1.8 2.8 1.8 2.8L3.6 8.7zm13.6.3s.8 2.3-.3 5.4c-.6 1.5-1.7 3.1-1.7 3.1s3-1 4-2.6c1.6-2.5 2.1-8-.8-11-2-2.1-4.5-2.4-4.5-2.4L17.2 9z"/><ellipse transform="matrix(.821 -.571 .571 .821 -.774 3.97)" fill="#FFF" cx="5.9" cy="3.2" rx="1.6" ry=".5"/><ellipse fill="#5E3E32" cx="-113.8" cy="-88.9" rx="8.2" ry="7.8"/><path fill="#E9B846" d="M-120.9-89.9v9.9c0 3.9 3.2 7.1 7.1 7.1 3.9 0 7.1-3.2 7.1-7.1v-9.9h-14.2z"/><path fill="#F5CA48" d="M-113.8-80.4c1.1 0 3 .3 2-2.6-.5-1.4-2-7-2-7h-7.1v9.9c0 3.9 3.2 7.1 7.1 7.1 0 .1-1.1-7.4 0-7.4z"/><circle fill="#5E3E32" cx="-109.4" cy="-83.7" r=".9"/><path fill="#5E3E32" d="M-109-77.2c-1.1 0-2.7-1.9-4.8-1.9-2.1 0-3.7 1.9-4.8 1.9s-2.3-2.6-2.3-2.6.2 7.1 5.8 7.1h2.5c5.7 0 5.8-7.1 5.8-7.1s-1.1 2.6-2.2 2.6zm-4.9 2.9c-1.7 0-3.1-.9-3.1-1.9 0-1.1 1.4-1.9 3.1-1.9s3.1.9 3.1 1.9c0 1-1.4 1.9-3.1 1.9z"/><circle fill="#5E3E32" cx="-117.2" cy="-83.7" r=".9"/><path fill="#5E3E32" d="M-106.7-89.4h1.1v7.2h-1.1zm-15.3 0h1.1v6.6h-1.1z"/><path fill="#5E3E32" d="M-117.2-89.7s1.2 1.2 2.5 2c1.2.8 3.6.8 4.7.7 1.1 0 3.2-.6 3.3.8.2 1.3.6 1 .6 1s.5-4.2 0-5.1-6.1-2.2-6.1-2.2-8.2 1-8.6 1.4c-.4.5-.9 4-.9 5s1.1-.2 2.1-1c1-.7 2.4-2.6 2.4-2.6z"/><ellipse transform="matrix(.821 -.571 .571 .821 32.26 -84.132)" fill="#FFF" cx="-118.1" cy="-93.6" rx="1.6" ry=".5"/><path fill="#5E3E32" d="M-.5-83.4h-12.6c-.9 0-1.6-.7-1.6-1.6v-5.7c0-.9.7-1.6 1.6-1.6H-.5c.9 0 1.6.7 1.6 1.6v5.7c0 .8-.7 1.6-1.6 1.6z"/><path fill="#F5CA48" d="M.3-87.9c0-3.9-3.2-7.1-7.1-7.1-3.9 0-7.1 3.2-7.1 7.1v7.3c0 3.9 3.2 7.1 7.1 7.1 3.9 0 7.1-3.2 7.1-7.1v-7.3z"/><path fill="#E9B846" d="M-6.8-95c-.4 0-.7 0-1.1.1l1.1 4.3s1.5 5.6 2 7c1 2.9-.9 2.6-2 2.6s0 7.5 0 7.5c3.9 0 7.1-3.2 7.1-7.1v-7.2c0-4-3.2-7.2-7.1-7.2z"/><circle fill="#5E3E32" cx="-10.8" cy="-85.2" r=".9"/><circle fill="#5E3E32" cx="-2.8" cy="-85.2" r=".9"/><path fill="#FFF" d="M-6.8-75.4c1.9 0 3.5-1.6 3.5-3.5h-7c0 1.9 1.5 3.5 3.5 3.5z"/><path fill="#6B3E3E" d="M-10.1-77.8c.5 1.4 1.8 2.4 3.3 2.4s2.8-1 3.3-2.4h-6.6z"/><path fill="#5E3E32" d="M-14.4-93.6c0 5.2 6.4 4.9 9.4 4.9 10 0 6.8-8.5 6.4-9.7-.4-1-.8 2.4-3.5 2.8s-4.2-1.4-7-1.4c-2.6.1-5.3.7-5.3 3.4z"/><ellipse transform="matrix(.821 -.571 .571 .821 51.676 -22.932)" fill="#FFF" cx="-10.8" cy="-93.9" rx="1.6" ry=".5"/><circle fill="#281B18" cx="-147.8" cy="6.9" r="9.4"/><path fill="#281B18" d="M-157.2 6.7h18.7v14.9h-18.7z"/><path fill="#F5CA48" d="M-140.7 7.2c0-3.9-3.2-7.1-7.1-7.1-3.9 0-7.1 3.2-7.1 7.1v7.3c0 3.9 3.2 7.1 7.1 7.1 3.9 0 7.1-3.2 7.1-7.1V7.2z"/><path fill="#E9B846" d="M-147.8.2c-.4 0-.7 0-1.1.1l1.1 4.3s1.5 5.6 2 7c1 2.9-.9 2.6-2 2.6s0 7.5 0 7.5c3.9 0 7.1-3.2 7.1-7.1V7.2c0-3.9-3.1-7-7.1-7z"/><path fill="#FFF" d="M-147.8 19.6c1.9 0 3.5-1.6 3.5-3.5h-7c0 1.9 1.6 3.5 3.5 3.5z"/><path fill="#6B3E3E" d="M-151.1 17.2c.5 1.4 1.8 2.4 3.3 2.4s2.8-1 3.3-2.4h-6.6z"/><circle fill="#5E3E32" cx="-151.6" cy="11" r=".9"/><circle fill="#5E3E32" cx="-143.8" cy="11" r=".9"/><path fill="#281B18" d="M-155.7 6.9h15.8s-2-6-5.4-6.9c-3.4-.9-5.5-.9-7 .4-1.6 1.2-3.4 6.5-3.4 6.5z"/><ellipse transform="matrix(.821 -.571 .571 .821 -29.185 -86.855)" fill="#FFF" cx="-153.2" cy="3.2" rx="1.6" ry=".5"/><path fill="#473421" d="M34.3-80h-9.1c-2.3 0-4.2-1.9-4.2-4.2v-2.7c0-2.3 1.9-4.2 4.2-4.2h9.1c2.3 0 4.2 1.9 4.2 4.2v2.7c0 2.4-1.9 4.2-4.2 4.2z"/><circle fill="#F5CA48" cx="22.7" cy="-84.5" r="2.6"/><circle fill="#E9B846" cx="36.6" cy="-84.5" r="2.6"/><path fill="#F5CA48" d="M36.9-87.8c0-3.9-3.2-7.1-7.1-7.1-3.9 0-7.1 3.2-7.1 7.1v7.3c0 3.9 3.2 7.1 7.1 7.1 3.9 0 7.1-3.2 7.1-7.1v-7.3z"/><path fill="#E9B846" d="M29.8-94.9c-.4 0-.7 0-1.1.1l1.1 4.3s1.5 5.6 2 7c1 2.9-.9 2.6-2 2.6s0 7.5 0 7.5c3.9 0 7.1-3.2 7.1-7.1v-7.2c0-4-3.2-7.2-7.1-7.2z"/><path fill="#FFF" d="M29.8-75.5c1.9 0 3.5-1.6 3.5-3.5h-7c-.1 1.9 1.5 3.5 3.5 3.5z"/><circle fill="#5E3E32" cx="26.1" cy="-84.2" r=".9"/><circle fill="#5E3E32" cx="33.6" cy="-84.2" r=".9"/><ellipse transform="matrix(.821 -.571 .571 .821 57.209 -1.545)" fill="#FFF" cx="26.1" cy="-92.1" rx="1.6" ry=".5"/><path fill="#6B3E3E" d="M26.5-77.9c.5 1.4 1.8 2.4 3.3 2.4s2.8-1 3.3-2.4h-6.6z"/><path fill="#473421" d="M27.7-86.7h-3.3c-.5 0-.9-.4-.9-.9s.4-.9.9-.9h3.3c.5 0 .9.4.9.9s-.4.9-.9.9zm7.6 0H32c-.5 0-.9-.4-.9-.9s.4-.9.9-.9h3.3c.5 0 .9.4.9.9-.1.5-.5.9-.9.9z"/><ellipse fill="#4D3330" cx="-99.5" cy="-40.8" rx="9.1" ry="8.6"/><path fill="#F5CA48" d="M-92.4-40.8c0-3.9-3.2-7.1-7.1-7.1-3.9 0-7.1 3.2-7.1 7.1v7.3c0 3.9 3.2 7.1 7.1 7.1 3.9 0 7.1-3.2 7.1-7.1v-7.3z"/><path fill="#E9B846" d="M-99.5-47.9c-.4 0-.7 0-1.1.1l1.1 4.3s1.5 5.6 2 7c1 2.9-.9 2.6-2 2.6s0 7.5 0 7.5c3.9 0 7.1-3.2 7.1-7.1v-7.2c0-4-3.2-7.2-7.1-7.2z"/><path fill="#FFF" d="M-99.5-28.5c1.9 0 3.5-1.6 3.5-3.5h-7c-.1 2 1.5 3.5 3.5 3.5z"/><circle fill="#5E3E32" cx="-103.1" cy="-37.2" r=".9"/><circle fill="#5E3E32" cx="-95.7" cy="-37.2" r=".9"/><path fill="#6B3E3E" d="M-102.8-30.9c.5 1.4 1.8 2.4 3.3 2.4s2.8-1 3.3-2.4h-6.6z"/><path fill="#4D3330" d="M-107.4-39.4s3.6-1.6 4.9-2.7c1.3-1.1 1.5-2.3 1.5-2.3s1.5 3.6 4.1 4.2c2.6.6 4.7.2 4.7.2s.8-4.6-2.5-6.7c-3.3-2.1-6.3-2.4-8.1-1.6-1.8.8-4.6 3.4-4.6 5.2v3.7z"/><ellipse transform="matrix(.821 -.571 .571 .821 7.755 -67.58)" fill="#FFF" cx="-104" cy="-46.2" rx="1.6" ry=".5"/><g><path fill="#4D3330" d="M-45.4-34.2h5.2l-2-6.9c-.2-4.6-4.2-8.3-9-8.3-4.9 0-8.9 3.7-9 8.3l-2 6.9h5.2c1.6 1.3 3.6 2 5.8 2s4.2-.7 5.8-2z"/><path fill="#F5CA48" d="M-44.2-40.8c0-3.9-3.2-7.1-7.1-7.1-3.9 0-7.1 3.2-7.1 7.1v7.3c0 3.9 3.2 7.1 7.1 7.1 3.9 0 7.1-3.2 7.1-7.1v-7.3z"/><path fill="#E9B846" d="M-51.3-47.9c-.4 0-.7 0-1.1.1l1.1 4.3s1.5 5.6 2 7c1 2.9-.9 2.6-2 2.6s0 7.5 0 7.5c3.9 0 7.1-3.2 7.1-7.1v-7.2c0-4-3.2-7.2-7.1-7.2z"/><path fill="#FFF" d="M-51.3-28.5c1.9 0 3.5-1.6 3.5-3.5h-7c0 2 1.6 3.5 3.5 3.5z"/><circle fill="#5E3E32" cx="-54.8" cy="-37.2" r=".9"/><circle fill="#5E3E32" cx="-47.5" cy="-37.2" r=".9"/><path fill="#6B3E3E" d="M-54.6-30.9c.5 1.4 1.8 2.4 3.3 2.4s2.8-1 3.3-2.4h-6.6z"/><ellipse transform="matrix(.821 -.571 .571 .821 16.38 -40.049)" fill="#FFF" cx="-55.7" cy="-46.2" rx="1.6" ry=".5"/><path fill="#4D3330" d="M-53.5-45.1s1.4 2.6 2.3 3.2c1.2.9 2.9.8 2.9.8l-.9-.8s1.4.6 2.4.8c1.2.3 3 0 3 0s-.8-5.2-3.2-6c-2.4-.9-7.2-1.1-7.6-.6-.4.4-3.5 2.4-4 4.9-.5 2.6-.5 3.3-.5 3.3s2.2-.8 3.1-2c.6-.8.5-.8.5-.8L-56-41s1.5-1.1 2-2.1.5-2 .5-2z"/></g></svg>