<svg width="27" height="31" xmlns="http://www.w3.org/2000/svg" viewBox="0 0 18.2 21.8"><path fill="#5E3E32" d="M-52.6-39h18v3.7h-18z"/><path fill="#E9B846" d="M-50.6-44.6v9.9c0 3.9 3.2 7.1 7.1 7.1 3.9 0 7.1-3.2 7.1-7.1v-9.9h-14.2z"/><path fill="#F5CA48" d="M-43.6-35c1.1 0 3 .3 2-2.6-.5-1.4-2-7-2-7h-7.1v9.9c0 3.9 3.2 7.1 7.1 7.1 0 0-1.1-7.4 0-7.4z"/><path fill="#FFF" d="M-43.6-29.6c1.9 0 3.5-1.6 3.5-3.5h-7c0 1.9 1.6 3.5 3.5 3.5z"/><path fill="#5E3E32" d="M-40.5-44.5s-.6 2.4-3.9 2.7c-3.3.3-5.9 1.1-6.1 3.1-.2 2.1-.1 3.4-.1 3.4h-1.8s-1.7-14.2 8.9-14.2c10.8 0 9.1 14.2 9.1 14.2h-1.9s-.1-3-.1-4.5-1.4-1.6-2.6-2.6c-1.4-1-1.5-2.1-1.5-2.1z"/><circle fill="#5E3E32" cx="-47.1" cy="-38.3" r=".9"/><circle fill="#5E3E32" cx="-39.1" cy="-38.3" r=".9"/><ellipse transform="matrix(.821 -.571 .571 .821 18.18 -35.374)" fill="#FFF" cx="-47.4" cy="-46.7" rx="1.6" ry=".5"/><path fill="#6B3E3E" d="M-46.9-32c.5 1.4 1.8 2.4 3.3 2.4s2.8-1 3.3-2.4h-6.6z"/><path fill="#E9B846" d="M19.2-88.8v9.9c0 3.9 3.2 7.1 7.1 7.1 3.9 0 7.1-3.2 7.1-7.1v-9.9H19.2z"/><path fill="#F5CA48" d="M26.4-79.3c1.1 0 3 .3 2-2.6-.5-1.4-2-7-2-7h-7.1v9.9c0 3.9 3.2 7.1 7.1 7.1 0 .1-1.1-7.4 0-7.4z"/><path fill="none" stroke="#473421" stroke-linecap="round" stroke-miterlimit="10" d="M23.7-75.8s1.1 1.1 2.5 1.1c1.7 0 2.7-1.1 2.7-1.1"/><path fill="#291D11" d="M26.3-91.9h4.6l3.1-3.6v16.2s-1.6-.6-3.4-.3c-2.3.3-4 2.3-4 2.3H26s-1.7-2-4-2.3c-1.8-.2-3.4.3-3.4.3v-16.2l3.1 3.6h4.6"/><path fill="#FFF" d="M20.9-83.4l3.5 1.5s-.9 1.2-1.7.8-1.8-2.3-1.8-2.3zm10.9 0L28.4-82s.9 1.2 1.7.8 1.7-2.2 1.7-2.2z"/><circle fill="#F5CA48" cx="-52.4" cy="-84.1" r="2.6"/><circle fill="#E9B846" cx="-38.5" cy="-84.1" r="2.6"/><path fill="#F5CA48" d="M-38.2-87.4c0-3.9-3.2-7.1-7.1-7.1-3.9 0-7.1 3.2-7.1 7.1v7.3c0 3.9 3.2 7.1 7.1 7.1 3.9 0 7.1-3.2 7.1-7.1v-7.3z"/><path fill="#E9B846" d="M-45.3-94.5c-.4 0-.7 0-1.1.1l1.1 4.3s1.5 5.6 2 7c1 2.9-.9 2.6-2 2.6s0 7.5 0 7.5c3.9 0 7.1-3.2 7.1-7.1v-7.2c0-4.1-3.2-7.2-7.1-7.2z"/><path fill="#FFF" d="M-45.3-75.1c1.9 0 3.5-1.6 3.5-3.5h-7c0 1.9 1.6 3.5 3.5 3.5z"/><circle fill="#5E3E32" cx="-48.8" cy="-83.9" r=".9"/><circle fill="#5E3E32" cx="-41.5" cy="-83.9" r=".9"/><ellipse transform="matrix(.821 -.571 .571 .821 43.581 -44.308)" fill="#FFF" cx="-48.9" cy="-91.7" rx="1.6" ry=".5"/><path fill="#6B3E3E" d="M-48.6-77.5c.5 1.4 1.8 2.4 3.3 2.4s2.8-1 3.3-2.4h-6.6z"/><path fill="none" stroke="#473421" stroke-width=".5" stroke-miterlimit="10" d="M-47.9-81.7h-2.7c-.6 0-1.2-.5-1.2-1.2v-2c0-.6.5-1.2 1.2-1.2h2.7c.6 0 1.2.5 1.2 1.2v2c0 .7-.5 1.2-1.2 1.2zm8.2 0h-2.7c-.6 0-1.2-.5-1.2-1.2v-2c0-.6.5-1.2 1.2-1.2h2.7c.6 0 1.2.5 1.2 1.2v2c0 .7-.5 1.2-1.2 1.2z"/><path fill="none" stroke="#473421" stroke-width=".5" stroke-miterlimit="10" d="M-46.7-83.7s.7-1 1.6-1c.9 0 1.6.8 1.6.8"/><circle fill="#5E3E32" cx="69.4" cy="-87.6" r="1.9"/><circle fill="#5E3E32" cx="69.4" cy="-83.8" r="1.9"/><circle fill="#5E3E32" cx="54.9" cy="-87.8" r="1.9"/><circle fill="#5E3E32" cx="54.9" cy="-84.1" r="1.9"/><path fill="#E9B846" d="M55.2-89.8v9.9c0 3.9 3.2 7.1 7.1 7.1 3.9 0 7.1-3.2 7.1-7.1v-9.9H55.2z"/><path fill="#F5CA48" d="M62.3-80.3c1.1 0 3 .3 2-2.6-.5-1.4-2-7-2-7h-7.1v9.9c0 3.9 3.2 7.1 7.1 7.1 0 .1-1.1-7.4 0-7.4z"/><circle fill="#5E3E32" cx="58.8" cy="-83.6" r=".9"/><circle fill="#5E3E32" cx="66.7" cy="-83.6" r=".9"/><path fill="#5E3E32" d="M66.2-78.9c-.1-.3-.4-.5-.8-.5h-6.2c-.4 0-.7.2-.8.5 0 .1-.1.2-.1.3v4.9c0 .5.4.9.9.9s.9-.4.9-.9v-4h4.5v4c0 .5.4.9.9.9s.9-.4.9-.9v-4.9c-.1-.1-.1-.2-.2-.3z"/><circle fill="#5E3E32" cx="60.5" cy="-89.9" r="1.9"/><circle fill="#5E3E32" cx="64.1" cy="-89.9" r="1.9"/><circle fill="#5E3E32" cx="67.8" cy="-89.9" r="1.9"/><circle fill="#5E3E32" cx="56.8" cy="-89.9" r="1.9"/><circle fill="#5E3E32" cx="60.4" cy="-92" r="1.9"/><circle fill="#5E3E32" cx="54.9" cy="-91.5" r="1.9"/><circle fill="#5E3E32" cx="69.4" cy="-91.4" r="1.9"/><circle fill="#5E3E32" cx="58.6" cy="-95.1" r="1.9"/><circle fill="#5E3E32" cx="62.3" cy="-95.1" r="1.9"/><circle fill="#5E3E32" cx="66" cy="-95.1" r="1.9"/><path fill="#5E3E32" d="M55.2-94.9c-.1.2-.3 3.1-.3 3.1l1.4 1.6 2.5.5 9.5-.6 1.1-2.7-.3-1.6-2-.5h-5.7l-6.2.2z"/><circle fill="#5E3E32" cx="68.4" cy="-93.5" r="1.9"/><circle fill="#5E3E32" cx="56.1" cy="-93.9" r="1.9"/><ellipse transform="matrix(.821 -.571 .571 .821 63.291 15.717)" fill="#FFF" cx="56.7" cy="-93.2" rx="1.6" ry=".5"/><path fill="#5E3E32" d="M0 11.5h18.2v10.3H0z"/><path fill="#E9B846" d="M2 4.8v9.9c0 3.9 3.2 7.1 7.1 7.1 3.9 0 7.1-3.2 7.1-7.1V4.8H2z"/><path fill="#F5CA48" d="M9.1 14.3c1.1 0 3 .3 2-2.6-.5-1.4-2-7-2-7H2v9.9c0 3.9 3.2 7.1 7.1 7.1 0 .1-1.2-7.4 0-7.4z"/><path fill="#5E3E32" d="M12.1 5s-.6 2.4-3.9 2.7-6 1.1-6.2 3.2-.1 3.4-.1 3.4H.1C.1 14.2-1.6 0 9 0c10.8 0 9.1 14.2 9.1 14.2h-1.9s-.1-3-.1-4.5-1.4-1.6-2.6-2.6c-1.2-1-1.4-2.1-1.4-2.1z"/><circle fill="#5E3E32" cx="5.6" cy="11" r=".9"/><circle fill="#5E3E32" cx="13.5" cy="11" r=".9"/><ellipse transform="matrix(.821 -.571 .571 .821 -.559 3.475)" fill="#FFF" cx="5.3" cy="2.6" rx="1.6" ry=".5"/><path fill="#FFF" d="M9.5 19.9c1.9 0 3.5-1.6 3.5-3.5H6c0 1.9 1.6 3.5 3.5 3.5z"/><path fill="#6B3E3E" d="M6.2 17.5c.5 1.4 1.8 2.4 3.3 2.4s2.8-1 3.3-2.4H6.2z"/><path fill="#71A266" d="M108.3-42c0-3.9-3.2-7.1-7.1-7.1-3.9 0-7.1 3.2-7.1 7.1v7.3c0 3.9 3.2 7.1 7.1 7.1 3.9 0 7.1-3.2 7.1-7.1V-42z"/><path fill="#628F59" d="M101.2-49c-.4 0-.7 0-1.1.1l1.1 4.3s1.5 5.6 2 7c1 2.9-.9 2.6-2 2.6s0 7.5 0 7.5c3.9 0 7.1-3.2 7.1-7.1V-42c0-3.9-3.2-7-7.1-7z"/><path fill="#FFF" d="M101.2-29.7c1.9 0 3.5-1.6 3.5-3.5h-7c0 2 1.6 3.5 3.5 3.5z"/><ellipse transform="matrix(.821 -.571 .571 .821 43.823 47.418)" fill="#9BC391" cx="97.6" cy="-46.2" rx="1.6" ry=".5"/><path fill="#2E3D2F" d="M97.9-32c.5 1.4 1.8 2.4 3.3 2.4s2.8-1 3.3-2.4h-6.6z"/><ellipse transform="matrix(.726 .688 -.688 .726 -.601 -77.791)" fill="#2E3D2F" cx="97.3" cy="-39.6" rx="2.2" ry="1.2"/><ellipse transform="matrix(-.726 .688 -.688 -.726 155.089 -141.128)" fill="#2E3D2F" cx="105.7" cy="-39.6" rx="2.2" ry="1.2"/><ellipse fill="#B19A4E" cx="60.7" cy="8.4" rx="9.1" ry="8.6"/><path fill="#B19A4E" d="M51.6 8.7h18.1v13.2H51.6z"/><path fill="#F5CA48" d="M67.8 8.4c0-3.9-3.2-7.1-7.1-7.1-3.9 0-7.1 3.2-7.1 7.1v7.3c0 3.9 3.2 7.1 7.1 7.1 3.9 0 7.1-3.2 7.1-7.1V8.4z"/><path fill="#E9B846" d="M60.7 1.3c-.4 0-.7 0-1.1.1l1.1 4.3s1.5 5.6 2 7c1 2.9-.9 2.6-2 2.6s0 7.5 0 7.5c3.9 0 7.1-3.2 7.1-7.1V8.4c0-3.9-3.2-7.1-7.1-7.1z"/><path fill="#FFF" d="M60.7 20.7c1.9 0 3.5-1.6 3.5-3.5h-7c0 2 1.5 3.5 3.5 3.5z"/><circle fill="#5E3E32" cx="57.2" cy="12" r=".9"/><circle fill="#5E3E32" cx="64.5" cy="12" r=".9"/><path fill="#6B3E3E" d="M57.4 18.3c.5 1.4 1.8 2.4 3.3 2.4s2.8-1 3.3-2.4h-6.6z"/><path fill="#B19A4E" d="M52.8 9.8s3.6-1.6 4.9-2.7C59 6 59.2 4.8 59.2 4.8s1.5 3.6 4.1 4.2 4.7.2 4.7.2.8-4.6-2.5-6.7C62.2.4 59.2.1 57.4.9s-4.6 3.4-4.6 5.2v3.7z"/><path d="M67.9 8.1L66.5 10l-1.7-2.9 2.3-.3m2.5.3l2.3-.3-1.7-2.9-1.4 1.9m.5 1.9l-.7.4c-.3.2-.8.1-.9-.2l-.4-.7c-.2-.3-.1-.8.2-.9l.7-.4c.3-.2.8-.1.9.2l.4.7c.2.3.1.7-.2.9z" fill="#B04F46"/><ellipse transform="matrix(.821 -.571 .571 .821 8.422 32.596)" fill="#FFF" cx="56.2" cy="2.9" rx="1.6" ry=".5"/><ellipse fill="#8F5741" cx="114.6" cy="8.6" rx="9.1" ry="8.6"/><path fill="#F5CA48" d="M121.7 8.6c0-3.9-3.2-7.1-7.1-7.1-3.9 0-7.1 3.2-7.1 7.1v7.3c0 3.9 3.2 7.1 7.1 7.1 3.9 0 7.1-3.2 7.1-7.1V8.6z"/><path fill="#E9B846" d="M114.6 1.5c-.4 0-.7 0-1.1.1l1.1 4.3s1.5 5.6 2 7c1 2.9-.9 2.6-2 2.6s0 7.5 0 7.5c3.9 0 7.1-3.2 7.1-7.1V8.6c0-3.9-3.2-7.1-7.1-7.1z"/><path fill="#FFF" d="M114.6 20.9c1.9 0 3.5-1.6 3.5-3.5h-7c0 2 1.6 3.5 3.5 3.5z"/><circle fill="#5E3E32" cx="111.1" cy="12.2" r=".9"/><circle fill="#5E3E32" cx="118.4" cy="12.2" r=".9"/><path fill="#6B3E3E" d="M111.3 18.5c.5 1.4 1.8 2.4 3.3 2.4s2.8-1 3.3-2.4h-6.6z"/><path fill="#8F5741" d="M106.8 10s3.6-1.6 4.9-2.7c1.3-1.1 1.5-2.3 1.5-2.3s1.5 3.6 4.1 4.2c2.6.6 4.7.2 4.7.2s.8-4.6-2.5-6.7c-3.3-2.1-6.3-2.4-8.1-1.6s-4.6 3.4-4.6 5.2V10z"/><path fill="#8F5741" d="M107.8 8.7s-.9 3.8.5 6.8c.8 1.8 1.4 2.8 1.4 2.8s-3.8-1.3-5.1-4.5c-1.2-3.2.6-8.2 2.7-10.3 1.4-1.4 1.8 2.8 1.8 2.8l-1.3 2.4zm13.6.3s.8 2.3-.3 5.4c-.6 1.5-1.7 3.1-1.7 3.1s3-1 4-2.6c1.6-2.5 2.1-8-.8-11-2-2.1-4.5-2.4-4.5-2.4l3.3 7.5z"/><ellipse transform="matrix(.821 -.571 .571 .821 17.851 63.441)" fill="#FFF" cx="110.2" cy="3.2" rx="1.6" ry=".5"/><ellipse fill="#5E3E32" cx="-9.6" cy="-88.9" rx="8.2" ry="7.8"/><path fill="#E9B846" d="M-16.7-89.9v9.9c0 3.9 3.2 7.1 7.1 7.1 3.9 0 7.1-3.2 7.1-7.1v-9.9h-14.2z"/><path fill="#F5CA48" d="M-9.6-80.4c1.1 0 3 .3 2-2.6-.5-1.4-2-7-2-7h-7.1v9.9c0 3.9 3.2 7.1 7.1 7.1 0 .1-1.1-7.4 0-7.4z"/><circle fill="#5E3E32" cx="-5.1" cy="-83.7" r=".9"/><path fill="#5E3E32" d="M-4.8-77.2c-1.1 0-2.7-1.9-4.8-1.9-2.1 0-3.7 1.9-4.8 1.9s-2.3-2.6-2.3-2.6.2 7.1 5.8 7.1h2.5c5.7 0 5.8-7.1 5.8-7.1s-1.1 2.6-2.2 2.6zm-4.8 2.9c-1.7 0-3.1-.9-3.1-1.9 0-1.1 1.4-1.9 3.1-1.9s3.1.9 3.1 1.9c-.1 1.1-1.5 1.9-3.1 1.9z"/><circle fill="#5E3E32" cx="-13" cy="-83.7" r=".9"/><path fill="#5E3E32" d="M-2.5-89.4h1.1v7.2h-1.1zm-15.3 0h1.1v6.6h-1.1z"/><path fill="#5E3E32" d="M-13-89.7s1.2 1.2 2.5 2 3.5.8 4.7.7c1.1 0 3.2-.6 3.3.8.2 1.3.6 1 .6 1s.5-4.2 0-5.1S-8-92.4-8-92.4s-8.2 1-8.6 1.4c-.4.5-.9 4-.9 5s1.1-.2 2.1-1 2.4-2.7 2.4-2.7z"/><ellipse transform="matrix(.821 -.571 .571 .821 50.885 -24.66)" fill="#FFF" cx="-13.9" cy="-93.5" rx="1.6" ry=".5"/><path fill="#5E3E32" d="M103.7-83.4H91.2c-.9 0-1.6-.7-1.6-1.6v-5.7c0-.9.7-1.6 1.6-1.6h12.6c.9 0 1.6.7 1.6 1.6v5.7c0 .8-.8 1.6-1.7 1.6z"/><path fill="#F5CA48" d="M104.5-87.9c0-3.9-3.2-7.1-7.1-7.1-3.9 0-7.1 3.2-7.1 7.1v7.3c0 3.9 3.2 7.1 7.1 7.1 3.9 0 7.1-3.2 7.1-7.1v-7.3z"/><path fill="#E9B846" d="M97.4-95c-.4 0-.7 0-1.1.1l1.1 4.3s1.5 5.6 2 7c1 2.9-.9 2.6-2 2.6s0 7.5 0 7.5c3.9 0 7.1-3.2 7.1-7.1v-7.2c0-4-3.2-7.2-7.1-7.2z"/><circle fill="#5E3E32" cx="93.5" cy="-85.2" r=".9"/><circle fill="#5E3E32" cx="101.4" cy="-85.2" r=".9"/><path fill="#FFF" d="M97.4-75.4c1.9 0 3.5-1.6 3.5-3.5h-7c0 1.9 1.6 3.5 3.5 3.5z"/><path fill="#6B3E3E" d="M94.1-77.8c.5 1.4 1.8 2.4 3.3 2.4s2.8-1 3.3-2.4h-6.6z"/><path fill="#5E3E32" d="M89.8-93.5c0 5.2 6.4 4.9 9.4 4.9 10 0 6.8-8.5 6.4-9.7s-.9 2.3-3.6 2.7c-2.7.5-4.2-1.4-7-1.4-2.5.1-5.2.7-5.2 3.5z"/><ellipse transform="matrix(.821 -.571 .571 .821 70.301 36.539)" fill="#FFF" cx="93.5" cy="-93.9" rx="1.6" ry=".5"/><circle fill="#281B18" cx="-43.6" cy="6.9" r="9.4"/><path fill="#281B18" d="M-52.9 6.7h18.7v14.9h-18.7z"/><path fill="#F5CA48" d="M-36.4 7.2c0-3.9-3.2-7.1-7.1-7.1-3.9 0-7.1 3.2-7.1 7.1v7.3c0 3.9 3.2 7.1 7.1 7.1 3.9 0 7.1-3.2 7.1-7.1V7.2z"/><path fill="#E9B846" d="M-43.5.2c-.4 0-.7 0-1.1.1l1.1 4.3s1.5 5.6 2 7c1 2.9-.9 2.6-2 2.6s0 7.5 0 7.5c3.9 0 7.1-3.2 7.1-7.1V7.2c0-3.9-3.2-7-7.1-7z"/><path fill="#FFF" d="M-43.5 19.6c1.9 0 3.5-1.6 3.5-3.5h-7c-.1 1.9 1.5 3.5 3.5 3.5z"/><path fill="#6B3E3E" d="M-46.8 17.2c.5 1.4 1.8 2.4 3.3 2.4s2.8-1 3.3-2.4h-6.6z"/><circle fill="#5E3E32" cx="-47.4" cy="11.1" r=".9"/><circle fill="#5E3E32" cx="-39.6" cy="11.1" r=".9"/><path fill="#281B18" d="M-51.4 6.9h15.8s-2-6-5.4-6.9c-3.4-.9-5.5-.9-7 .4-1.7 1.2-3.4 6.5-3.4 6.5z"/><ellipse transform="matrix(.821 -.571 .571 .821 -10.56 -27.383)" fill="#FFF" cx="-49" cy="3.2" rx="1.6" ry=".5"/><path fill="#473421" d="M138.6-80h-9.1c-2.3 0-4.2-1.9-4.2-4.2v-2.7c0-2.3 1.9-4.2 4.2-4.2h9.1c2.3 0 4.2 1.9 4.2 4.2v2.7c-.1 2.4-2 4.2-4.2 4.2z"/><circle fill="#F5CA48" cx="126.9" cy="-84.4" r="2.6"/><circle fill="#E9B846" cx="140.8" cy="-84.4" r="2.6"/><path fill="#F5CA48" d="M141.1-87.8c0-3.9-3.2-7.1-7.1-7.1-3.9 0-7.1 3.2-7.1 7.1v7.3c0 3.9 3.2 7.1 7.1 7.1 3.9 0 7.1-3.2 7.1-7.1v-7.3z"/><path fill="#E9B846" d="M134-94.9c-.4 0-.7 0-1.1.1l1.1 4.3s1.5 5.6 2 7c1 2.9-.9 2.6-2 2.6s0 7.5 0 7.5c3.9 0 7.1-3.2 7.1-7.1v-7.2c0-4-3.2-7.2-7.1-7.2z"/><path fill="#FFF" d="M134-75.5c1.9 0 3.5-1.6 3.5-3.5h-7c0 1.9 1.5 3.5 3.5 3.5z"/><circle fill="#5E3E32" cx="130.3" cy="-84.2" r=".9"/><circle fill="#5E3E32" cx="137.8" cy="-84.2" r=".9"/><ellipse transform="matrix(.821 -.571 .571 .821 75.834 57.926)" fill="#FFF" cx="130.4" cy="-92.1" rx="1.6" ry=".5"/><path fill="#6B3E3E" d="M130.7-77.9c.5 1.4 1.8 2.4 3.3 2.4s2.8-1 3.3-2.4h-6.6z"/><path fill="#473421" d="M132-86.7h-3.3c-.5 0-.9-.4-.9-.9s.4-.9.9-.9h3.3c.5 0 .9.4.9.9-.1.5-.5.9-.9.9zm7.5 0h-3.3c-.5 0-.9-.4-.9-.9s.4-.9.9-.9h3.3c.5 0 .9.4.9.9-.1.5-.4.9-.9.9z"/><ellipse fill="#4D3330" cx="4.7" cy="-40.8" rx="9.1" ry="8.6"/><path fill="#F5CA48" d="M11.8-40.8c0-3.9-3.2-7.1-7.1-7.1-3.9 0-7.1 3.2-7.1 7.1v7.3c0 3.9 3.2 7.1 7.1 7.1 3.9 0 7.1-3.2 7.1-7.1v-7.3z"/><path fill="#E9B846" d="M4.7-47.8c-.4 0-.7 0-1.1.1l1.1 4.3s1.5 5.6 2 7c1 2.9-.9 2.6-2 2.6s0 7.5 0 7.5c3.9 0 7.1-3.2 7.1-7.1v-7.3c0-4-3.2-7.1-7.1-7.1z"/><path fill="#FFF" d="M4.7-28.4c1.9 0 3.5-1.6 3.5-3.5h-7c0 1.9 1.5 3.5 3.5 3.5z"/><circle fill="#5E3E32" cx="1.2" cy="-37.2" r=".9"/><circle fill="#5E3E32" cx="8.5" cy="-37.2" r=".9"/><path fill="#6B3E3E" d="M1.4-30.8c.5 1.4 1.8 2.4 3.3 2.4s2.8-1 3.3-2.4H1.4z"/><path fill="#4D3330" d="M-3.2-39.4S.4-41 1.7-42.1c1.3-1.1 1.5-2.3 1.5-2.3s1.5 3.6 4.1 4.2c2.6.7 4.7.2 4.7.2s.8-4.6-2.5-6.7c-3.3-2.1-6.3-2.4-8.1-1.6-1.8.8-4.6 3.4-4.6 5.2v3.7z"/><ellipse transform="matrix(.821 -.571 .571 .821 26.38 -8.109)" fill="#FFF" cx=".2" cy="-46.2" rx="1.6" ry=".5"/><g><path fill="#4D3330" d="M58.8-34.2H64l-2-6.9c-.2-4.6-4.2-8.3-9-8.3-4.9 0-8.9 3.7-9 8.3l-2 6.9h5.2c1.6 1.3 3.6 2 5.8 2s4.2-.7 5.8-2z"/><path fill="#F5CA48" d="M60-40.8c0-3.9-3.2-7.1-7.1-7.1-3.9 0-7.1 3.2-7.1 7.1v7.3c0 3.9 3.2 7.1 7.1 7.1 3.9 0 7.1-3.2 7.1-7.1v-7.3z"/><path fill="#E9B846" d="M53-47.8c-.4 0-.7 0-1.1.1l1.1 4.3s1.5 5.6 2 7c1 2.9-.9 2.6-2 2.6s0 7.5 0 7.5c3.9 0 7.1-3.2 7.1-7.1v-7.3c-.1-4-3.2-7.1-7.1-7.1z"/><path fill="#FFF" d="M52.9-28.4c1.9 0 3.5-1.6 3.5-3.5h-7c0 1.9 1.6 3.5 3.5 3.5z"/><circle fill="#5E3E32" cx="49.4" cy="-37.2" r=".9"/><circle fill="#5E3E32" cx="56.8" cy="-37.2" r=".9"/><path fill="#6B3E3E" d="M49.6-30.8c.5 1.4 1.8 2.4 3.3 2.4s2.8-1 3.3-2.4h-6.6z"/><ellipse transform="matrix(.821 -.571 .571 .821 35.005 19.422)" fill="#FFF" cx="48.5" cy="-46.2" rx="1.6" ry=".5"/><path fill="#4D3330" d="M50.7-45.1s1.4 2.6 2.3 3.2c1.2.9 2.9.8 2.9.8l-1-.9s1.4.6 2.4.8c1.2.3 3 0 3 0s-.8-5.2-3.2-6c-2.4-.9-7.2-1.1-7.6-.6-.4.4-3.5 2.4-4 4.9s-.5 3.3-.5 3.3 2.2-.8 3.1-2c.6-.8.5-.8.5-.8l-.6 1.3s1.5-1.1 2-2.1c.6-1 .7-1.9.7-1.9z"/></g></svg>