<svg width="21" height="31" xmlns="http://www.w3.org/2000/svg" viewBox="0 0 14.2 21.4"><path fill="#5E3E32" d="M-146.7 10.1h18v3.7h-18z"/><path fill="#E9B846" d="M-144.8 4.5v9.9c0 3.9 3.2 7.1 7.1 7.1 3.9 0 7.1-3.2 7.1-7.1V4.5h-14.2z"/><path fill="#F5CA48" d="M-137.7 14c1.1 0 3 .3 2-2.6-.5-1.4-2-7-2-7h-7.1v9.9c0 3.9 3.2 7.1 7.1 7.1 0 .1-1.1-7.4 0-7.4z"/><path fill="#FFF" d="M-137.7 19.4c1.9 0 3.5-1.6 3.5-3.5h-7c0 2 1.6 3.5 3.5 3.5z"/><path fill="#5E3E32" d="M-134.7 4.6s-.6 2.4-3.9 2.7-5.9 1.1-6.1 3.1-.1 3.4-.1 3.4h-1.8s-1.7-14.2 8.9-14.2c10.8 0 9.1 14.2 9.1 14.2h-1.9s-.1-3-.1-4.5-1.4-1.6-2.6-2.6c-1.3-1.1-1.5-2.1-1.5-2.1z"/><circle fill="#5E3E32" cx="-141.2" cy="10.7" r=".9"/><circle fill="#5E3E32" cx="-133.3" cy="10.7" r=".9"/><ellipse transform="matrix(.821 -.571 .571 .821 -26.629 -80.315)" fill="#FFF" cx="-141.5" cy="2.3" rx="1.6" ry=".5"/><path fill="#6B3E3E" d="M-141 17c.5 1.4 1.8 2.4 3.3 2.4s2.8-1 3.3-2.4h-6.6z"/><path fill="#E9B846" d="M-74.9-39.8v9.9c0 3.9 3.2 7.1 7.1 7.1 3.9 0 7.1-3.2 7.1-7.1v-9.9h-14.2z"/><path fill="#F5CA48" d="M-67.7-30.3c1.1 0 3 .3 2-2.6-.5-1.4-2-7-2-7h-7.1v9.9c0 3.9 3.2 7.1 7.1 7.1 0 .1-1.1-7.4 0-7.4z"/><path fill="none" stroke="#473421" stroke-linecap="round" stroke-miterlimit="10" d="M-70.5-26.8s1.1 1.1 2.5 1.1c1.7 0 2.7-1.1 2.7-1.1"/><path fill="#291D11" d="M-67.9-42.9h4.6l3.1-3.6v16.2s-1.6-.6-3.4-.3c-2.3.3-4 2.3-4 2.3h-.6s-1.7-2-4-2.3c-1.8-.2-3.4.3-3.4.3v-16.2l3.1 3.6h4.6"/><path fill="#FFF" d="M-73.3-34.4l3.5 1.5s-.9 1.2-1.7.8c-.9-.4-1.8-2.3-1.8-2.3zm11 0l-3.5 1.5s.9 1.2 1.7.8c.9-.4 1.8-2.3 1.8-2.3z"/><circle fill="#F5CA48" cx="-146.5" cy="-35" r="2.6"/><circle fill="#E9B846" cx="-132.6" cy="-35" r="2.6"/><path fill="#F5CA48" d="M-132.3-38.4c0-3.9-3.2-7.1-7.1-7.1-3.9 0-7.1 3.2-7.1 7.1v7.3c0 3.9 3.2 7.1 7.1 7.1 3.9 0 7.1-3.2 7.1-7.1v-7.3z"/><path fill="#E9B846" d="M-139.4-45.5c-.4 0-.7 0-1.1.1l1.1 4.3s1.5 5.6 2 7c1 2.9-.9 2.6-2 2.6s0 7.5 0 7.5c3.9 0 7.1-3.2 7.1-7.1v-7.2c0-4-3.2-7.2-7.1-7.2z"/><path fill="#FFF" d="M-139.4-26.1c1.9 0 3.5-1.6 3.5-3.5h-7c-.1 1.9 1.5 3.5 3.5 3.5z"/><circle fill="#5E3E32" cx="-143" cy="-34.8" r=".9"/><circle fill="#5E3E32" cx="-135.6" cy="-34.8" r=".9"/><ellipse transform="matrix(.821 -.571 .571 .821 -1.228 -89.248)" fill="#FFF" cx="-143.1" cy="-42.7" rx="1.6" ry=".5"/><path fill="#6B3E3E" d="M-142.7-28.5c.5 1.4 1.8 2.4 3.3 2.4s2.8-1 3.3-2.4h-6.6z"/><path fill="none" stroke="#473421" stroke-width=".5" stroke-miterlimit="10" d="M-142-32.7h-2.7c-.6 0-1.2-.5-1.2-1.2v-2c0-.6.5-1.2 1.2-1.2h2.7c.6 0 1.2.5 1.2 1.2v2c0 .7-.6 1.2-1.2 1.2zm8.2 0h-2.7c-.6 0-1.2-.5-1.2-1.2v-2c0-.6.5-1.2 1.2-1.2h2.7c.6 0 1.2.5 1.2 1.2v2c0 .7-.6 1.2-1.2 1.2z"/><path fill="none" stroke="#473421" stroke-width=".5" stroke-miterlimit="10" d="M-140.8-34.6s.7-1 1.6-1c.9 0 1.6.8 1.6.8"/><circle fill="#5E3E32" cx="-24.7" cy="-38.5" r="1.9"/><circle fill="#5E3E32" cx="-24.7" cy="-34.8" r="1.9"/><circle fill="#5E3E32" cx="-39.2" cy="-38.8" r="1.9"/><circle fill="#5E3E32" cx="-39.2" cy="-35" r="1.9"/><path fill="#E9B846" d="M-38.9-40.8v9.9c0 3.9 3.2 7.1 7.1 7.1 3.9 0 7.1-3.2 7.1-7.1v-9.9h-14.2z"/><path fill="#F5CA48" d="M-31.8-31.3c1.1 0 3 .3 2-2.6-.5-1.4-2-7-2-7h-7.1v9.9c0 3.9 3.2 7.1 7.1 7.1 0 .1-1.2-7.4 0-7.4z"/><circle fill="#5E3E32" cx="-35.4" cy="-34.5" r=".9"/><circle fill="#5E3E32" cx="-27.4" cy="-34.5" r=".9"/><path fill="#5E3E32" d="M-27.9-29.9c-.1-.3-.4-.5-.8-.5h-6.2c-.4 0-.7.2-.8.5 0 .1-.1.2-.1.3v4.9c0 .5.4.9.9.9s.9-.4.9-.9v-4h4.5v4c0 .5.4.9.9.9s.9-.4.9-.9v-4.9c-.1-.1-.2-.2-.2-.3z"/><circle fill="#5E3E32" cx="-33.7" cy="-40.9" r="1.9"/><circle fill="#5E3E32" cx="-30" cy="-40.9" r="1.9"/><circle fill="#5E3E32" cx="-26.3" cy="-40.9" r="1.9"/><circle fill="#5E3E32" cx="-37.3" cy="-40.9" r="1.9"/><circle fill="#5E3E32" cx="-33.7" cy="-43" r="1.9"/><circle fill="#5E3E32" cx="-39.2" cy="-42.4" r="1.9"/><circle fill="#5E3E32" cx="-24.7" cy="-42.3" r="1.9"/><circle fill="#5E3E32" cx="-35.5" cy="-46" r="1.9"/><circle fill="#5E3E32" cx="-31.8" cy="-46" r="1.9"/><circle fill="#5E3E32" cx="-28.2" cy="-46" r="1.9"/><path fill="#5E3E32" d="M-38.9-45.9c-.1.2-.3 3.1-.3 3.1l1.4 1.6 2.5.5 9.5-.6 1.1-2.7-.3-1.6-2-.5h-5.7l-6.2.2z"/><circle fill="#5E3E32" cx="-25.7" cy="-44.5" r="1.9"/><circle fill="#5E3E32" cx="-38.1" cy="-44.9" r="1.9"/><ellipse transform="matrix(.821 -.571 .571 .821 18.482 -29.224)" fill="#FFF" cx="-37.4" cy="-44.1" rx="1.6" ry=".5"/><path fill="#5E3E32" d="M-94.1 60.5h18.2v10.3h-18.2z"/><path fill="#E9B846" d="M-92.1 53.8v9.9c0 3.9 3.2 7.1 7.1 7.1 3.9 0 7.1-3.2 7.1-7.1v-9.9h-14.2z"/><path fill="#F5CA48" d="M-85.1 63.3c1.1 0 3 .3 2-2.6-.5-1.4-2-7-2-7h-7.1v9.9c0 3.9 3.2 7.1 7.1 7.1 0 .1-1.1-7.4 0-7.4z"/><path fill="#5E3E32" d="M-82 54s-.6 2.4-3.9 2.7c-3.3.3-5.9 1.1-6.1 3.1-.2 2.1-.1 3.4-.1 3.4H-94S-95.7 49-85.1 49c10.8 0 9.1 14.2 9.1 14.2h-2s-.1-3-.1-4.5-1.4-1.6-2.6-2.6c-1.1-1-1.3-2.1-1.3-2.1z"/><circle fill="#5E3E32" cx="-88.6" cy="60" r=".9"/><circle fill="#5E3E32" cx="-80.6" cy="60" r=".9"/><ellipse transform="matrix(.821 -.571 .571 .821 -45.368 -41.465)" fill="#FFF" cx="-88.9" cy="51.7" rx="1.6" ry=".5"/><path fill="#FFF" d="M-84.6 68.9c1.9 0 3.5-1.6 3.5-3.5h-7c0 2 1.5 3.5 3.5 3.5z"/><path fill="#6B3E3E" d="M-87.9 66.5c.5 1.4 1.8 2.4 3.3 2.4s2.8-1 3.3-2.4h-6.6z"/><path fill="#71A266" d="M14.2 7.1C14.2 3.2 11 0 7.1 0 3.2 0 0 3.2 0 7.1v7.3c0 3.9 3.2 7.1 7.1 7.1 3.9 0 7.1-3.2 7.1-7.1V7.1z"/><path fill="#628F59" d="M7.1 0c-.4 0-.7 0-1.1.1l1.1 4.3s1.5 5.6 2 7c1 2.9-.9 2.6-2 2.6s0 7.5 0 7.5c3.9 0 7.1-3.2 7.1-7.1V7.1C14.2 3.2 11 0 7.1 0z"/><path fill="#FFF" d="M7.1 19.4c1.9 0 3.5-1.6 3.5-3.5h-7c0 1.9 1.5 3.5 3.5 3.5z"/><ellipse transform="matrix(.821 -.571 .571 .821 -.987 2.478)" fill="#9BC391" cx="3.5" cy="2.8" rx="1.6" ry=".5"/><path fill="#2E3D2F" d="M3.8 17c.5 1.4 1.8 2.4 3.3 2.4s2.8-1 3.3-2.4H3.8z"/><ellipse transform="matrix(.726 .688 -.688 .726 7.324 .425)" fill="#2E3D2F" cx="3.1" cy="9.4" rx="2.2" ry="1.2"/><ellipse transform="matrix(-.726 .688 -.688 -.726 26.39 8.274)" fill="#2E3D2F" cx="11.5" cy="9.4" rx="2.2" ry="1.2"/><ellipse fill="#B19A4E" cx="-33.4" cy="57.4" rx="9.1" ry="8.6"/><path fill="#B19A4E" d="M-42.5 57.8h18.1V71h-18.1z"/><path fill="#F5CA48" d="M-26.4 57.5c0-3.9-3.2-7.1-7.1-7.1-3.9 0-7.1 3.2-7.1 7.1v7.3c0 3.9 3.2 7.1 7.1 7.1 3.9 0 7.1-3.2 7.1-7.1v-7.3z"/><path fill="#E9B846" d="M-33.4 50.4c-.4 0-.7 0-1.1.1l1.1 4.3s1.5 5.6 2 7c1 2.9-.9 2.6-2 2.6s0 7.5 0 7.5c3.9 0 7.1-3.2 7.1-7.1v-7.2c-.1-4.1-3.2-7.2-7.1-7.2z"/><path fill="#FFF" d="M-33.5 69.8c1.9 0 3.5-1.6 3.5-3.5h-7c0 1.9 1.6 3.5 3.5 3.5z"/><circle fill="#5E3E32" cx="-37" cy="61" r=".9"/><circle fill="#5E3E32" cx="-29.6" cy="61" r=".9"/><path fill="#6B3E3E" d="M-36.8 67.4c.5 1.4 1.8 2.4 3.3 2.4 1.5 0 2.8-1 3.3-2.4h-6.6z"/><path fill="#B19A4E" d="M-41.3 58.9s3.6-1.6 4.9-2.7c1.3-1.1 1.5-2.3 1.5-2.3s1.5 3.6 4.1 4.2c2.6.6 4.7.2 4.7.2s.8-4.6-2.5-6.7c-3.3-2.1-6.3-2.4-8.1-1.6-1.8.8-4.6 3.4-4.6 5.2v3.7z"/><path d="M-26.3 57.2l-1.4 1.8-1.7-2.8 2.4-.4m2.5.3l2.3-.3-1.7-2.9-1.4 1.9m.4 1.9l-.7.4c-.3.2-.8.1-.9-.2l-.4-.7c-.2-.3-.1-.8.2-.9l.7-.4c.3-.2.8-.1.9.2l.4.7c.3.3.2.7-.2.9z" fill="#B04F46"/><ellipse transform="matrix(.821 -.571 .571 .821 -36.387 -12.344)" fill="#FFF" cx="-37.9" cy="51.9" rx="1.6" ry=".5"/><ellipse fill="#8F5741" cx="20.5" cy="57.7" rx="9.1" ry="8.6"/><path fill="#F5CA48" d="M27.6 57.7c0-3.9-3.2-7.1-7.1-7.1-3.9 0-7.1 3.2-7.1 7.1V65c0 3.9 3.2 7.1 7.1 7.1 3.9 0 7.1-3.2 7.1-7.1v-7.3z"/><path fill="#E9B846" d="M20.5 50.6c-.4 0-.7 0-1.1.1l1.1 4.3s1.5 5.6 2 7c1 2.9-.9 2.6-2 2.6s0 7.5 0 7.5c3.9 0 7.1-3.2 7.1-7.1v-7.2c0-4-3.2-7.2-7.1-7.2z"/><path fill="#FFF" d="M20.5 70c1.9 0 3.5-1.6 3.5-3.5h-7c0 1.9 1.5 3.5 3.5 3.5z"/><circle fill="#5E3E32" cx="17" cy="61.3" r=".9"/><circle fill="#5E3E32" cx="24.3" cy="61.3" r=".9"/><path fill="#6B3E3E" d="M17.2 67.6C17.7 69 19 70 20.5 70s2.8-1 3.3-2.4h-6.6z"/><path fill="#8F5741" d="M12.6 59.1s3.6-1.6 4.9-2.7c1.3-1.1 1.5-2.3 1.5-2.3s1.5 3.6 4.1 4.2c2.6.6 4.7.2 4.7.2s.8-4.6-2.5-6.7-6.3-2.4-8.1-1.6-4.6 3.4-4.6 5.2v3.7z"/><path fill="#8F5741" d="M13.7 57.8s-.9 3.8.5 6.8c.8 1.8 1.4 2.8 1.4 2.8s-3.8-1.3-5.1-4.5c-1.2-3.2.6-8.2 2.7-10.3 1.4-1.4 1.8 2.8 1.8 2.8l-1.3 2.4zm13.6.3s.8 2.3-.3 5.4c-.6 1.5-1.7 3.1-1.7 3.1s3-1 4-2.6c1.6-2.5 2.1-8-.8-11-2-2.1-4.5-2.4-4.5-2.4l3.3 7.5z"/><ellipse transform="matrix(.821 -.571 .571 .821 -26.958 18.5)" fill="#FFF" cx="16" cy="52.3" rx="1.6" ry=".5"/><ellipse fill="#5E3E32" cx="-103.7" cy="-39.8" rx="8.2" ry="7.8"/><path fill="#E9B846" d="M-110.8-40.9v9.9c0 3.9 3.2 7.1 7.1 7.1 3.9 0 7.1-3.2 7.1-7.1v-9.9h-14.2z"/><path fill="#F5CA48" d="M-103.7-31.3c1.1 0 3 .3 2-2.6-.5-1.4-2-7-2-7h-7.1v9.9c0 3.9 3.2 7.1 7.1 7.1 0 0-1.1-7.4 0-7.4z"/><circle fill="#5E3E32" cx="-99.3" cy="-34.6" r=".9"/><path fill="#5E3E32" d="M-98.9-28.2c-1.1 0-2.7-1.9-4.8-1.9-2.1 0-3.7 1.9-4.8 1.9s-2.3-2.6-2.3-2.6.2 7.1 5.8 7.1h2.5c5.7 0 5.8-7.1 5.8-7.1s-1.1 2.6-2.2 2.6zm-4.9 3c-1.7 0-3.1-.9-3.1-1.9 0-1.1 1.4-1.9 3.1-1.9s3.1.9 3.1 1.9c0 1-1.4 1.9-3.1 1.9z"/><circle fill="#5E3E32" cx="-107.1" cy="-34.6" r=".9"/><path fill="#5E3E32" d="M-96.6-40.3h1.1v7.2h-1.1zm-15.3 0h1.1v6.6h-1.1z"/><path fill="#5E3E32" d="M-107.1-40.7s1.2 1.2 2.5 2c1.2.8 3.6.8 4.7.7 1.1 0 3.2-.6 3.3.8.2 1.3.6 1 .6 1s.5-4.2 0-5.1-6.1-2.2-6.1-2.2-8.2 1-8.6 1.4c-.4.5-.9 4-.9 5s1.1-.2 2.1-1 2.4-2.6 2.4-2.6z"/><ellipse transform="matrix(.821 -.571 .571 .821 6.075 -69.601)" fill="#FFF" cx="-108" cy="-44.5" rx="1.6" ry=".5"/><path fill="#5E3E32" d="M9.6-34.4H-3c-.9 0-1.6-.7-1.6-1.6v-5.7c0-.9.7-1.6 1.6-1.6H9.6c.9 0 1.6.7 1.6 1.6v5.7c0 .9-.7 1.6-1.6 1.6z"/><path fill="#F5CA48" d="M10.4-38.9c0-3.9-3.2-7.1-7.1-7.1-3.9 0-7.1 3.2-7.1 7.1v7.3c0 3.9 3.2 7.1 7.1 7.1 3.9 0 7.1-3.2 7.1-7.1v-7.3z"/><path fill="#E9B846" d="M3.3-45.9c-.4 0-.7 0-1.1.1l1.1 4.3s1.5 5.6 2 7c1 2.9-.9 2.6-2 2.6s0 7.5 0 7.5c3.9 0 7.1-3.2 7.1-7.1v-7.2c0-4.1-3.2-7.2-7.1-7.2z"/><circle fill="#5E3E32" cx="-.7" cy="-36.2" r=".9"/><circle fill="#5E3E32" cx="7.3" cy="-36.2" r=".9"/><path fill="#FFF" d="M3.3-26.3c1.9 0 3.5-1.6 3.5-3.5h-7c0 1.9 1.5 3.5 3.5 3.5z"/><path fill="#6B3E3E" d="M0-28.7c.5 1.4 1.8 2.4 3.3 2.4s2.8-1 3.3-2.4H0z"/><path fill="#5E3E32" d="M-4.3-44.5c0 5.2 6.4 4.9 9.4 4.9 10 0 6.8-8.5 6.4-9.7S10.7-47 8-46.5s-4.2-1.4-7-1.4c-2.6 0-5.3.7-5.3 3.4z"/><ellipse transform="matrix(.821 -.571 .571 .821 25.491 -8.402)" fill="#FFF" cx="-.7" cy="-44.9" rx="1.6" ry=".5"/><circle fill="#281B18" cx="-137.7" cy="56" r="9.4"/><path fill="#281B18" d="M-147.1 55.8h18.7v14.9h-18.7z"/><path fill="#F5CA48" d="M-130.6 56.3c0-3.9-3.2-7.1-7.1-7.1-3.9 0-7.1 3.2-7.1 7.1v7.3c0 3.9 3.2 7.1 7.1 7.1 3.9 0 7.1-3.2 7.1-7.1v-7.3z"/><path fill="#E9B846" d="M-137.7 49.2c-.4 0-.7 0-1.1.1l1.1 4.3s1.5 5.6 2 7c1 2.9-.9 2.6-2 2.6s0 7.5 0 7.5c3.9 0 7.1-3.2 7.1-7.1v-7.3c0-3.9-3.1-7.1-7.1-7.1z"/><path fill="#FFF" d="M-137.7 68.6c1.9 0 3.5-1.6 3.5-3.5h-7c0 1.9 1.6 3.5 3.5 3.5z"/><path fill="#6B3E3E" d="M-141 66.2c.5 1.4 1.8 2.4 3.3 2.4s2.8-1 3.3-2.4h-6.6z"/><circle fill="#5E3E32" cx="-141.5" cy="60.1" r=".9"/><circle fill="#5E3E32" cx="-133.7" cy="60.1" r=".9"/><path fill="#281B18" d="M-145.6 56h15.8s-2-6-5.4-6.9-5.5-.9-7 .4c-1.6 1.1-3.4 6.5-3.4 6.5z"/><ellipse transform="matrix(.821 -.571 .571 .821 -55.37 -72.324)" fill="#FFF" cx="-143.1" cy="52.2" rx="1.6" ry=".5"/><path fill="#473421" d="M44.4-30.9h-9.1c-2.3 0-4.2-1.9-4.2-4.2v-2.7c0-2.3 1.9-4.2 4.2-4.2h9.1c2.3 0 4.2 1.9 4.2 4.2v2.7c0 2.3-1.9 4.2-4.2 4.2z"/><circle fill="#F5CA48" cx="32.8" cy="-35.4" r="2.6"/><circle fill="#E9B846" cx="46.7" cy="-35.4" r="2.6"/><path fill="#F5CA48" d="M47-38.8c0-3.9-3.2-7.1-7.1-7.1-3.9 0-7.1 3.2-7.1 7.1v7.3c0 3.9 3.2 7.1 7.1 7.1 3.9 0 7.1-3.2 7.1-7.1v-7.3z"/><path fill="#E9B846" d="M39.9-45.8c-.4 0-.7 0-1.1.1l1.1 4.3s1.5 5.6 2 7c1 2.9-.9 2.6-2 2.6s0 7.5 0 7.5c3.9 0 7.1-3.2 7.1-7.1v-7.3c0-4-3.2-7.1-7.1-7.1z"/><path fill="#FFF" d="M39.9-26.4c1.9 0 3.5-1.6 3.5-3.5h-7c-.1 1.9 1.5 3.5 3.5 3.5z"/><circle fill="#5E3E32" cx="36.2" cy="-35.2" r=".9"/><circle fill="#5E3E32" cx="43.7" cy="-35.2" r=".9"/><ellipse transform="matrix(.821 -.571 .571 .821 31.024 12.986)" fill="#FFF" cx="36.2" cy="-43" rx="1.6" ry=".5"/><path fill="#6B3E3E" d="M36.6-28.8c.5 1.4 1.8 2.4 3.3 2.4s2.8-1 3.3-2.4h-6.6z"/><path fill="#473421" d="M37.8-37.7h-3.3c-.5 0-.9-.4-.9-.9s.4-.9.9-.9h3.3c.5 0 .9.4.9.9s-.4.9-.9.9zm7.6 0H42c-.5 0-.9-.4-.9-.9s.4-.9.9-.9h3.3c.5 0 .9.4.9.9s-.4.9-.8.9z"/><ellipse fill="#4D3330" cx="-89.4" cy="8.3" rx="9.1" ry="8.6"/><path fill="#F5CA48" d="M-82.3 8.3c0-3.9-3.2-7.1-7.1-7.1-3.9 0-7.1 3.2-7.1 7.1v7.3c0 3.9 3.2 7.1 7.1 7.1 3.9 0 7.1-3.2 7.1-7.1V8.3z"/><path fill="#E9B846" d="M-89.4 1.2c-.4 0-.7 0-1.1.1l1.1 4.3s1.5 5.6 2 7c1 2.9-.9 2.6-2 2.6s0 7.5 0 7.5c3.9 0 7.1-3.2 7.1-7.1V8.3c0-3.9-3.2-7.1-7.1-7.1z"/><path fill="#FFF" d="M-89.4 20.6c1.9 0 3.5-1.6 3.5-3.5h-7c-.1 1.9 1.5 3.5 3.5 3.5z"/><circle fill="#5E3E32" cx="-93" cy="11.9" r=".9"/><circle fill="#5E3E32" cx="-85.6" cy="11.9" r=".9"/><path fill="#6B3E3E" d="M-92.7 18.2c.5 1.4 1.8 2.4 3.3 2.4s2.8-1 3.3-2.4h-6.6z"/><path fill="#4D3330" d="M-97.3 9.7s3.6-1.6 4.9-2.7c1.3-1.1 1.5-2.3 1.5-2.3s1.5 3.6 4.1 4.2 4.7.2 4.7.2.8-4.6-2.5-6.7S-90.9 0-92.7.8c-1.8.8-4.6 3.4-4.6 5.2v3.7z"/><ellipse transform="matrix(.821 -.571 .571 .821 -18.43 -53.05)" fill="#FFF" cx="-93.9" cy="2.9" rx="1.6" ry=".5"/><g><path fill="#4D3330" d="M-35.3 14.8h5.2l-2-6.9c-.2-4.6-4.2-8.3-9-8.3-4.9 0-8.9 3.7-9 8.3l-2 6.9h5.2c1.6 1.3 3.6 2 5.8 2s4.2-.7 5.8-2z"/><path fill="#F5CA48" d="M-34.1 8.3c0-3.9-3.2-7.1-7.1-7.1-3.9 0-7.1 3.2-7.1 7.1v7.3c0 3.9 3.2 7.1 7.1 7.1 3.9 0 7.1-3.2 7.1-7.1V8.3z"/><path fill="#E9B846" d="M-41.2 1.2c-.4 0-.7 0-1.1.1l1.1 4.3s1.5 5.6 2 7c1 2.9-.9 2.6-2 2.6s0 7.5 0 7.5c3.9 0 7.1-3.2 7.1-7.1V8.3c0-3.9-3.2-7.1-7.1-7.1z"/><path fill="#FFF" d="M-41.2 20.6c1.9 0 3.5-1.6 3.5-3.5h-7c0 1.9 1.6 3.5 3.5 3.5z"/><circle fill="#5E3E32" cx="-44.7" cy="11.9" r=".9"/><circle fill="#5E3E32" cx="-37.4" cy="11.9" r=".9"/><path fill="#6B3E3E" d="M-44.5 18.2c.5 1.4 1.8 2.4 3.3 2.4s2.8-1 3.3-2.4h-6.6z"/><ellipse transform="matrix(.821 -.571 .571 .821 -9.805 -25.518)" fill="#FFF" cx="-45.6" cy="2.9" rx="1.6" ry=".5"/><path fill="#4D3330" d="M-43.5 3.9s1.4 2.6 2.3 3.2c1.2.9 2.9.8 2.9.8l-.9-.8s1.4.6 2.4.8c1.2.3 3 0 3 0s-.8-5.2-3.2-6c-2.4-.9-7.2-1.1-7.6-.6s-3.5 2.4-4 4.9c-.5 2.6-.5 3.3-.5 3.3s2.2-.8 3.1-2c.6-.8.5-.8.5-.8l-.6 1.3s1.5-1.1 2-2.1.6-2 .6-2z"/></g></svg>