<?xml version="1.0" encoding="utf-8"?>
<!-- Generator: Adobe Illustrator 19.2.0, SVG Export Plug-In . SVG Version: 6.00 Build 0)  -->
<svg version="1.1" id="Layer_1" xmlns="http://www.w3.org/2000/svg" xmlns:xlink="http://www.w3.org/1999/xlink" x="0px" y="0px"
	 viewBox="0 0 21.5 27.5" style="enable-background:new 0 0 21.5 27.5;" xml:space="preserve">
<ellipse style="fill:#F7BD32;" cx="17.5" cy="17.7" rx="1.9" ry="2.6"/>
<ellipse style="fill:#FFCC37;" cx="3.5" cy="17.7" rx="1.8" ry="2.6"/>
<path style="fill:#783827;" d="M19.6,16.5c-0.6-0.3-0.8-1-0.8-1s0.9,0.5,1.6,0c1-0.8,1-2.6,1-2.6s-0.8,1-2.1,0.4
	c-0.5-0.2-0.6-0.7-0.8-1c0.2,0.2,0.6,0.3,0.8,0.3c0.9-0.1,0.5-1.4,0.5-1.4s-0.3,1.1-1.7-0.1c-0.4-0.4-0.8-1.4-1.1-1.8
	C17.1,9,17,8.8,17,8.8h-0.3c-1-1.4-1.3-3.5-1.3-3.5H13l1.5,5.3c0,0,0.5,2.1,1.4,3.1l0.1,0.4c0,0,0.8,3.1,2,3.6c1.7,0.6,3-1.2,3-1.2
	S20.3,16.7,19.6,16.5z"/>
<path style="fill:#FFCC37;" d="M17.5,13.2c0-3.9-3.2-7.1-7.1-7.1c-3.9,0-7.1,3.2-7.1,7.1v0.6h0v6.7c0,3.9,3.2,7.1,7.1,7.1
	c3.9,0,7.1-3.2,7.1-7.1v-1.5h0V13.2z"/>
<path style="fill:#F7BD32;" d="M10.4,6.1c-0.4,0-0.7,0-1.1,0.1l1.1,4.3c0,0,1.5,5.6,2,7c1,2.9-0.9,2.6-2,2.6c-1.1,0,0,7.5,0,7.5
	c3.9,0,7.1-3.2,7.1-7.1v-1.5h0v-5.7C17.5,9.3,14.3,6.1,10.4,6.1z"/>
<circle style="fill:#783827;" cx="6.4" cy="15.9" r="0.9"/>
<circle style="fill:#783827;" cx="14.4" cy="15.9" r="0.9"/>
<path style="fill:#BC432D;" d="M12.9,9c0,0-1.9,4.7-4.4,6.1c-2,1.2-10-1.3-8.2-3.3C2,10,3.4,8.6,3.4,8.6L12.9,9z"/>
<path style="fill:#BC432D;" d="M2.8,9.3c0-4.9,1.7-9,7.2-9c5.7,0,7.2,4,7.2,9"/>
<path style="fill:#E47E70;" d="M10.2,0.3c0,0-2.4,1.9-3.5,4.1S5.9,9.3,5.9,9.3h8.3c0,0-0.1-3.2-0.7-5C12.6,2.1,10.2,0.3,10.2,0.3z"
	/>
<g>
	<path style="fill:#842230;" d="M7.1,23.6C7.5,25,8.8,26,10.4,26s2.8-1,3.3-2.4H7.1z"/>
	<g>
		<path style="fill:#FFFFFF;" d="M13.7,23.6c0.1-0.4,0.2-0.7,0.2-1.1h-7c0,0.4,0.1,0.8,0.2,1.1H13.7z"/>
	</g>
</g>
<ellipse transform="matrix(0.8213 -0.5706 0.5706 0.8213 -0.177 4.0897)" style="fill:#FFFFFF;" cx="6.4" cy="2.3" rx="1.6" ry="0.5"/>
<path style="fill:#E47E70;" d="M10.6,0.8H9.9c-0.2,0-0.4-0.2-0.4-0.4v0C9.5,0.2,9.7,0,9.9,0h0.7C10.9,0,11,0.2,11,0.4v0
	C11,0.6,10.9,0.8,10.6,0.8z"/>
</svg>
