<svg width="28" height="31" viewBox="0 0 19.1 21.4" xmlns="http://www.w3.org/2000/svg" xmlns:xlink="http://www.w3.org/1999/xlink"><defs><path d="M0 0h19.1v21.4H0z"/></defs><clipPath ><use xlink:href="#a" overflow="visible"/></clipPath><path clip-path="url(#b)" fill="#F5CA48" d="M5.2 10.4C5.2 11.9 4 13 2.6 13S0 11.9 0 10.4s1.2-2.6 2.6-2.6S5.2 9 5.2 10.4"/><path clip-path="url(#b)" fill="#EAB946" d="M19.1 10.4c0 1.4-1.2 2.6-2.6 2.6-1.4 0-2.6-1.2-2.6-2.6s1.2-2.6 2.6-2.6c1.4.1 2.6 1.2 2.6 2.6"/><path clip-path="url(#b)" fill="#F5CA48" d="M16.8 7.1c0-3.9-3.2-7.1-7.1-7.1S2.6 3.2 2.6 7.1v7.3c0 3.9 3.2 7.1 7.1 7.1s7.1-3.2 7.1-7.1V7.1z"/><path clip-path="url(#b)" fill="#EAB946" d="M9.7 0c-.4 0-.8 0-1.1.1l1.1 4.3s1.5 5.6 2 7c1 2.9-.9 2.6-2 2.6s0 7.5 0 7.5c3.9 0 7.1-3.2 7.1-7.1V7.1c0-3.9-3.2-7.1-7.1-7.1"/><path clip-path="url(#b)" fill="#FFF" d="M9.7 19.4c1.9 0 3.5-1.6 3.5-3.5h-7c-.1 1.9 1.5 3.5 3.5 3.5"/><path clip-path="url(#b)" fill="#5E3E32" d="M7.1 10.7c0 .5-.4.9-.9.9s-.9-.4-.9-.9.4-.9.9-.9.9.4.9.9m7.3 0c0 .5-.4.9-.9.9s-.9-.4-.9-.9.4-.9.9-.9c.5-.1.9.4.9.9"/><path clip-path="url(#b)" fill="#FFF" d="M7.4 1.9c.2.2-.3.9-1 1.4s-1.5.7-1.7.4c-.2-.2.3-.8 1-1.3s1.5-.8 1.7-.5"/><path clip-path="url(#b)" fill="#6B3E3E" d="M6.4 17c.5 1.4 1.8 2.4 3.3 2.4 1.5 0 2.8-1 3.3-2.4H6.4z"/><path clip-path="url(#b)" fill="none" stroke="#473421" stroke-width=".5" stroke-miterlimit="10" d="M7.1 12.8H4.4c-.6 0-1.2-.5-1.2-1.2V9.7c0-.6.5-1.2 1.2-1.2h2.7c.6 0 1.2.5 1.2 1.2v1.9c-.1.7-.6 1.2-1.2 1.2zm8.2 0h-2.7c-.6 0-1.2-.5-1.2-1.2V9.7c0-.6.5-1.2 1.2-1.2h2.7c.6 0 1.2.5 1.2 1.2v1.9c0 .7-.6 1.2-1.2 1.2z"/><path clip-path="url(#b)" fill="none" stroke="#473421" stroke-width=".5" stroke-miterlimit="10" d="M8.2 10.8s.7-1 1.6-1c.9 0 1.6.8 1.6.8"/><path clip-path="url(#b)" fill="#735846" d="M13.2 3.7c0 .3-.2.5-.5.5s-.5-.2-.5-.5.2-.5.5-.5.5.2.5.5"/></svg>