<?xml version="1.0" encoding="utf-8"?>
<!-- Generator: Adobe Illustrator 19.2.0, SVG Export Plug-In . SVG Version: 6.00 Build 0)  -->
<svg width="25" height="36" version="1.1" id="Layer_1" xmlns="http://www.w3.org/2000/svg" xmlns:xlink="http://www.w3.org/1999/xlink" x="0px" y="0px"
	 viewBox="0 0 18.1 25.6" style="enable-background:new 0 0 18.1 25.6;" xml:space="preserve">
<ellipse style="fill:#492F1B;" cx="9.1" cy="6.6" rx="9.1" ry="6.6"/>
<path style="fill:#492F1B;" d="M15.7,19.7c0,0,0.8-0.8,1.2-1.8C17.6,16,18.1,7,18.1,7H8.4L15.7,19.7z"/>
<path style="fill:#492F1B;" d="M2.4,19.7c0,0-0.8-0.8-1.2-1.8C0.5,16,0,7,0,7h9.8L2.4,19.7z"/>
<ellipse style="fill:#FFCC37;" cx="2.2" cy="15.1" rx="1.8" ry="2.6"/>
<ellipse style="fill:#F7BD32;" cx="15.8" cy="15.1" rx="1.9" ry="2.6"/>
<path style="fill:#FFCC37;" d="M16.2,11.2c0-3.9-3.2-7.1-7.1-7.1C5.2,4.1,2,7.3,2,11.2v0.6h0v6.7c0,3.9,3.2,7.1,7.1,7.1
	c3.9,0,7.1-3.2,7.1-7.1V17h0V11.2z"/>
<path style="fill:#F7BD32;" d="M9.2,4.1c-0.4,0-0.7,0-1.1,0.1l1.1,4.3c0,0,1.5,5.6,2,7c1,2.9-0.9,2.6-2,2.6c-1.1,0,0,7.5,0,7.5
	c3.9,0,7.1-3.2,7.1-7.1V17h0v-5.7C16.3,7.3,13.1,4.1,9.2,4.1z"/>
<circle style="fill:#783827;" cx="5.3" cy="13.9" r="0.9"/>
<circle style="fill:#783827;" cx="13.2" cy="13.9" r="0.9"/>
<ellipse transform="matrix(0.8213 -0.5706 0.5706 0.8213 -1.3637 2.5646)" style="fill:#FFFFFF;" cx="3.4" cy="3.5" rx="1.6" ry="0.5"/>
<g>
	<path style="fill:#842230;" d="M5.8,20.9c0.5,1.4,1.8,2.4,3.3,2.4s2.8-1,3.3-2.4H5.8z"/>
	<g>
		<path style="fill:#FFFFFF;" d="M12.4,20.9c0.1-0.4,0.2-0.7,0.2-1.1h-7c0,0.4,0.1,0.8,0.2,1.1H12.4z"/>
	</g>
</g>
<path style="fill:#492F1B;" d="M14,20.1c0,0,0-0.5-0.6-1.1c-1-1.1-2.4-1-2.4-1l-2,0l-2,0c0,0-1.3-0.1-2.4,1C4,19.7,4,20.1,4,20.1H14
	z"/>
<path style="fill:#492F1B;" d="M12.3,5.6c0,0-1.2,1.1-2.3,1.9S6.6,8.2,5.5,8.2s-3-0.6-3.2,0.7s-0.5,1-0.5,1s-0.5-4,0-4.8
	S7.6,3,7.6,3s7.8,0.9,8.2,1.3c0.4,0.4,0.8,3.8,0.8,4.7s-1-0.2-2-0.9C13.6,7.4,12.3,5.6,12.3,5.6z"/>
</svg>
