<?xml version="1.0" encoding="utf-8"?>
<svg width="25" height="36" xmlns="http://www.w3.org/2000/svg" viewBox="0 0 19.2 25.7">
    <path fill="#F5CA48" d="M17.4 14.1H1.6c-.7 0-1.2-.6-1.2-1.2 0-.7.6-1.2 1.2-1.2h15.7c.7 0 1.2.6 1.2 1.2.1.7-.5 1.2-1.1 1.2z"/>
    <path fill="#2A353F" d="M13.2 1.8h.6V6h-.6z"/>
    <circle fill="#F5CA48" cx="13.5" cy="1.4" r="1"/>
    <path fill="#2A353F" d="M16.6 15.2H2.5c-.5 0-.9-.4-.9-.9v-2.7c0-.5.4-.9.9-.9h14.2c.5 0 .9.4.9.9v2.7c0 .5-.5.9-1 .9z"/>
    <path fill="#425673" d="M16.6 10.7c0-3.9-3.2-7.1-7.1-7.1-3.9 0-7.1 3.2-7.1 7.1V18c0 3.9 3.2 7.1 7.1 7.1 3.9 0 7.1-3.2 7.1-7.1v-7.3z"/>
    <path fill="#4B6C8D" d="M9.5 3.6c-3.9 0-7.1 3.2-7.1 7.1V18c0 3.9 3.2 7.1 7.1 7.1V3.6z"/>
    <ellipse transform="rotate(-34.79 5.869 6.457)" fill="#FFF" cx="5.9" cy="6.5" rx="1.6" ry=".5"/>
    <circle fill="#FFF" cx="6.5" cy="14.3" r="1.9"/>
    <circle fill="#282828" cx="6.5" cy="14.4" r=".9"/>
    <circle fill="#FFF" cx="12.7" cy="14.4" r="1.9"/>
    <circle fill="#282828" cx="12.7" cy="14.4" r=".9"/>
    <path fill="#2C3742" d="M9.5 22.6c1.9 0 3.5-1.6 3.5-3.5H6c0 1.9 1.6 3.5 3.5 3.5z"/>
    <path fill="#FFF" d="M12.9 20.1c.1-.3.2-.7.2-1H6c0 .4.1.7.2 1h6.7z"/>
    <path fill="#2A353F" d="M13.3 7.5h-1.7c-.1 0-.3-.1-.3-.3 0-.1.1-.3.3-.3h1.7c.1 0 .3.1.3.3 0 .2-.1.3-.3.3zM13.3 8.4h-1.7c-.1 0-.3-.1-.3-.3 0-.1.1-.3.3-.3h1.7c.1 0 .3.1.3.3 0 .2-.1.3-.3.3zM13.3 9.2h-1.7c-.1 0-.3-.1-.3-.3 0-.1.1-.3.3-.3h1.7c.1 0 .3.1.3.3 0 .2-.1.3-.3.3z"/>
</svg>