<?xml version="1.0" encoding="utf-8"?>
<!-- Generator: Adobe Illustrator 19.2.0, SVG Export Plug-In . SVG Version: 6.00 Build 0)  -->
<svg width="21" height="36" version="1.1" id="Layer_1" xmlns="http://www.w3.org/2000/svg" xmlns:xlink="http://www.w3.org/1999/xlink" x="0px" y="0px"
	 viewBox="0 0 17.2 28.8" style="enable-background:new 0 0 17.2 28.8;" xml:space="preserve">
<g>
	<ellipse style="fill:#C96D42;" cx="8.6" cy="7.3" rx="7.5" ry="7.1"/>
	<ellipse style="fill:#FFCC37;" cx="1.8" cy="13.6" rx="1.8" ry="2.6"/>
	<ellipse style="fill:#F7BD32;" cx="15.4" cy="13.6" rx="1.9" ry="2.6"/>
	<path style="fill:#FFCC37;" d="M15.7,10.3c0-3.9-3.2-7.1-7.1-7.1c-3.9,0-7.1,3.2-7.1,7.1v0.6h0v6.7c0,3.9,3.2,7.1,7.1,7.1
		c3.9,0,7.1-3.2,7.1-7.1V16h0V10.3z"/>
	<path style="fill:#F7BD32;" d="M8.6,3.2c-0.4,0-0.7,0-1.1,0.1l1.1,4.3c0,0,1.5,5.6,2,7c1,2.9-0.9,2.6-2,2.6c-1.1,0,0,7.5,0,7.5
		c3.9,0,7.1-3.2,7.1-7.1V16h0v-5.7C15.7,6.4,12.5,3.2,8.6,3.2z"/>
	<circle style="fill:#783827;" cx="4.6" cy="13" r="0.9"/>
	<circle style="fill:#783827;" cx="12.6" cy="13" r="0.9"/>
	<g>
		<path style="fill:#842230;" d="M5.3,20.5c0.5,1.4,1.8,2.4,3.3,2.4s2.8-1,3.3-2.4H5.3z"/>
		<g>
			<path style="fill:#FFFFFF;" d="M11.9,20.5c0.1-0.4,0.2-0.7,0.2-1.1h-7c0,0.4,0.1,0.8,0.2,1.1H11.9z"/>
		</g>
	</g>
	<path style="fill:#C96D42;" d="M8.5,17.7c0,0-0.9-0.5-2.8,0.2c-1.8,0.7-1.8,1.6-1.8,1.6s0.7,0.5,2.5-0.1
		C8.2,18.8,8.5,17.7,8.5,17.7z"/>
	<path style="fill:#C96D42;" d="M12.3,22.6c-0.3,0.1-0.5,1.2-1.6,1.5c-1.2,0.3-2-0.4-2-0.4l0,0l0,0l0,0l0,0c0,0-0.9,0.7-2,0.4
		c-1.2-0.3-1.3-1.4-1.6-1.5c-0.3-0.1-0.2,1,0.5,2.8c0.6,1.6,1.8,3,2.8,3.3c0.1,0,0.3,0.1,0.4,0.1c0.1,0,0.3,0,0.4-0.1
		c1-0.3,2.2-1.7,2.8-3.3C12.5,23.6,12.6,22.5,12.3,22.6z"/>
	<path style="fill:#C96D42;" d="M8.5,17.7c0,0,0.9-0.5,2.8,0.2c1.8,0.7,1.8,1.6,1.8,1.6s-0.7,0.5-2.5-0.1
		C8.8,18.8,8.5,17.7,8.5,17.7z"/>
	<path style="fill:#C96D42;" d="M16.5,9.5c-1-0.1,0.1-2-1.3-5.4c-1.1-2.8-5-2.8-6.5-2.7C7.3,1.3,3.4,1.2,2.2,3.9
		C0.7,7.3,1.8,9.2,0.8,9.3C0,9.4-0.2,9.4,0.3,9.8c0.9,0.6,3.2,0.1,5.1-0.7C7.1,8.3,8.1,7.2,8.7,6c0.5,1.2,1.5,2.4,3.2,3.2
		c1.8,0.9,4.1,1.4,5,0.8C17.5,9.6,17.3,9.6,16.5,9.5z"/>
	
		<ellipse transform="matrix(0.8213 -0.5706 0.5706 0.8213 -0.8868 3.1891)" style="fill:#FFFFFF;" cx="4.6" cy="3" rx="1.6" ry="0.5"/>
</g>
</svg>
