<?xml version="1.0" encoding="utf-8"?>
<!-- Generator: Adobe Illustrator 19.2.0, SVG Export Plug-In . SVG Version: 6.00 Build 0)  -->
<svg width="27" height="31" version="1.1" id="Layer_1" xmlns="http://www.w3.org/2000/svg" xmlns:xlink="http://www.w3.org/1999/xlink" x="0px" y="0px"
	 viewBox="0 0 23.9 22.7" style="enable-background:new 0 0 23.9 22.7;" xml:space="preserve">
<path style="fill:#885A2A;" d="M14.9,0c2.5,0,4.5,1.9,4.5,4.3c0,0.4-0.1,0.7-0.1,1c0.1,0,0.1,0,0.1,0c2.5,0,4.5,1.9,4.5,4.3
	c0,1.5-0.8,2.8-1.9,3.6c1.2,0.8,1.9,2.1,1.9,3.6c0,2.4-2,4.3-4.5,4.3c-2.5,0-4.5-1.9-4.5-4.3c0-1.5,0.8-2.8,1.9-3.6
	c-1.2-0.8-1.9-2.1-1.9-3.6c0-0.4,0.1-0.7,0.1-1c-0.1,0-0.1,0-0.1,0c-2.5,0-4.5-1.9-4.5-4.3S12.4,0,14.9,0z"/>
<path style="fill:#885A2A;" d="M9,0C6.5,0,4.5,1.9,4.5,4.3c0,0.4,0.1,0.7,0.1,1c-0.1,0-0.1,0-0.1,0C2,5.4,0,7.3,0,9.7
	c0,1.5,0.8,2.8,1.9,3.6C0.8,14.1,0,15.4,0,16.9c0,2.4,2,4.3,4.5,4.3C7,21.2,9,19.3,9,16.9c0-1.5-0.8-2.8-1.9-3.6
	C8.3,12.5,9,11.2,9,9.7C9,9.4,9,9,8.9,8.7c0.1,0,0.1,0,0.1,0c2.5,0,4.5-1.9,4.5-4.3S11.5,0,9,0z"/>
<path style="fill:#F7BD32;" d="M4.7,5.7v9.9c0,3.9,3.2,7.1,7.1,7.1c3.9,0,7.1-3.2,7.1-7.1V5.7H4.7z"/>
<path style="fill:#FFCC37;" d="M11.8,15.3c1.1,0,3,0.3,2-2.6c-0.5-1.4-2-7-2-7H4.7v9.9c0,3.9,3.2,7.1,7.1,7.1
	C11.8,22.7,10.7,15.3,11.8,15.3z"/>
<path style="fill:#885A2A;" d="M14.8,6c0,0-0.6,2.4-3.9,2.7C7.6,9,5,9.8,4.8,11.8s-0.1,3.4-0.1,3.4H2.8c0,0-0.6-5.6,1.8-9.8
	C6,3.2,8,1,11.7,1c4,0,5.9,2.3,7.2,4.8c2.2,4.2,2,9.5,2,9.5h-1.9c0,0-0.1-3-0.1-4.5s-1.4-1.6-2.6-2.6C15,7,14.8,6,14.8,6z"/>
<circle style="fill:#783827;" cx="7.3" cy="12" r="0.9"/>
<circle style="fill:#783827;" cx="16.2" cy="12" r="0.9"/>
<ellipse transform="matrix(0.8213 -0.5706 0.5706 0.8213 -0.6202 5.2024)" style="fill:#FFFFFF;" cx="8" cy="3.6" rx="1.6" ry="0.5"/>
<path style="fill:#1E100D;" d="M17.7,10.1h-3.1c-0.6,0-1.1,0.4-1.2,0.9c-0.4-0.5-1-0.8-1.7-0.8c-0.7,0-1.3,0.3-1.7,0.8
	c-0.2-0.5-0.7-0.9-1.2-0.9H5.7c-0.7,0-1.3,0.6-1.3,1.3v1.1c0,0.7,0.6,1.3,1.3,1.3h3.1c0.7,0,1.3-0.6,1.3-1.3v-0.3
	c0-0.8,0.7-1.4,1.6-1.4s1.6,0.6,1.6,1.4v0.3c0,0.7,0.6,1.3,1.3,1.3h3.1c0.7,0,1.3-0.6,1.3-1.3v-1.1C19.1,10.7,18.5,10.1,17.7,10.1z
	 M9.7,12.5c0,0.5-0.4,0.8-0.8,0.8H5.7c-0.5,0-0.8-0.4-0.8-0.8v-1.1c0-0.5,0.4-0.8,0.8-0.8h3.1c0.5,0,0.8,0.4,0.8,0.8V12.5z
	 M18.6,12.5c0,0.5-0.4,0.8-0.8,0.8h-3.1c-0.5,0-0.8-0.4-0.8-0.8v-1.1c0-0.5,0.4-0.8,0.8-0.8h3.1c0.5,0,0.8,0.4,0.8,0.8V12.5z"/>
<g>
	<path style="fill:#842230;" d="M8.5,18.3c0.5,1.4,1.8,2.4,3.3,2.4s2.8-1,3.3-2.4H8.5z"/>
	<g>
		<path style="fill:#FFFFFF;" d="M15.1,18.3c0.1-0.4,0.2-0.7,0.2-1.1h-7c0,0.4,0.1,0.8,0.2,1.1H15.1z"/>
	</g>
</g>
</svg>
