<svg width="27" height="31" xmlns="http://www.w3.org/2000/svg" viewBox="0 0 18.1 21.9"><path fill="#5E3E32" d="M.1 10.5h18v3.7H.1z"/><path fill="#E9B846" d="M2 4.9v9.9c0 3.9 3.2 7.1 7.1 7.1 3.9 0 7.1-3.2 7.1-7.1V4.9H2z"/><path fill="#F5CA48" d="M9.1 14.5c1.1 0 3 .3 2-2.6-.5-1.4-2-7-2-7H2v9.9c0 3.9 3.2 7.1 7.1 7.1 0 0-1.1-7.4 0-7.4z"/><path fill="#FFF" d="M9.1 19.9c1.9 0 3.5-1.6 3.5-3.5h-7c0 1.9 1.5 3.5 3.5 3.5z"/><path fill="#5E3E32" d="M12.1 5s-.6 2.4-3.9 2.7c-3.3.3-6 1.1-6.2 3.2s-.1 3.4-.1 3.4H.1C.1 14.2-1.6 0 9 0c10.8 0 9.1 14.2 9.1 14.2h-1.9s-.1-3-.1-4.5-1.4-1.6-2.6-2.6c-1.2-1-1.4-2.1-1.4-2.1z"/><circle fill="#5E3E32" cx="5.6" cy="11.2" r=".9"/><circle fill="#5E3E32" cx="13.5" cy="11.2" r=".9"/><ellipse transform="matrix(.821 -.571 .571 .821 -.642 3.514)" fill="#FFF" cx="5.3" cy="2.8" rx="1.6" ry=".5"/><path fill="#6B3E3E" d="M5.8 17.5c.5 1.4 1.8 2.4 3.3 2.4s2.8-1 3.3-2.4H5.8z"/><path fill="#E9B846" d="M71.9-39.4v9.9c0 3.9 3.2 7.1 7.1 7.1 3.9 0 7.1-3.2 7.1-7.1v-9.9H71.9z"/><path fill="#F5CA48" d="M79.1-29.8c1.1 0 3 .3 2-2.6-.5-1.4-2-7-2-7H72v9.9c0 3.9 3.2 7.1 7.1 7.1 0 0-1.1-7.4 0-7.4z"/><path fill="none" stroke="#473421" stroke-linecap="round" stroke-miterlimit="10" d="M76.3-26.4s1.1 1.1 2.5 1.1c1.7 0 2.7-1.1 2.7-1.1"/><path fill="#291D11" d="M78.9-42.5h4.6l3.1-3.6v16.2s-1.6-.6-3.4-.3c-2.3.3-4 2.3-4 2.3h-.6s-1.7-2-4-2.3c-1.8-.2-3.4.3-3.4.3V-46l3.1 3.6h4.6"/><path fill="#FFF" d="M73.5-34l3.5 1.5s-.9 1.2-1.7.8-1.8-2.3-1.8-2.3zm11 0L81-32.5s.9 1.2 1.7.8 1.8-2.3 1.8-2.3z"/><circle fill="#F5CA48" cx=".3" cy="-34.6" r="2.6"/><circle fill="#E9B846" cx="14.2" cy="-34.6" r="2.6"/><path fill="#F5CA48" d="M14.4-38c0-3.9-3.2-7.1-7.1-7.1C3.4-45.1.2-41.9.2-38v7.3c0 3.9 3.2 7.1 7.1 7.1 3.9 0 7.1-3.2 7.1-7.1V-38z"/><path fill="#E9B846" d="M7.4-45c-.4 0-.7 0-1.1.1l1.1 4.3s1.5 5.6 2 7c1 2.9-.9 2.6-2 2.6s0 7.5 0 7.5c3.9 0 7.1-3.2 7.1-7.1V-38c-.1-3.9-3.2-7-7.1-7z"/><path fill="#FFF" d="M7.4-25.6c1.9 0 3.5-1.6 3.5-3.5h-7c-.1 1.9 1.5 3.5 3.5 3.5z"/><circle fill="#5E3E32" cx="3.8" cy="-34.4" r=".9"/><circle fill="#5E3E32" cx="11.2" cy="-34.4" r=".9"/><ellipse transform="matrix(.821 -.571 .571 .821 24.759 -5.419)" fill="#FFF" cx="3.7" cy="-42.2" rx="1.6" ry=".5"/><path fill="#6B3E3E" d="M4-28c.5 1.4 1.8 2.4 3.3 2.4s2.8-1 3.3-2.4H4z"/><path fill="none" stroke="#473421" stroke-width=".5" stroke-miterlimit="10" d="M4.8-32.2H2c-.6 0-1.2-.5-1.2-1.2v-2c0-.6.5-1.2 1.2-1.2h2.7c.6 0 1.2.5 1.2 1.2v2c0 .6-.5 1.2-1.1 1.2zm8.2 0h-2.7c-.6 0-1.2-.5-1.2-1.2v-2c0-.6.5-1.2 1.2-1.2H13c.6 0 1.2.5 1.2 1.2v2c0 .6-.6 1.2-1.2 1.2zm-7.1-2s.7-1 1.6-1c.9 0 1.6.8 1.6.8"/><circle fill="#5E3E32" cx="122" cy="-38.1" r="1.9"/><circle fill="#5E3E32" cx="122" cy="-34.3" r="1.9"/><circle fill="#5E3E32" cx="107.6" cy="-38.3" r="1.9"/><circle fill="#5E3E32" cx="107.6" cy="-34.6" r="1.9"/><path fill="#E9B846" d="M107.9-40.3v9.9c0 3.9 3.2 7.1 7.1 7.1 3.9 0 7.1-3.2 7.1-7.1v-9.9h-14.2z"/><path fill="#F5CA48" d="M115-30.8c1.1 0 3 .3 2-2.6-.5-1.4-2-7-2-7h-7.1v9.9c0 3.9 3.2 7.1 7.1 7.1 0 .1-1.2-7.4 0-7.4z"/><circle fill="#5E3E32" cx="111.4" cy="-34.1" r=".9"/><circle fill="#5E3E32" cx="119.4" cy="-34.1" r=".9"/><path fill="#5E3E32" d="M118.9-29.4c-.1-.3-.4-.5-.8-.5h-6.2c-.4 0-.7.2-.8.5 0 .1-.1.2-.1.3v4.9c0 .5.4.9.9.9s.9-.4.9-.9v-4h4.5v4c0 .5.4.9.9.9s.9-.4.9-.9v-4.9c-.2-.1-.2-.2-.2-.3z"/><circle fill="#5E3E32" cx="113.1" cy="-40.4" r="1.9"/><circle fill="#5E3E32" cx="116.8" cy="-40.4" r="1.9"/><circle fill="#5E3E32" cx="120.5" cy="-40.4" r="1.9"/><circle fill="#5E3E32" cx="109.4" cy="-40.4" r="1.9"/><circle fill="#5E3E32" cx="113.1" cy="-42.6" r="1.9"/><circle fill="#5E3E32" cx="107.6" cy="-42" r="1.9"/><circle fill="#5E3E32" cx="122" cy="-41.9" r="1.9"/><circle fill="#5E3E32" cx="111.3" cy="-45.6" r="1.9"/><circle fill="#5E3E32" cx="115" cy="-45.6" r="1.9"/><circle fill="#5E3E32" cx="118.6" cy="-45.6" r="1.9"/><path fill="#5E3E32" d="M107.9-45.4c-.1.2-.3 3.1-.3 3.1l1.4 1.6 2.5.5 9.5-.6 1.1-2.7-.3-1.6-2-.5H114l-6.1.2z"/><circle fill="#5E3E32" cx="121.1" cy="-44.1" r="1.9"/><circle fill="#5E3E32" cx="108.7" cy="-44.4" r="1.9"/><ellipse transform="matrix(.821 -.571 .571 .821 44.468 54.605)" fill="#FFF" cx="109.4" cy="-43.7" rx="1.6" ry=".5"/><path fill="#5E3E32" d="M52.7 61h18.2v10.3H52.7z"/><path fill="#E9B846" d="M54.6 54.2v9.9c0 3.9 3.2 7.1 7.1 7.1 3.9 0 7.1-3.2 7.1-7.1v-9.9H54.6z"/><path fill="#F5CA48" d="M61.7 63.8c1.1 0 3 .3 2-2.6-.5-1.4-2-7-2-7h-7.1v9.9c0 3.9 3.2 7.1 7.1 7.1 0 0-1.1-7.4 0-7.4z"/><path fill="#5E3E32" d="M64.8 54.5s-.6 2.4-3.9 2.7c-3.3.3-5.9 1.1-6.1 3.1-.2 2.1-.1 3.4-.1 3.4h-1.8s-1.7-14.2 8.9-14.2c10.8 0 9.1 14.2 9.1 14.2H69s-.1-3-.1-4.5-1.4-1.6-2.6-2.6c-1.4-1.1-1.5-2.1-1.5-2.1z"/><circle fill="#5E3E32" cx="58.2" cy="60.5" r=".9"/><circle fill="#5E3E32" cx="66.2" cy="60.5" r=".9"/><ellipse transform="matrix(.821 -.571 .571 .821 -19.381 42.364)" fill="#FFF" cx="57.9" cy="52.1" rx="1.6" ry=".5"/><path fill="#FFF" d="M62.2 69.4c1.9 0 3.5-1.6 3.5-3.5h-7c0 1.9 1.5 3.5 3.5 3.5z"/><path fill="#6B3E3E" d="M58.9 67c.5 1.4 1.8 2.4 3.3 2.4s2.8-1 3.3-2.4h-6.6z"/><path fill="#71A266" d="M161 7.5c0-3.9-3.2-7.1-7.1-7.1-3.9 0-7.1 3.2-7.1 7.1v7.3c0 3.9 3.2 7.1 7.1 7.1 3.9 0 7.1-3.2 7.1-7.1V7.5z"/><path fill="#628F59" d="M153.9.4c-.4 0-.7 0-1.1.1l1.1 4.3s1.5 5.6 2 7c1 2.9-.9 2.6-2 2.6s0 7.5 0 7.5c3.9 0 7.1-3.2 7.1-7.1V7.5c0-3.9-3.2-7.1-7.1-7.1z"/><path fill="#FFF" d="M153.9 19.8c1.9 0 3.5-1.6 3.5-3.5h-7c0 2 1.5 3.5 3.5 3.5z"/><ellipse transform="matrix(.821 -.571 .571 .821 25 86.307)" fill="#9BC391" cx="150.2" cy="3.3" rx="1.6" ry=".5"/><path fill="#2E3D2F" d="M150.6 17.4c.5 1.4 1.8 2.4 3.3 2.4s2.8-1 3.3-2.4h-6.6z"/><ellipse transform="matrix(.726 .688 -.688 .726 47.889 -100.444)" fill="#2E3D2F" cx="149.9" cy="9.8" rx="2.2" ry="1.2"/><ellipse transform="matrix(-.726 .688 -.688 -.726 280.004 -91.958)" fill="#2E3D2F" cx="158.3" cy="9.8" rx="2.2" ry="1.2"/><ellipse fill="#B19A4E" cx="113.3" cy="57.9" rx="9.1" ry="8.6"/><path fill="#B19A4E" d="M104.3 58.2h18.1v13.2h-18.1z"/><path fill="#F5CA48" d="M120.4 57.9c0-3.9-3.2-7.1-7.1-7.1-3.9 0-7.1 3.2-7.1 7.1v7.3c0 3.9 3.2 7.1 7.1 7.1 3.9 0 7.1-3.2 7.1-7.1v-7.3z"/><path fill="#E9B846" d="M113.3 50.8c-.4 0-.7 0-1.1.1l1.1 4.3s1.5 5.6 2 7c1 2.9-.9 2.6-2 2.6s0 7.5 0 7.5c3.9 0 7.1-3.2 7.1-7.1V58c0-4-3.1-7.2-7.1-7.2z"/><path fill="#FFF" d="M113.3 70.2c1.9 0 3.5-1.6 3.5-3.5h-7c0 1.9 1.6 3.5 3.5 3.5z"/><circle fill="#5E3E32" cx="109.8" cy="61.5" r=".9"/><circle fill="#5E3E32" cx="117.2" cy="61.5" r=".9"/><path fill="#6B3E3E" d="M110 67.8c.5 1.4 1.8 2.4 3.3 2.4s2.8-1 3.3-2.4H110z"/><path fill="#B19A4E" d="M105.5 59.3s3.6-1.6 4.9-2.7c1.3-1.1 1.5-2.3 1.5-2.3s1.5 3.6 4.1 4.2c2.6.6 4.7.2 4.7.2s.8-4.6-2.5-6.7c-3.3-2.1-6.3-2.4-8.1-1.6-1.8.8-4.6 3.4-4.6 5.2v3.7z"/><path d="M120.5 57.6l-1.4 1.9-1.7-2.9 2.3-.3m2.6.3l2.3-.4-1.7-2.8-1.4 1.9m.4 1.9l-.7.4c-.3.2-.8.1-.9-.2l-.4-.7c-.2-.3-.1-.8.2-.9l.7-.4c.3-.2.8-.1.9.2l.4.7c.3.2.1.7-.2.9z" fill="#B04F46"/><ellipse transform="matrix(.821 -.571 .571 .821 -10.4 71.485)" fill="#FFF" cx="108.9" cy="52.3" rx="1.6" ry=".5"/><ellipse fill="#8F5741" cx="167.3" cy="58.1" rx="9.1" ry="8.6"/><path fill="#F5CA48" d="M174.4 58.1c0-3.9-3.2-7.1-7.1-7.1-3.9 0-7.1 3.2-7.1 7.1v7.3c0 3.9 3.2 7.1 7.1 7.1 3.9 0 7.1-3.2 7.1-7.1v-7.3z"/><path fill="#E9B846" d="M167.3 51c-.4 0-.7 0-1.1.1l1.1 4.3s1.5 5.6 2 7c1 2.9-.9 2.6-2 2.6s0 7.5 0 7.5c3.9 0 7.1-3.2 7.1-7.1v-7.2c0-4-3.2-7.2-7.1-7.2z"/><path fill="#FFF" d="M167.3 70.4c1.9 0 3.5-1.6 3.5-3.5h-7c0 1.9 1.5 3.5 3.5 3.5z"/><circle fill="#5E3E32" cx="163.8" cy="61.7" r=".9"/><circle fill="#5E3E32" cx="171.1" cy="61.7" r=".9"/><path fill="#6B3E3E" d="M164 68c.5 1.4 1.8 2.4 3.3 2.4s2.8-1 3.3-2.4H164z"/><path fill="#8F5741" d="M159.4 59.5s3.6-1.6 4.9-2.7c1.3-1.1 1.5-2.3 1.5-2.3s1.5 3.6 4.1 4.2c2.6.6 4.7.2 4.7.2s.8-4.6-2.5-6.7-6.3-2.4-8.1-1.6c-1.8.8-4.6 3.4-4.6 5.2v3.7z"/><path fill="#8F5741" d="M160.5 58.2s-.9 3.8.5 6.8c.8 1.8 1.4 2.8 1.4 2.8s-3.8-1.3-5.1-4.5c-1.2-3.2.6-8.2 2.7-10.3 1.4-1.4 1.8 2.8 1.8 2.8l-1.3 2.4zm13.6.3s.8 2.3-.3 5.4c-.6 1.5-1.7 3.1-1.7 3.1s3-1 4-2.6c1.6-2.5 2.1-8-.8-11-2-2.1-4.5-2.4-4.5-2.4l3.3 7.5z"/><ellipse transform="matrix(.821 -.571 .571 .821 -.972 102.33)" fill="#FFF" cx="162.8" cy="52.7" rx="1.6" ry=".5"/><ellipse fill="#5E3E32" cx="43.1" cy="-39.4" rx="8.2" ry="7.8"/><path fill="#E9B846" d="M36-40.4v9.9c0 3.9 3.2 7.1 7.1 7.1 3.9 0 7.1-3.2 7.1-7.1v-9.9H36z"/><path fill="#F5CA48" d="M43.1-30.9c1.1 0 3 .3 2-2.6-.5-1.4-2-7-2-7H36v9.9c0 3.9 3.2 7.1 7.1 7.1 0 .1-1.2-7.4 0-7.4z"/><circle fill="#5E3E32" cx="47.5" cy="-34.2" r=".9"/><path fill="#5E3E32" d="M47.9-27.7c-1.1 0-2.7-1.9-4.8-1.9-2.1 0-3.7 1.9-4.8 1.9S36-30.3 36-30.3s.2 7.1 5.8 7.1h2.5c5.7 0 5.8-7.1 5.8-7.1s-1.2 2.6-2.2 2.6zM43-24.8c-1.7 0-3.1-.9-3.1-1.9 0-1.1 1.4-1.9 3.1-1.9s3.1.9 3.1 1.9c0 1-1.4 1.9-3.1 1.9z"/><circle fill="#5E3E32" cx="39.7" cy="-34.2" r=".9"/><path fill="#5E3E32" d="M50.2-39.9h1.1v7.2h-1.1zm-15.3 0H36v6.6h-1.1z"/><path fill="#5E3E32" d="M39.7-40.2s1.2 1.2 2.5 2c1.2.8 3.6.8 4.7.7s3.2-.6 3.3.8c.2 1.3.6 1 .6 1s.5-4.2 0-5.1-6.1-2.2-6.1-2.2-8.2 1-8.6 1.4c-.4.5-.9 4-.9 5s1.1-.2 2.1-1 2.4-2.6 2.4-2.6z"/><ellipse transform="matrix(.821 -.571 .571 .821 32.062 14.228)" fill="#FFF" cx="38.7" cy="-44.1" rx="1.6" ry=".5"/><path fill="#5E3E32" d="M156.4-34h-12.6c-.9 0-1.6-.7-1.6-1.6v-5.7c0-.9.7-1.6 1.6-1.6h12.6c.9 0 1.6.7 1.6 1.6v5.7c0 .9-.7 1.6-1.6 1.6z"/><path fill="#F5CA48" d="M157.2-38.4c0-3.9-3.2-7.1-7.1-7.1-3.9 0-7.1 3.2-7.1 7.1v7.3c0 3.9 3.2 7.1 7.1 7.1 3.9 0 7.1-3.2 7.1-7.1v-7.3z"/><path fill="#E9B846" d="M150.1-45.5c-.4 0-.7 0-1.1.1l1.1 4.3s1.5 5.6 2 7c1 2.9-.9 2.6-2 2.6s0 7.5 0 7.5c3.9 0 7.1-3.2 7.1-7.1v-7.2c0-4-3.2-7.2-7.1-7.2z"/><circle fill="#5E3E32" cx="146.1" cy="-35.7" r=".9"/><circle fill="#5E3E32" cx="154.1" cy="-35.7" r=".9"/><path fill="#FFF" d="M150.1-25.9c1.9 0 3.5-1.6 3.5-3.5h-7c0 1.9 1.5 3.5 3.5 3.5z"/><path fill="#6B3E3E" d="M146.8-28.3c.5 1.4 1.8 2.4 3.3 2.4s2.8-1 3.3-2.4h-6.6z"/><path fill="#5E3E32" d="M142.5-44.1c0 5.2 6.4 4.9 9.4 4.9 10 0 6.8-8.5 6.4-9.7-.4-1.1-.9 2.3-3.6 2.7s-4.2-1.4-7-1.4c-2.5.2-5.2.8-5.2 3.5z"/><ellipse transform="matrix(.821 -.571 .571 .821 51.478 75.428)" fill="#FFF" cx="146.1" cy="-44.4" rx="1.6" ry=".5"/><circle fill="#281B18" cx="9.1" cy="56.4" r="9.4"/><path fill="#281B18" d="M-.3 56.2h18.7v14.9H-.3z"/><path fill="#F5CA48" d="M16.2 56.7c0-3.9-3.2-7.1-7.1-7.1-3.9 0-7.1 3.2-7.1 7.1V64c0 3.9 3.2 7.1 7.1 7.1 3.9 0 7.1-3.2 7.1-7.1v-7.3z"/><path fill="#E9B846" d="M9.1 49.7c-.4 0-.7 0-1.1.1l1.1 4.3s1.5 5.6 2 7c1 2.9-.9 2.6-2 2.6s0 7.5 0 7.5c3.9 0 7.1-3.2 7.1-7.1v-7.2c0-4.1-3.2-7.2-7.1-7.2z"/><path fill="#FFF" d="M9.1 69c1.9 0 3.5-1.6 3.5-3.5h-7c0 2 1.6 3.5 3.5 3.5z"/><path fill="#6B3E3E" d="M5.8 66.7C6.3 68 7.6 69 9.1 69s2.8-1 3.3-2.4H5.8z"/><circle fill="#5E3E32" cx="5.3" cy="60.5" r=".9"/><circle fill="#5E3E32" cx="13.1" cy="60.5" r=".9"/><path fill="#281B18" d="M1.2 56.4H17s-2-6-5.4-6.9-5.5-.9-7 .4-3.4 6.5-3.4 6.5z"/><ellipse transform="matrix(.821 -.571 .571 .821 -29.383 11.505)" fill="#FFF" cx="3.7" cy="52.6" rx="1.6" ry=".5"/><path fill="#473421" d="M191.2-30.5h-9.1c-2.3 0-4.2-1.9-4.2-4.2v-2.7c0-2.3 1.9-4.2 4.2-4.2h9.1c2.3 0 4.2 1.9 4.2 4.2v2.7c0 2.4-1.9 4.2-4.2 4.2z"/><circle fill="#F5CA48" cx="179.6" cy="-35" r="2.6"/><circle fill="#E9B846" cx="193.5" cy="-35" r="2.6"/><path fill="#F5CA48" d="M193.7-38.3c0-3.9-3.2-7.1-7.1-7.1-3.9 0-7.1 3.2-7.1 7.1v7.3c0 3.9 3.2 7.1 7.1 7.1 3.9 0 7.1-3.2 7.1-7.1v-7.3z"/><path fill="#E9B846" d="M186.7-45.4c-.4 0-.7 0-1.1.1l1.1 4.3s1.5 5.6 2 7c1 2.9-.9 2.6-2 2.6s0 7.5 0 7.5c3.9 0 7.1-3.2 7.1-7.1v-7.2c-.1-4-3.2-7.2-7.1-7.2z"/><path fill="#FFF" d="M186.6-26c1.9 0 3.5-1.6 3.5-3.5h-7c0 1.9 1.6 3.5 3.5 3.5z"/><circle fill="#5E3E32" cx="182.9" cy="-34.7" r=".9"/><circle fill="#5E3E32" cx="190.5" cy="-34.7" r=".9"/><ellipse transform="matrix(.821 -.571 .571 .821 57.011 96.815)" fill="#FFF" cx="183" cy="-42.6" rx="1.6" ry=".5"/><path fill="#6B3E3E" d="M183.3-28.4c.5 1.4 1.8 2.4 3.3 2.4s2.8-1 3.3-2.4h-6.6z"/><path fill="#473421" d="M184.6-37.2h-3.3c-.5 0-.9-.4-.9-.9s.4-.9.9-.9h3.3c.5 0 .9.4.9.9s-.4.9-.9.9zm7.5 0h-3.3c-.5 0-.9-.4-.9-.9s.4-.9.9-.9h3.3c.5 0 .9.4.9.9s-.4.9-.9.9z"/><ellipse fill="#4D3330" cx="57.4" cy="8.7" rx="9.1" ry="8.6"/><path fill="#F5CA48" d="M64.4 8.7c0-3.9-3.2-7.1-7.1-7.1-3.9 0-7.1 3.2-7.1 7.1V16c0 3.9 3.2 7.1 7.1 7.1 3.9 0 7.1-3.2 7.1-7.1V8.7z"/><path fill="#E9B846" d="M57.4 1.6c-.4 0-.7 0-1.1.1L57.4 6s1.5 5.6 2 7c1 2.9-.9 2.6-2 2.6s0 7.5 0 7.5c3.9 0 7.1-3.2 7.1-7.1V8.7c-.1-3.9-3.2-7.1-7.1-7.1z"/><path fill="#FFF" d="M57.3 21c1.9 0 3.5-1.6 3.5-3.5h-7c0 2 1.6 3.5 3.5 3.5z"/><circle fill="#5E3E32" cx="53.8" cy="12.3" r=".9"/><circle fill="#5E3E32" cx="61.2" cy="12.3" r=".9"/><path fill="#6B3E3E" d="M54 18.6c.5 1.4 1.8 2.4 3.3 2.4s2.8-1 3.3-2.4H54z"/><path fill="#4D3330" d="M49.5 10.1s3.6-1.6 4.9-2.7c1.3-1.1 1.5-2.3 1.5-2.3s1.5 3.6 4.1 4.2c2.6.6 4.7.2 4.7.2s.8-4.6-2.5-6.7S55.8.4 54 1.2c-1.8.8-4.6 3.4-4.6 5.2s.1 3.7.1 3.7z"/><ellipse transform="matrix(.821 -.571 .571 .821 7.557 30.78)" fill="#FFF" cx="52.9" cy="3.3" rx="1.6" ry=".5"/><g><path fill="#4D3330" d="M111.5 15.3h5.2l-2-6.9c-.2-4.6-4.2-8.3-9-8.3-4.9 0-8.9 3.7-9 8.3l-2 6.9h5.2c1.6 1.3 3.6 2 5.8 2s4.2-.8 5.8-2z"/><path fill="#F5CA48" d="M112.7 8.7c0-3.9-3.2-7.1-7.1-7.1-3.9 0-7.1 3.2-7.1 7.1V16c0 3.9 3.2 7.1 7.1 7.1 3.9 0 7.1-3.2 7.1-7.1V8.7z"/><path fill="#E9B846" d="M105.6 1.6c-.4 0-.7 0-1.1.1l1.1 4.3s1.5 5.6 2 7c1 2.9-.9 2.6-2 2.6s0 7.5 0 7.5c3.9 0 7.1-3.2 7.1-7.1V8.7c0-3.9-3.2-7.1-7.1-7.1z"/><path fill="#FFF" d="M105.6 21c1.9 0 3.5-1.6 3.5-3.5h-7c0 2 1.6 3.5 3.5 3.5z"/><circle fill="#5E3E32" cx="102.1" cy="12.3" r=".9"/><circle fill="#5E3E32" cx="109.4" cy="12.3" r=".9"/><path fill="#6B3E3E" d="M102.3 18.6c.5 1.4 1.8 2.4 3.3 2.4s2.8-1 3.3-2.4h-6.6z"/><ellipse transform="matrix(.821 -.571 .571 .821 16.182 58.311)" fill="#FFF" cx="101.2" cy="3.3" rx="1.6" ry=".5"/><path fill="#4D3330" d="M103.3 4.4s1.4 2.6 2.3 3.2c1.2.9 2.9.8 2.9.8l-.9-.8s1.4.6 2.4.8c1.2.3 3 0 3 0s-.8-5.2-3.2-6c-2.4-.9-7.2-1.1-7.6-.6S98.6 4 98 6.6c-.5 2.6-.5 3.3-.5 3.3s2.2-.8 3.1-2c.6-.8.5-.8.5-.8l-.5 1.3s1.5-1.1 2-2.1.7-1.9.7-1.9z"/></g></svg>