<svg width="34" height="34" xmlns="http://www.w3.org/2000/svg" viewBox="0 0 16.9 16.9">
    <g fill="#53AB6A">
    <path clip-path="url(#svgkajhsdfk2222)" d="M10.9 8.4c0-.8-.7-1.5-1.5-1.5v1c.3 0 .5.2.5.5s-.2.5-.5.5v1c.8 0 1.5-.6 1.5-1.5M7.8 5.5C7.5 5.5 6.3 7 6.3 7h-1c-.3-.1-.6.2-.6.4v2c0 .3.2.5.5.5h1s1.2 1.5 1.5 1.5c.5 0 .5-.2.5-.5v-5c.1-.2.1-.4-.4-.4"></path>
    <path clip-path="url(#svgkajhsdfk2222)" d="M10.4 5.5v1c.9.2 1.5 1 1.5 1.9 0 .9-.7 1.7-1.5 1.9v1c1.4-.2 2.6-1.5 2.6-2.9-.1-1.4-1.2-2.7-2.6-2.9"></path>
    <path clip-path="url(#svgkajhsdfk2222)" d="M8.4 0C3.8 0 0 3.8 0 8.4c0 4.7 3.8 8.4 8.4 8.4s8.4-3.8 8.4-8.4C16.9 3.8 13.1 0 8.4 0m0 15.9C4.3 15.9.9 12.5.9 8.4S4.3.9 8.4.9s7.5 3.4 7.5 7.5-3.3 7.5-7.5 7.5"></path>
    </g>
</svg>