<svg class="balloon__content__btn__play__icon" width="34" height="34" viewBox="0 0 36 36" xmlns="http://www.w3.org/2000/svg">
  <g fill="#0460A0" fill-rule="evenodd">
    <path d="M18 36c9.941 0 18-8.059 18-18S27.941 0 18 0 0 8.059 0 18s8.059 18 18 18zm0-2C9.163 34 2 26.837 2 18S9.163 2 18 2s16 7.163 16 16-7.163 16-16 16z"></path>
    <path d="M17.644 20.837c.171-.928 0-1.89-.548-2.68-.548-.791-1.336-1.341-2.295-1.513a2.923 2.923 0 0 0-2.191.447c-.651.447-1.096 1.1-1.233 1.856-.137.619 0 1.272.376 1.822.343.55.89.894 1.542 1.031a1.992 1.992 0 0 0 2.328-1.581c.172-.894-.41-1.788-1.301-1.96-.754-.137-1.404.413-1.575 1.17.068-.379 1.027-.55 1.438-.482.274.034.48.206.616.412.137.207.206.482.137.722a1.299 1.299 0 0 1-1.54 1.032c-.446-.104-.857-.344-1.097-.722-.274-.378-.342-.86-.274-1.307.103-.584.446-1.1.96-1.443.479-.344 1.095-.447 1.677-.344.754.137 1.404.584 1.85 1.237.445.654.582 1.41.445 2.166-.377 1.994-2.329 3.334-4.315 2.922-2.534-.481-4.212-2.99-3.733-5.534a5.89 5.89 0 0 1 2.534-3.816c1.336-.894 2.911-1.203 4.487-.928a7.529 7.529 0 0 1 5.753 5.156c0 .481 1.062.378.856.825-.959 1.96-4.212 3.713-6.883 4.4.993-.619 1.712-1.616 1.986-2.887zM6.65 22.625c.48-.412 2.09-1.169 2.09-1.169s.308.585.787 1.169c.377.447 1.473 1.169 1.473 1.169H6.753c-.513 0-.548-.722-.102-1.169z"></path>
    <path d="M22.986 19.875c.72-.997 2.432-2.372 3.562-2.819l.171-2.612c-.205-.103-.308-.344-.308-.585 0-.378.308-.687.685-.687.377 0 .685.31.685.687 0 .241-.137.482-.343.585l-.205 2.44c.205-.034.445-.034.65-.034l1.507-2.578a.65.65 0 0 1-.068-.275c0-.378.308-.688.685-.688a.688.688 0 0 1 0 1.375h-.069l-1.301 2.2c.822.138 1.507.447 1.473 1.066-.035 1.1-2.398 1.753-3.185 2.956-.788 1.203-2.706 2.888-3.562 2.888h-5.856s1.198-.413 1.918-.79c1.507-.757 2.774-2.029 3.561-3.129z"></path>
  </g>
</svg>